<?xml version="1.0" encoding="utf-8"?>
<!-- Generator: Adobe Illustrator 28.0.0, SVG Export Plug-In . SVG Version: 6.00 Build 0)  -->
<svg version="1.1" id="Layer_1" xmlns="http://www.w3.org/2000/svg" xmlns:xlink="http://www.w3.org/1999/xlink" x="0px" y="0px"
	 viewBox="0 0 673.04 270" style="enable-background:new 0 0 673.04 270;" xml:space="preserve">
<style type="text/css">
	.st0{fill:#FDCB7C;}
	.st1{fill:#222159;}
	.st2{fill-rule:evenodd;clip-rule:evenodd;fill:#222159;}
	.st3{fill:none;}
	.st4{fill-rule:evenodd;clip-rule:evenodd;fill:#FAB01A;}
	.st5{fill-rule:evenodd;clip-rule:evenodd;fill:#069B96;}
	.st6{fill-rule:evenodd;clip-rule:evenodd;fill:#2162AE;}
	.st7{fill-rule:evenodd;clip-rule:evenodd;fill:#5F449B;}
	.st8{fill-rule:evenodd;clip-rule:evenodd;fill:#B03963;}
	.st9{fill-rule:evenodd;clip-rule:evenodd;fill:#ED3326;}
	.st10{fill-rule:evenodd;clip-rule:evenodd;fill:#F37F20;}
	.st11{fill-rule:evenodd;clip-rule:evenodd;fill:none;stroke:#069B96;stroke-width:7;stroke-linejoin:round;stroke-miterlimit:10;}
	.st12{fill-rule:evenodd;clip-rule:evenodd;fill:none;stroke:#2162AE;stroke-width:7;stroke-linejoin:round;stroke-miterlimit:10;}
	.st13{fill-rule:evenodd;clip-rule:evenodd;fill:none;stroke:#5F449B;stroke-width:7;stroke-linejoin:round;stroke-miterlimit:10;}
	.st14{fill-rule:evenodd;clip-rule:evenodd;fill:none;stroke:#B03963;stroke-width:7;stroke-linejoin:round;stroke-miterlimit:10;}
	.st15{fill-rule:evenodd;clip-rule:evenodd;fill:none;stroke:#ED3326;stroke-width:7;stroke-linejoin:round;stroke-miterlimit:10;}
	.st16{fill-rule:evenodd;clip-rule:evenodd;fill:none;stroke:#F37F20;stroke-width:7;stroke-linejoin:round;stroke-miterlimit:10;}
	.st17{fill-rule:evenodd;clip-rule:evenodd;fill:none;stroke:#FAB01A;stroke-width:7;stroke-linejoin:round;stroke-miterlimit:10;}
	.st18{fill:#D49F29;}
	.st19{fill:#898683;}
	.st20{fill-rule:evenodd;clip-rule:evenodd;fill:none;stroke:#069B96;stroke-width:14;stroke-linejoin:round;stroke-miterlimit:10;}
	.st21{fill-rule:evenodd;clip-rule:evenodd;fill:none;stroke:#2162AE;stroke-width:14;stroke-linejoin:round;stroke-miterlimit:10;}
	.st22{fill-rule:evenodd;clip-rule:evenodd;fill:none;stroke:#5F449B;stroke-width:14;stroke-linejoin:round;stroke-miterlimit:10;}
	.st23{fill-rule:evenodd;clip-rule:evenodd;fill:none;stroke:#B03963;stroke-width:14;stroke-linejoin:round;stroke-miterlimit:10;}
	.st24{fill-rule:evenodd;clip-rule:evenodd;fill:none;stroke:#ED3326;stroke-width:14;stroke-linejoin:round;stroke-miterlimit:10;}
	.st25{fill-rule:evenodd;clip-rule:evenodd;fill:none;stroke:#F37F20;stroke-width:14;stroke-linejoin:round;stroke-miterlimit:10;}
	.st26{fill-rule:evenodd;clip-rule:evenodd;fill:none;stroke:#FAB01A;stroke-width:14;stroke-linejoin:round;stroke-miterlimit:10;}
</style>
<g>
	<path class="st0" d="M288.86,103.69l-5.4,12.11c-0.93,2.04-1.68,3.42-2.25,4.12c-0.57,0.71-1.2,1.06-1.89,1.06
		c-0.66,0-1.25-0.29-1.76-0.86c-0.33-0.36-1.09-1.68-2.27-3.96c-1.19-2.28-2.17-4.31-2.95-6.08l-5.94-13.37
		c-0.81-1.86-1.67-2.79-2.57-2.79c-0.96,0-1.49,0.8-1.58,2.39c-0.21,3.54-0.32,6.81-0.32,9.81c0,3.12,0.15,5.24,0.45,6.35
		c0.21,0.66,0.49,1.14,0.83,1.44c0.34,0.3,1.28,0.84,2.81,1.62c0.99,0.51,1.49,1.4,1.49,2.66c0,3.36-4.31,5.04-12.92,5.04
		c-7.26,0-10.9-1.64-10.9-4.91c0-0.84,0.19-1.45,0.56-1.82c0.38-0.37,1.34-0.94,2.9-1.69c0.99-0.45,1.66-1.07,2-1.85
		c0.34-0.78,0.64-2.3,0.88-4.55c0.27-2.4,0.53-6.34,0.77-11.82c0.24-5.48,0.36-10.17,0.36-14.07c0-4.89-0.38-8.21-1.13-9.95
		c-0.27-0.6-0.58-1.05-0.92-1.35c-0.35-0.3-1-0.69-1.96-1.17c-2.13-1.02-3.2-2.34-3.2-3.96c0-1.05,0.4-2.01,1.19-2.88
		c0.79-0.87,1.85-1.49,3.17-1.85c1.32-0.39,3.08-0.73,5.29-1.01c2.21-0.28,4.07-0.43,5.61-0.43c3.84,0,6.56,0.32,8.15,0.95
		c0.78,0.3,1.4,0.71,1.85,1.21c0.45,0.51,1.09,1.56,1.94,3.15l9.37,17.24c1.02,1.89,1.73,3.05,2.12,3.47
		c0.39,0.42,0.93,0.63,1.62,0.63c0.6,0,1.13-0.22,1.6-0.67c0.46-0.45,1.01-1.29,1.64-2.52L293.86,71c0.78-1.59,1.29-2.63,1.53-3.11
		c1.47-3,2.93-5,4.37-5.99c1.83-1.29,5.16-1.94,10-1.94c8.49,0,12.74,1.94,12.74,5.81c0,0.87-0.17,1.57-0.5,2.09
		c-0.33,0.53-1.01,1.16-2.03,1.91c-1.38,1.05-2.25,2.57-2.61,4.55c-0.69,4.14-1.04,9.18-1.04,15.13c0,7.65,0.36,14.36,1.08,20.12
		c0.18,1.41,0.46,2.37,0.83,2.88c0.38,0.51,1.34,1.28,2.9,2.3c1.08,0.72,1.62,1.68,1.62,2.88c0,2.1-1.4,3.59-4.19,4.46
		c-1.44,0.48-2.96,0.8-4.55,0.95c-1.59,0.15-4.04,0.22-7.34,0.22c-5.07,0-8.85-0.36-11.35-1.08c-2.76-0.81-4.14-2.19-4.14-4.14
		c0-0.72,0.18-1.31,0.54-1.78c0.36-0.46,1.29-1.31,2.79-2.54c0.78-0.63,1.31-1.85,1.6-3.65c0.29-1.8,0.43-4.86,0.43-9.19
		c0-2.4-0.11-3.98-0.34-4.73c-0.22-0.75-0.7-1.12-1.42-1.12c-0.84,0-1.65,0.58-2.43,1.73S290.42,100.24,288.86,103.69z"/>
	<path class="st0" d="M383.95,91.22l8.51,18.23c0.81,1.68,1.49,2.78,2.03,3.31s1.37,0.88,2.48,1.06c2.16,0.33,3.24,1.43,3.24,3.29
		c0,2.19-1.32,3.77-3.96,4.73c-2.64,0.96-6.96,1.44-12.97,1.44c-6.78,0-11.81-0.29-15.08-0.86c-1.5-0.27-2.69-0.82-3.58-1.64
		c-0.89-0.83-1.33-1.82-1.33-2.99c0-0.9,0.23-1.6,0.7-2.09c0.47-0.5,1.33-0.95,2.59-1.37c1.41-0.48,2.12-1.29,2.12-2.43
		c0-2.01-1.21-3.2-3.65-3.56c-2.61-0.36-6.29-0.54-11.03-0.54c-3.99,0-6.38,0.24-7.16,0.72c-0.48,0.3-0.9,0.84-1.26,1.62
		s-0.54,1.53-0.54,2.25c0,0.66,0.13,1.09,0.38,1.28s1.09,0.52,2.5,0.97c1.83,0.54,2.75,1.62,2.75,3.24c0,3.57-4.28,5.36-12.83,5.36
		c-4.86,0-8.43-0.33-10.72-0.99c-2.1-0.63-3.15-2.01-3.15-4.14c0-0.93,0.23-1.65,0.7-2.16c0.47-0.51,1.3-0.97,2.5-1.4
		c1.95-0.69,3.43-1.66,4.43-2.9c1.01-1.25,2.44-3.91,4.3-7.99l6.35-13.91c2.34-5.1,3.91-8.92,4.71-11.46
		c0.79-2.54,1.21-5.02,1.24-7.45c0.03-2.58,0.19-4.38,0.47-5.38c0.29-1,0.92-1.99,1.91-2.95c2.07-2.1,4.71-3.15,7.92-3.15
		c3.03,0,5.93,1.19,8.69,3.56C371.04,66.14,376.63,75.58,383.95,91.22z M352.61,96.89h8.83c1.62,0,2.43-0.36,2.43-1.08
		c0-0.99-1.12-3.42-3.38-7.29c-1.02-1.77-1.8-2.96-2.34-3.56c-0.54-0.6-1.11-0.9-1.71-0.9c-1.08,0-1.98,1.01-2.7,3.02
		c-0.12,0.27-0.56,1.34-1.31,3.2c-1.26,3.06-1.89,4.89-1.89,5.49C350.54,96.51,351.23,96.89,352.61,96.89z"/>
	<path class="st0" d="M426.77,63.03l22.42,19.63c2.1,1.83,3.62,2.75,4.55,2.75c1.56,0,2.34-1.67,2.34-5c0-3.78-0.23-6.36-0.68-7.74
		c-0.45-1.38-1.4-2.42-2.84-3.11c-1.17-0.57-2-1.18-2.48-1.82c-0.48-0.65-0.72-1.48-0.72-2.5c0-2.52,1.73-4.14,5.18-4.86
		c1.41-0.3,3.87-0.45,7.38-0.45c4.53,0,7.67,0.27,9.41,0.81c2.76,0.84,4.14,2.43,4.14,4.77c0,1.95-1.12,3.42-3.38,4.41
		c-0.9,0.39-1.52,0.74-1.85,1.04c-0.33,0.3-0.62,0.75-0.86,1.35c-0.81,1.98-1.23,5.73-1.26,11.26v14.68c0,2.25,0.01,5.33,0.04,9.23
		c0.03,5.28-0.29,9.09-0.95,11.44c-0.81,2.91-2.28,4.37-4.41,4.37c-0.93,0-1.73-0.2-2.41-0.58c-0.68-0.39-1.79-1.29-3.35-2.7
		l-26.7-23.91c-1.86-1.68-3.41-2.52-4.64-2.52c-1.83,0-2.75,2.54-2.75,7.61c0,4.17,0.23,7.02,0.7,8.55
		c0.46,1.53,1.42,2.66,2.86,3.38c2.01,0.99,3.02,2.28,3.02,3.87c0,4.17-4.49,6.26-13.46,6.26c-4.05,0-7.2-0.53-9.43-1.6
		c-2.24-1.06-3.35-2.57-3.35-4.52c0-1.02,0.21-1.79,0.63-2.3c0.42-0.51,1.37-1.2,2.84-2.07c1.41-0.84,2.27-2.33,2.57-4.46
		c0.51-3.87,0.77-9.44,0.77-16.7c0-7.74-0.45-13.39-1.35-16.93c-0.33-1.29-0.75-2.25-1.26-2.88c-0.51-0.63-1.35-1.23-2.52-1.8
		c-1.35-0.66-2.29-1.31-2.81-1.94c-0.53-0.63-0.79-1.4-0.79-2.3c0-2.88,2.48-4.7,7.43-5.45c1.68-0.24,4.62-0.36,8.83-0.36
		c2.4,0,4.15,0.19,5.25,0.56C423.97,60.86,425.27,61.71,426.77,63.03z"/>
	<path class="st0" d="M534.19,91.22l8.51,18.23c0.81,1.68,1.49,2.78,2.03,3.31c0.54,0.53,1.37,0.88,2.48,1.06
		c2.16,0.33,3.24,1.43,3.24,3.29c0,2.19-1.32,3.77-3.96,4.73s-6.96,1.44-12.97,1.44c-6.78,0-11.81-0.29-15.08-0.86
		c-1.5-0.27-2.69-0.82-3.58-1.64c-0.89-0.83-1.33-1.82-1.33-2.99c0-0.9,0.23-1.6,0.7-2.09c0.46-0.5,1.33-0.95,2.59-1.37
		c1.41-0.48,2.12-1.29,2.12-2.43c0-2.01-1.22-3.2-3.65-3.56c-2.61-0.36-6.29-0.54-11.03-0.54c-3.99,0-6.38,0.24-7.16,0.72
		c-0.48,0.3-0.9,0.84-1.26,1.62s-0.54,1.53-0.54,2.25c0,0.66,0.13,1.09,0.38,1.28c0.25,0.2,1.09,0.52,2.5,0.97
		c1.83,0.54,2.75,1.62,2.75,3.24c0,3.57-4.28,5.36-12.83,5.36c-4.86,0-8.43-0.33-10.72-0.99c-2.1-0.63-3.15-2.01-3.15-4.14
		c0-0.93,0.23-1.65,0.7-2.16c0.46-0.51,1.3-0.97,2.5-1.4c1.95-0.69,3.43-1.66,4.44-2.9c1-1.25,2.44-3.91,4.3-7.99l6.35-13.91
		c2.34-5.1,3.91-8.92,4.71-11.46c0.79-2.54,1.21-5.02,1.24-7.45c0.03-2.58,0.19-4.38,0.47-5.38c0.29-1,0.92-1.99,1.91-2.95
		c2.07-2.1,4.71-3.15,7.92-3.15c3.03,0,5.93,1.19,8.69,3.56C521.29,66.14,526.87,75.58,534.19,91.22z M502.86,96.89h8.83
		c1.62,0,2.43-0.36,2.43-1.08c0-0.99-1.12-3.42-3.38-7.29c-1.02-1.77-1.8-2.96-2.34-3.56c-0.54-0.6-1.11-0.9-1.71-0.9
		c-1.08,0-1.98,1.01-2.7,3.02c-0.12,0.27-0.56,1.34-1.31,3.2c-1.26,3.06-1.89,4.89-1.89,5.49
		C500.79,96.51,501.48,96.89,502.86,96.89z"/>
	<path class="st0" d="M579.44,59.61c3.09,0,7.14,0.76,12.16,2.3c0.6,0.18,1.08,0.27,1.44,0.27c0.3,0,1.2-0.27,2.7-0.81
		c0.48-0.18,0.99-0.27,1.53-0.27c2.01,0,4.13,1.59,6.37,4.77c2.24,3.18,3.35,6.21,3.35,9.09c0,1.68-0.5,3.1-1.51,4.25
		c-1.01,1.16-2.23,1.73-3.67,1.73c-1.2,0-2.18-0.24-2.93-0.72c-0.75-0.48-2.4-1.91-4.95-4.28c-3.6-3.36-7.14-5.04-10.63-5.04
		c-1.68,0-3.02,0.41-4.03,1.22c-1.01,0.81-1.51,1.88-1.51,3.2c0,2.61,2.3,4.58,6.89,5.9c6.21,1.83,10.19,3.17,11.93,4.01
		c7.65,3.72,11.48,9.2,11.48,16.43c0,6.39-2.61,11.62-7.83,15.67c-5.34,4.14-12.32,6.21-20.94,6.21c-3.84,0-7.89-0.46-12.16-1.37
		c-4.26-0.92-7.34-1.99-9.23-3.22c-1.44-0.96-2.74-3.05-3.89-6.28s-1.73-6.37-1.73-9.43c0-1.47,0.3-2.58,0.9-3.33
		c0.75-0.96,1.7-1.44,2.84-1.44c1.14,0,2.24,0.58,3.29,1.76c0.63,0.66,2.12,2.78,4.46,6.35c1.11,1.68,2.87,3.08,5.29,4.19
		c2.42,1.11,4.92,1.67,7.5,1.67c2.22,0,4.02-0.41,5.4-1.24c1.38-0.83,2.07-1.88,2.07-3.17c0-1.2-0.54-2.24-1.62-3.11
		c-1.08-0.87-2.84-1.68-5.27-2.43c-4.29-1.35-7.56-2.59-9.82-3.71c-2.25-1.12-4.35-2.54-6.3-4.25c-4.74-4.2-7.11-8.97-7.11-14.32
		c0-2.64,0.62-5.21,1.85-7.72c1.23-2.51,2.97-4.67,5.22-6.51C566.03,61.73,572.18,59.61,579.44,59.61z"/>
</g>
<g>
	<path class="st1" d="M290.08,100.89l-5.4,12.11c-0.93,2.04-1.68,3.42-2.25,4.12c-0.57,0.71-1.2,1.06-1.89,1.06
		c-0.66,0-1.25-0.29-1.76-0.86c-0.33-0.36-1.09-1.68-2.27-3.96s-2.17-4.31-2.95-6.08l-5.94-13.37c-0.81-1.86-1.67-2.79-2.57-2.79
		c-0.96,0-1.49,0.8-1.58,2.39c-0.21,3.54-0.32,6.81-0.32,9.81c0,3.12,0.15,5.24,0.45,6.35c0.21,0.66,0.49,1.14,0.83,1.44
		c0.34,0.3,1.28,0.84,2.81,1.62c0.99,0.51,1.49,1.4,1.49,2.66c0,3.36-4.31,5.04-12.92,5.04c-7.26,0-10.9-1.64-10.9-4.91
		c0-0.84,0.19-1.45,0.56-1.82c0.38-0.37,1.34-0.94,2.9-1.69c0.99-0.45,1.66-1.07,2-1.85c0.34-0.78,0.64-2.3,0.88-4.55
		c0.27-2.4,0.52-6.34,0.77-11.82c0.24-5.48,0.36-10.17,0.36-14.07c0-4.89-0.38-8.21-1.12-9.95c-0.27-0.6-0.58-1.05-0.92-1.35
		c-0.35-0.3-1-0.69-1.96-1.17c-2.13-1.02-3.2-2.34-3.2-3.96c0-1.05,0.4-2.01,1.19-2.88c0.79-0.87,1.85-1.49,3.17-1.85
		c1.32-0.39,3.08-0.73,5.29-1.01c2.21-0.28,4.08-0.43,5.61-0.43c3.84,0,6.56,0.32,8.15,0.95c0.78,0.3,1.4,0.71,1.85,1.21
		c0.45,0.51,1.1,1.56,1.94,3.15l9.36,17.24c1.02,1.89,1.73,3.05,2.12,3.47c0.39,0.42,0.93,0.63,1.62,0.63c0.6,0,1.13-0.22,1.6-0.67
		c0.46-0.45,1.01-1.29,1.64-2.52l6.35-12.38c0.78-1.59,1.29-2.63,1.53-3.11c1.47-3,2.93-5,4.37-5.99c1.83-1.29,5.16-1.94,10-1.94
		c8.49,0,12.74,1.94,12.74,5.81c0,0.87-0.17,1.57-0.5,2.09s-1.01,1.16-2.03,1.91c-1.38,1.05-2.25,2.57-2.61,4.55
		c-0.69,4.14-1.04,9.18-1.04,15.13c0,7.65,0.36,14.36,1.08,20.12c0.18,1.41,0.46,2.37,0.83,2.88c0.38,0.51,1.34,1.28,2.9,2.3
		c1.08,0.72,1.62,1.68,1.62,2.88c0,2.1-1.4,3.59-4.19,4.46c-1.44,0.48-2.96,0.8-4.55,0.95c-1.59,0.15-4.04,0.22-7.34,0.22
		c-5.07,0-8.85-0.36-11.35-1.08c-2.76-0.81-4.14-2.19-4.14-4.14c0-0.72,0.18-1.31,0.54-1.78c0.36-0.46,1.29-1.31,2.79-2.54
		c0.78-0.63,1.31-1.85,1.6-3.65c0.28-1.8,0.43-4.86,0.43-9.19c0-2.4-0.11-3.98-0.34-4.73c-0.23-0.75-0.7-1.12-1.42-1.12
		c-0.84,0-1.65,0.58-2.43,1.73C292.81,95.13,291.63,97.44,290.08,100.89z"/>
	<path class="st1" d="M385.16,88.41l8.51,18.23c0.81,1.68,1.49,2.78,2.03,3.31c0.54,0.53,1.37,0.88,2.48,1.06
		c2.16,0.33,3.24,1.43,3.24,3.29c0,2.19-1.32,3.77-3.96,4.73c-2.64,0.96-6.96,1.44-12.97,1.44c-6.78,0-11.81-0.29-15.08-0.86
		c-1.5-0.27-2.69-0.82-3.58-1.64c-0.89-0.83-1.33-1.82-1.33-2.99c0-0.9,0.23-1.6,0.7-2.09c0.46-0.5,1.33-0.95,2.59-1.37
		c1.41-0.48,2.12-1.29,2.12-2.43c0-2.01-1.22-3.2-3.65-3.56c-2.61-0.36-6.29-0.54-11.03-0.54c-3.99,0-6.38,0.24-7.16,0.72
		c-0.48,0.3-0.9,0.84-1.26,1.62s-0.54,1.53-0.54,2.25c0,0.66,0.13,1.09,0.38,1.28c0.25,0.2,1.09,0.52,2.5,0.97
		c1.83,0.54,2.75,1.62,2.75,3.24c0,3.57-4.28,5.36-12.83,5.36c-4.86,0-8.43-0.33-10.71-0.99c-2.1-0.63-3.15-2.01-3.15-4.14
		c0-0.93,0.23-1.65,0.7-2.16c0.46-0.51,1.3-0.97,2.5-1.4c1.95-0.69,3.43-1.66,4.43-2.9c1-1.25,2.44-3.91,4.3-7.99l6.35-13.91
		c2.34-5.1,3.91-8.92,4.7-11.46c0.8-2.54,1.21-5.02,1.24-7.45c0.03-2.58,0.19-4.38,0.47-5.38c0.29-1,0.92-1.99,1.91-2.95
		c2.07-2.1,4.71-3.15,7.92-3.15c3.03,0,5.93,1.19,8.69,3.56C372.26,63.34,377.84,72.78,385.16,88.41z M353.83,94.09h8.82
		c1.62,0,2.43-0.36,2.43-1.08c0-0.99-1.13-3.42-3.38-7.29c-1.02-1.77-1.8-2.96-2.34-3.56c-0.54-0.6-1.11-0.9-1.71-0.9
		c-1.08,0-1.98,1.01-2.7,3.02c-0.12,0.27-0.56,1.34-1.31,3.2c-1.26,3.06-1.89,4.89-1.89,5.49
		C351.76,93.71,352.45,94.09,353.83,94.09z"/>
	<path class="st1" d="M427.98,60.23l22.42,19.63c2.1,1.83,3.62,2.75,4.55,2.75c1.56,0,2.34-1.67,2.34-5c0-3.78-0.22-6.36-0.67-7.74
		c-0.45-1.38-1.4-2.42-2.84-3.11c-1.17-0.57-2-1.18-2.48-1.82s-0.72-1.48-0.72-2.5c0-2.52,1.73-4.14,5.18-4.86
		c1.41-0.3,3.87-0.45,7.38-0.45c4.53,0,7.67,0.27,9.41,0.81c2.76,0.84,4.14,2.43,4.14,4.77c0,1.95-1.12,3.42-3.38,4.41
		c-0.9,0.39-1.52,0.74-1.85,1.04c-0.33,0.3-0.62,0.75-0.86,1.35c-0.81,1.98-1.23,5.73-1.26,11.26v14.68c0,2.25,0.01,5.33,0.04,9.23
		c0.03,5.28-0.29,9.09-0.95,11.44c-0.81,2.91-2.28,4.37-4.41,4.37c-0.93,0-1.73-0.2-2.41-0.58c-0.67-0.39-1.79-1.29-3.35-2.7
		l-26.7-23.91c-1.86-1.68-3.41-2.52-4.64-2.52c-1.83,0-2.75,2.54-2.75,7.61c0,4.17,0.23,7.02,0.7,8.55
		c0.46,1.53,1.42,2.66,2.86,3.38c2.01,0.99,3.02,2.28,3.02,3.87c0,4.17-4.49,6.26-13.46,6.26c-4.05,0-7.2-0.53-9.43-1.6
		c-2.24-1.06-3.35-2.57-3.35-4.52c0-1.02,0.21-1.79,0.63-2.3s1.37-1.2,2.84-2.07c1.41-0.84,2.27-2.33,2.57-4.46
		c0.51-3.87,0.77-9.44,0.77-16.7c0-7.74-0.45-13.39-1.35-16.93c-0.33-1.29-0.75-2.25-1.26-2.88c-0.51-0.63-1.35-1.23-2.52-1.8
		c-1.35-0.66-2.29-1.31-2.81-1.94c-0.53-0.63-0.79-1.4-0.79-2.3c0-2.88,2.48-4.7,7.43-5.45c1.68-0.24,4.62-0.36,8.82-0.36
		c2.4,0,4.15,0.19,5.25,0.56S426.48,58.91,427.98,60.23z"/>
	<path class="st1" d="M535.41,88.41l8.51,18.23c0.81,1.68,1.49,2.78,2.03,3.31c0.54,0.53,1.37,0.88,2.48,1.06
		c2.16,0.33,3.24,1.43,3.24,3.29c0,2.19-1.32,3.77-3.96,4.73s-6.96,1.44-12.97,1.44c-6.78,0-11.81-0.29-15.08-0.86
		c-1.5-0.27-2.69-0.82-3.58-1.64c-0.89-0.83-1.33-1.82-1.33-2.99c0-0.9,0.23-1.6,0.7-2.09c0.46-0.5,1.33-0.95,2.59-1.37
		c1.41-0.48,2.12-1.29,2.12-2.43c0-2.01-1.22-3.2-3.65-3.56c-2.61-0.36-6.29-0.54-11.03-0.54c-3.99,0-6.38,0.24-7.16,0.72
		c-0.48,0.3-0.9,0.84-1.26,1.62s-0.54,1.53-0.54,2.25c0,0.66,0.13,1.09,0.38,1.28c0.25,0.2,1.09,0.52,2.5,0.97
		c1.83,0.54,2.75,1.62,2.75,3.24c0,3.57-4.28,5.36-12.83,5.36c-4.86,0-8.43-0.33-10.72-0.99c-2.1-0.63-3.15-2.01-3.15-4.14
		c0-0.93,0.23-1.65,0.7-2.16c0.46-0.51,1.3-0.97,2.5-1.4c1.95-0.69,3.43-1.66,4.44-2.9c1-1.25,2.44-3.91,4.3-7.99l6.35-13.91
		c2.34-5.1,3.91-8.92,4.71-11.46c0.79-2.54,1.21-5.02,1.24-7.45c0.03-2.58,0.19-4.38,0.47-5.38c0.29-1,0.92-1.99,1.91-2.95
		c2.07-2.1,4.71-3.15,7.92-3.15c3.03,0,5.93,1.19,8.69,3.56C522.5,63.34,528.08,72.78,535.41,88.41z M504.07,94.09h8.83
		c1.62,0,2.43-0.36,2.43-1.08c0-0.99-1.12-3.42-3.38-7.29c-1.02-1.77-1.8-2.96-2.34-3.56c-0.54-0.6-1.11-0.9-1.71-0.9
		c-1.08,0-1.98,1.01-2.7,3.02c-0.12,0.27-0.56,1.34-1.31,3.2c-1.26,3.06-1.89,4.89-1.89,5.49C502,93.71,502.69,94.09,504.07,94.09z"
		/>
	<path class="st1" d="M580.66,56.81c3.09,0,7.14,0.76,12.16,2.3c0.6,0.18,1.08,0.27,1.44,0.27c0.3,0,1.2-0.27,2.7-0.81
		c0.48-0.18,0.99-0.27,1.53-0.27c2.01,0,4.13,1.59,6.37,4.77c2.24,3.18,3.35,6.21,3.35,9.09c0,1.68-0.5,3.1-1.51,4.25
		c-1.01,1.16-2.23,1.73-3.67,1.73c-1.2,0-2.18-0.24-2.93-0.72c-0.75-0.48-2.4-1.91-4.95-4.28c-3.6-3.36-7.14-5.04-10.63-5.04
		c-1.68,0-3.02,0.41-4.03,1.22c-1.01,0.81-1.51,1.88-1.51,3.2c0,2.61,2.3,4.58,6.89,5.9c6.21,1.83,10.19,3.17,11.93,4.01
		c7.65,3.72,11.48,9.2,11.48,16.43c0,6.39-2.61,11.62-7.83,15.67c-5.34,4.14-12.32,6.21-20.94,6.21c-3.84,0-7.89-0.46-12.16-1.37
		c-4.26-0.92-7.34-1.99-9.23-3.22c-1.44-0.96-2.74-3.05-3.89-6.28s-1.73-6.37-1.73-9.43c0-1.47,0.3-2.58,0.9-3.33
		c0.75-0.96,1.7-1.44,2.84-1.44c1.14,0,2.24,0.58,3.29,1.76c0.63,0.66,2.12,2.78,4.46,6.35c1.11,1.68,2.87,3.08,5.29,4.19
		c2.42,1.11,4.92,1.67,7.5,1.67c2.22,0,4.02-0.41,5.4-1.24c1.38-0.83,2.07-1.88,2.07-3.17c0-1.2-0.54-2.24-1.62-3.11
		c-1.08-0.87-2.84-1.68-5.27-2.43c-4.29-1.35-7.56-2.59-9.82-3.71c-2.25-1.12-4.35-2.54-6.3-4.25c-4.74-4.2-7.11-8.97-7.11-14.32
		c0-2.64,0.62-5.21,1.85-7.72c1.23-2.51,2.97-4.67,5.22-6.51C567.24,58.92,573.39,56.81,580.66,56.81z"/>
</g>
<path id="SVGID_x5F_1_x5F_" class="st3" d="M132.57,34.03c50.13,7.45,85.2,51.03,78.32,97.34c-6.88,46.31-53.1,77.82-103.23,70.37
	s-85.2-51.03-78.32-97.34S82.44,26.58,132.57,34.03z"/>
<text><textPath  xlink:href="#SVGID_x5F_1_x5F_" startOffset="102.6367%">
<tspan  class="st1" style="font-family:'Poppins-SemiBold'; font-size:19.0809px;">Narcotics Control Bureau</tspan></textPath>
</text>
<g>
	<path class="st4" d="M64.68,101.04c12.47,18.18,67.58,15.47,70.79,14.44c3.2-1.04-4.55-5.61-6.35-8.33
		c-26.9-6.83-44.56-8.73-58.6-21.18C64.08,80.26,58.77,92.41,64.68,101.04z"/>
</g>
<g>
	<path class="st5" d="M61.02,157.97c22,1.37,53.8-43.73,54.96-46.89c1.15-3.16-1.94-5.04-5.18-5.3
		c-21.95,16.99-39.6,34.92-58.06,38.32C44.28,145.65,50.58,157.32,61.02,157.97z"/>
</g>
<g>
	<path class="st6" d="M102.48,195.61c14.62-16.49-1.34-69.32-3.12-72.18c-1.78-2.86-4.39-1.82-6.6,0.58
		c-0.12,27.75,2.37,52.94-6.32,69.58C82.46,201.21,95.54,203.44,102.48,195.61z"/>
</g>
<g>
	<path class="st7" d="M158.54,186.3c-3.99-21.68-55.44-41.62-58.79-41.98c-3.35-0.35-4.55,2.43-4.02,5.64
		c21.79,17.18,43.58,30.64,51.35,47.73C150.64,205.52,160.44,196.59,158.54,186.3z"/>
</g>
<g>
	<path class="st8" d="M186.34,136.45c-19.54-10.2-66.93,18.07-69.28,20.49c-2.34,2.42-0.46,5.08,2.4,6.63
		c26.96-6.59,50.56-15.48,68.8-11.07C196.62,154.52,195.62,141.29,186.34,136.45z"/>
</g>
<g>
	<path class="st9" d="M164.08,84.36c-20.07,9.12-26.97,63.87-26.51,67.2c0.47,3.33,3.56,3.95,6.55,2.66
		c11.4-25.3,19.08-49.83,33.79-61.5C184.65,87.38,173.61,80.03,164.08,84.36z"/>
</g>
<g>
	<path class="st10" d="M109.52,70.69c-5.17,21.43,33.72,60.58,36.64,62.26c2.91,1.69,6.36,0.05,7.18-3.1
		c-12.92-24.56-28.57-46.14-28.71-64.92C124.56,56.34,111.98,60.52,109.52,70.69z"/>
</g>
<path class="st4" d="M122.83,106.03c-2.1,7.43,1.1,7.95,2.39,10.24c4.03,5.23,14.64,1.1,16.19,0.47c0.28-0.1,0.57-0.2,0.82-0.29
	c2.42-0.87,3.99-2.91,3.46-4.37c-0.28-0.78-1.1-1.28-2.17-1.45c1.14-0.97,1.72-2.2,1.37-3.17c-0.34-0.94-1.46-1.48-2.86-1.5
	c1-0.94,1.49-2.07,1.16-2.99c-0.43-1.2-2.12-1.74-4.06-1.41c0.63-0.76,0.9-1.6,0.64-2.3c-0.48-1.35-2.68-1.79-4.92-0.99
	c-0.83,0.3-1.55,0.73-2.1,1.22C129.67,99.91,124.23,101.07,122.83,106.03z"/>
<path class="st10" d="M146.23,118.42c-7.49,1.89-6.34,4.93-7.68,7.19c-2.51,6.11,6.36,13.24,7.69,14.26
	c0.22,0.19,0.46,0.39,0.66,0.57c1.96,1.67,4.51,2,5.52,0.82c0.54-0.64,0.56-1.6,0.17-2.61c1.41,0.5,2.77,0.39,3.44-0.4
	c0.65-0.77,0.55-2-0.13-3.23c1.31,0.4,2.54,0.25,3.17-0.49c0.83-0.97,0.45-2.71-0.8-4.22c0.97,0.16,1.83-0.02,2.31-0.59
	c0.93-1.09,0.21-3.22-1.6-4.75c-0.68-0.57-1.41-0.98-2.11-1.21C154.95,121.28,151.23,117.16,146.23,118.42z"/>
<path class="st9" d="M148.56,142.24c-6.21-4.6-7.83-1.79-10.42-1.4c-6.32,1.92-6.23,13.3-6.18,14.97c-0.01,0.3-0.01,0.6-0.02,0.87
	c-0.05,2.57,1.3,4.76,2.86,4.79c0.83,0.02,1.59-0.57,2.12-1.52c0.5,1.41,1.44,2.39,2.48,2.41c1,0.02,1.9-0.84,2.42-2.14
	c0.52,1.27,1.41,2.13,2.38,2.14c1.28,0.02,2.38-1.37,2.76-3.29c0.49,0.86,1.18,1.41,1.92,1.42c1.43,0.03,2.63-1.87,2.67-4.25
	c0.02-0.89-0.13-1.71-0.39-2.4C151.86,150.8,152.7,145.31,148.56,142.24z"/>
<path class="st8" d="M131.26,161.17c-0.88-7.68-4.04-6.94-6.1-8.57c-5.72-3.3-13.97,4.54-15.15,5.72c-0.22,0.2-0.45,0.4-0.65,0.58
	c-1.91,1.73-2.58,4.21-1.54,5.36c0.56,0.62,1.51,0.77,2.56,0.51c-0.69,1.33-0.76,2.69-0.06,3.46c0.67,0.75,1.91,0.81,3.21,0.3
	c-0.57,1.25-0.59,2.48,0.06,3.2c0.86,0.95,2.62,0.8,4.29-0.24c-0.29,0.94-0.22,1.82,0.28,2.37c0.96,1.06,3.16,0.64,4.92-0.95
	c0.66-0.59,1.16-1.27,1.48-1.93C127.26,169.43,131.85,166.29,131.26,161.17z"/>
<path class="st7" d="M106.91,158.56c5.96-4.91,3.63-7.16,3.87-9.78c-0.33-6.59-11.4-9.25-13.04-9.61c-0.29-0.08-0.58-0.16-0.84-0.23
	c-2.49-0.67-4.94,0.12-5.34,1.62c-0.22,0.81,0.17,1.68,0.96,2.43c-1.49,0.15-2.67,0.83-2.94,1.83c-0.26,0.97,0.35,2.04,1.49,2.86
	c-1.36,0.2-2.4,0.86-2.65,1.79c-0.33,1.23,0.75,2.64,2.53,3.47c-0.95,0.27-1.65,0.8-1.84,1.52c-0.37,1.38,1.19,3,3.48,3.61
	c0.86,0.23,1.69,0.29,2.42,0.2C97.8,159.7,102.94,161.84,106.91,158.56z"/>
<path class="st6" d="M94.01,136.81c7.69,0.72,7.62-2.52,9.64-4.21c4.41-4.91-1.57-14.6-2.47-16.01c-0.15-0.26-0.3-0.52-0.44-0.76
	c-1.29-2.23-3.58-3.4-4.93-2.61c-0.72,0.42-1.06,1.32-1.03,2.4c-1.16-0.95-2.48-1.3-3.37-0.77c-0.87,0.5-1.19,1.7-0.96,3.08
	c-1.1-0.81-2.31-1.09-3.15-0.6c-1.1,0.64-1.33,2.4-0.65,4.24c-0.86-0.48-1.74-0.59-2.38-0.22c-1.24,0.72-1.28,2.96-0.08,5.01
	c0.44,0.77,1,1.4,1.58,1.85C86.75,131.19,88.88,136.33,94.01,136.81z"/>
<g>
	<path class="st4" d="M130.36,107.04c-7.72-1.96-14.67-3.52-21-5.03c5.18,3.8,10.16,8.39,12.54,14.13
		c7.99,0.02,13.83-0.46,14.81-0.78C139.91,114.33,132.15,109.76,130.36,107.04z"/>
</g>
<path class="st5" d="M104.52,114.44c5.46,5.47,7.48,2.93,10.1,2.93c6.53-0.96,8.13-12.23,8.33-13.89c0.05-0.29,0.1-0.59,0.15-0.86
	c0.43-2.54-0.59-4.9-2.12-5.16c-0.82-0.14-1.66,0.33-2.33,1.19c-0.29-1.47-1.08-2.58-2.1-2.75c-0.99-0.17-2,0.55-2.71,1.76
	c-0.33-1.33-1.08-2.31-2.04-2.47c-1.26-0.21-2.56,1-3.21,2.85c-0.36-0.92-0.96-1.56-1.69-1.69c-1.41-0.24-2.88,1.46-3.27,3.8
	c-0.15,0.87-0.12,1.71,0.04,2.43C102.53,105.47,100.88,110.79,104.52,114.44z"/>
<g>
	<polyline class="st11" points="71.96,175.48 50.68,148.54 57.81,118 	"/>
	<polyline class="st12" points="124.01,197.77 89.43,197.6 71.96,175.48 	"/>
	<polyline class="st13" points="173.05,171.69 151.95,197.9 124.01,197.77 	"/>
	<polyline class="st14" points="184.17,117.89 191.16,149.21 173.05,171.69 	"/>
	<polyline class="st15" points="148.7,74.13 177.54,88.19 184.17,117.89 	"/>
	<polyline class="st16" points="91.53,74.98 121.34,60.8 148.7,74.13 	"/>
	<polyline class="st17" points="57.81,118 64.89,87.65 91.53,74.98 	"/>
</g>
<path class="st1" d="M207.3,130.67c-0.33-6.33-1.33-12.57-2.88-18.73c-2.47-9.81-6.32-19.05-11.56-27.7
	c-0.49-0.82-0.64-1.45-0.21-2.4c0.74-1.6,0.39-3.14-0.65-4.63c-6.31-9.06-13.93-16.82-22.93-23.22
	c-14.86-10.56-31.42-15.94-48.63-16.19c-4.61,0.02-8.19,0.22-11.75,0.7c-12.82,1.75-24.69,6.14-35.57,13.13
	C62.52,58.45,53.66,67.1,46.49,77.48c-1,1.44-1.44,2.98-0.68,4.65c0.41,0.9,0.24,1.6-0.24,2.44c-2.94,5.15-5.7,10.4-7.78,15.97
	c-3.68,9.83-5.95,19.94-6.49,30.4c-5.02,1.11-8.78,5.59-8.78,10.94v9.73c0,6.19,5.02,11.21,11.21,11.21h0.35
	c6.19,0,11.21-5.02,11.21-11.21v-9.73c0-5.55-4.04-10.16-9.34-11.05c0.45-6.25,1.46-12.41,3.03-18.5
	c2.34-9.05,5.97-17.55,10.74-25.58c0.33-0.55,0.61-1.12,1.45-1.03c2.29,0.24,3.69-1.08,4.89-2.82c2.87-4.18,6.15-8.03,9.8-11.54
	c16.16-15.58,35.29-23.55,57.91-22.35c13.59,0.72,25.95,5.18,37.24,12.71c8.71,5.81,15.94,13.15,21.95,21.69
	c0.79,1.12,1.75,2.18,3.09,2.05c2.12-0.21,2.84,1.07,3.58,2.57c0.39,0.79,0.86,1.53,1.29,2.31c7,12.81,10.83,26.52,11.79,41.06
	c-4.25,1.59-7.28,5.69-7.28,10.5v9.73c0,2.54,0.84,4.88,2.27,6.76c0.05,0.09,0.11,0.16,0.18,0.23c1.09,1.37,2.5,2.48,4.11,3.21
	c-1.24,8.59-3.17,16.99-6.92,24.89c-4.51,9.48-10.94,17.37-19.63,23.3c-7.71,5.26-16.31,8.5-25.37,10.59
	c-0.8,0.18-1.28-0.05-1.8-0.67c-1.06-1.24-2.46-1.75-4.1-1.59c-3.98,0.41-7.95,0.84-11.93,1.23c-2.04,0.2-3.35,1.3-4.02,3.19
	c-0.45,1.28-0.15,2.56,0.04,3.84c0.4,2.74,2.47,4.34,5.2,4.07c3.86-0.39,7.72-0.79,11.59-1.14c2.31-0.21,4.2-1.26,5.56-3.03
	c0.9-1.16,1.95-1.68,3.29-2.04c10.84-2.89,20.82-7.51,29.46-14.79c8.8-7.42,14.79-16.78,18.68-27.52
	c2.26-6.26,3.77-12.71,4.51-19.32c0.03,0,0.07,0,0.1,0h0.35c6.19,0,11.21-5.02,11.21-11.21v-9.73
	C218.19,135.79,213.34,130.84,207.3,130.67z"/>
<path class="st18" d="M206.81,158.1L206.81,158.1c-4.3,0-7.78-3.48-7.78-7.78v-7.16c0-4.3,3.48-7.78,7.78-7.78h0
	c4.3,0,7.78,3.48,7.78,7.78v7.16C214.59,154.61,211.1,158.1,206.81,158.1z"/>
<ellipse class="st19" cx="120.98" cy="241.75" rx="68.22" ry="4.58"/>
<path class="st18" d="M33.9,158.1L33.9,158.1c-4.3,0-7.78-3.48-7.78-7.78v-7.16c0-4.3,3.48-7.78,7.78-7.78h0
	c4.3,0,7.78,3.48,7.78,7.78v7.16C41.69,154.61,38.2,158.1,33.9,158.1z"/>
<g>
	<path class="st1" d="M35.56,82.89l-0.88,2.3l-10.53,1.96l8.54,3.26l-0.88,2.31l-12.46-4.76l0.88-2.3l10.55-1.95l-8.55-3.27
		l0.88-2.31L35.56,82.89z"/>
	<path class="st1" d="M29.31,77.13c-0.52-0.75-0.81-1.53-0.87-2.34c-0.05-0.81,0.12-1.57,0.54-2.3c0.36-0.63,0.81-1.11,1.36-1.43
		c0.55-0.32,1.11-0.5,1.69-0.55l-1.31-0.74l1.23-2.16l9.19,5.22l-1.23,2.16l-1.35-0.76c0.28,0.52,0.42,1.1,0.42,1.75
		c0.01,0.65-0.17,1.29-0.53,1.92c-0.4,0.72-0.98,1.25-1.71,1.62c-0.73,0.36-1.56,0.51-2.48,0.44c-0.92-0.07-1.85-0.37-2.79-0.9
		C30.57,78.52,29.84,77.88,29.31,77.13z M33.7,71.87c-0.52-0.03-0.99,0.07-1.4,0.3c-0.41,0.22-0.73,0.54-0.96,0.93
		c-0.23,0.4-0.33,0.83-0.31,1.28c0.02,0.46,0.17,0.9,0.46,1.34c0.29,0.44,0.7,0.81,1.26,1.13c0.55,0.31,1.1,0.48,1.63,0.51
		c0.53,0.03,1.01-0.07,1.42-0.29c0.42-0.22,0.73-0.52,0.95-0.91c0.23-0.4,0.33-0.83,0.31-1.3c-0.02-0.47-0.17-0.92-0.46-1.36
		c-0.29-0.43-0.71-0.81-1.28-1.13C34.76,72.06,34.22,71.89,33.7,71.87z"/>
	<path class="st1" d="M36.27,62.16c0.05-0.6,0.26-1.17,0.65-1.7l2.27,1.65l-0.38,0.53c-0.46,0.63-0.64,1.22-0.55,1.77
		s0.53,1.11,1.32,1.69l4.26,3.1l-1.45,1.99l-8.54-6.22l1.45-2l1.33,0.97C36.34,63.35,36.23,62.76,36.27,62.16z"/>
	<path class="st1" d="M40.33,60.25c-0.33-0.85-0.43-1.7-0.28-2.55c0.15-0.84,0.54-1.62,1.17-2.31c0.81-0.9,1.72-1.43,2.74-1.58
		s2.06,0.07,3.12,0.66l-1.78,1.98c-0.44-0.2-0.86-0.26-1.28-0.19c-0.42,0.08-0.79,0.3-1.12,0.66c-0.47,0.52-0.64,1.12-0.5,1.8
		c0.14,0.68,0.58,1.36,1.34,2.04c0.75,0.67,1.46,1.04,2.15,1.11s1.27-0.17,1.74-0.69c0.67-0.74,0.74-1.55,0.23-2.42l1.78-1.98
		c0.67,0.97,0.99,1.97,0.96,3.02c-0.03,1.05-0.45,2.01-1.25,2.9c-0.63,0.7-1.36,1.17-2.18,1.41c-0.82,0.24-1.68,0.24-2.56,0
		c-0.89-0.24-1.73-0.73-2.55-1.46C41.23,61.9,40.66,61.1,40.33,60.25z"/>
	<path class="st1" d="M54.34,56.62c-0.86,0.15-1.73,0.06-2.6-0.29c-0.87-0.34-1.65-0.92-2.36-1.74C48.67,53.77,48.21,52.91,48,52
		c-0.21-0.91-0.17-1.79,0.11-2.63c0.28-0.84,0.78-1.57,1.49-2.19c0.71-0.62,1.5-1,2.37-1.16c0.87-0.16,1.75-0.07,2.62,0.26
		c0.87,0.34,1.67,0.91,2.37,1.73c0.71,0.82,1.16,1.69,1.36,2.61s0.16,1.81-0.13,2.65c-0.29,0.85-0.79,1.58-1.51,2.2
		C55.99,56.08,55.2,56.47,54.34,56.62z M55.89,52.62c0.14-0.44,0.15-0.91,0.02-1.42c-0.13-0.51-0.42-1.02-0.86-1.53
		c-0.66-0.76-1.35-1.18-2.07-1.27c-0.72-0.09-1.35,0.1-1.88,0.56c-0.53,0.46-0.8,1.05-0.81,1.77c-0.01,0.72,0.32,1.46,0.98,2.22
		c0.66,0.76,1.34,1.19,2.05,1.3s1.32-0.08,1.86-0.54C55.51,53.42,55.75,53.05,55.89,52.62z"/>
	<path class="st1" d="M59.22,42.68l2.95,4.18c0.21,0.29,0.42,0.46,0.64,0.49c0.22,0.04,0.48-0.05,0.79-0.27l0.94-0.66l1.3,1.84
		l-1.27,0.89c-1.7,1.2-3.18,0.91-4.44-0.88l-2.94-4.16l-0.95,0.67l-1.27-1.79l0.95-0.67l-1.51-2.13l2.03-1.43l1.51,2.13l1.78-1.26
		l1.27,1.79L59.22,42.68z"/>
	<path class="st1" d="M60.9,36.89c-0.4-0.1-0.72-0.35-0.95-0.72s-0.31-0.77-0.22-1.18c0.09-0.41,0.32-0.72,0.69-0.95
		c0.37-0.23,0.76-0.29,1.16-0.19c0.4,0.1,0.72,0.34,0.95,0.72c0.23,0.38,0.31,0.77,0.22,1.18c-0.09,0.41-0.32,0.72-0.69,0.95
		C61.69,36.93,61.3,36.99,60.9,36.89z M63.75,37.13l5.54,9l-2.1,1.29l-5.54-9L63.75,37.13z"/>
	<path class="st1" d="M67.41,37.72c0-0.92,0.22-1.74,0.66-2.47c0.45-0.73,1.09-1.31,1.92-1.74c1.08-0.55,2.12-0.71,3.12-0.48
		c1,0.23,1.89,0.8,2.67,1.74l-2.37,1.2c-0.33-0.34-0.71-0.56-1.12-0.64c-0.42-0.08-0.84-0.01-1.28,0.21c-0.63,0.32-1,0.82-1.12,1.5
		c-0.12,0.68,0.06,1.47,0.52,2.38c0.45,0.9,0.99,1.5,1.61,1.8c0.62,0.31,1.24,0.3,1.87-0.02c0.89-0.45,1.25-1.18,1.09-2.18l2.37-1.2
		c0.28,1.14,0.21,2.2-0.2,3.16c-0.41,0.96-1.15,1.72-2.21,2.26c-0.84,0.43-1.68,0.6-2.54,0.53c-0.85-0.07-1.65-0.38-2.39-0.93
		s-1.35-1.31-1.85-2.28C67.66,39.58,67.42,38.63,67.41,37.72z"/>
	<path class="st1" d="M81.72,39.61c-0.7-0.07-1.32-0.28-1.86-0.65c-0.54-0.37-0.94-0.85-1.2-1.44l2.32-0.88
		c0.19,0.36,0.48,0.61,0.88,0.75c0.4,0.13,0.82,0.12,1.27-0.06c0.44-0.17,0.75-0.39,0.92-0.68c0.17-0.28,0.2-0.58,0.09-0.87
		c-0.12-0.32-0.37-0.5-0.73-0.55c-0.36-0.04-0.91-0.04-1.64,0.02c-0.75,0.08-1.38,0.11-1.88,0.08c-0.51-0.02-0.99-0.17-1.45-0.45
		c-0.46-0.27-0.82-0.74-1.07-1.41c-0.21-0.55-0.25-1.1-0.13-1.67c0.12-0.56,0.4-1.08,0.85-1.55c0.44-0.47,1.03-0.84,1.77-1.12
		c1.09-0.41,2.07-0.45,2.94-0.11c0.87,0.34,1.53,1,1.98,1.97l-2.21,0.84c-0.18-0.38-0.45-0.63-0.81-0.76
		c-0.36-0.13-0.76-0.11-1.21,0.06c-0.42,0.16-0.71,0.36-0.87,0.62c-0.16,0.25-0.19,0.53-0.07,0.82c0.13,0.33,0.38,0.53,0.75,0.58
		c0.37,0.05,0.92,0.05,1.63-0.02c0.73-0.07,1.34-0.09,1.84-0.07c0.5,0.03,0.98,0.18,1.45,0.46c0.47,0.28,0.83,0.74,1.09,1.39
		c0.22,0.57,0.27,1.14,0.15,1.7c-0.12,0.56-0.4,1.08-0.85,1.54c-0.44,0.46-1.03,0.83-1.76,1.11C83.15,39.57,82.43,39.68,81.72,39.61
		z"/>
	<path class="st1" d="M91.04,26.01c0.33-1.12,0.9-2.07,1.71-2.82c0.81-0.76,1.79-1.25,2.94-1.49c1.35-0.28,2.6-0.15,3.77,0.39
		c1.17,0.54,2.09,1.43,2.76,2.67l-2.78,0.57c-0.4-0.57-0.89-0.95-1.45-1.16c-0.57-0.21-1.18-0.25-1.83-0.11
		c-0.7,0.14-1.29,0.45-1.76,0.92c-0.47,0.47-0.8,1.06-0.97,1.77c-0.17,0.71-0.17,1.5,0.01,2.37c0.18,0.86,0.49,1.58,0.92,2.18
		c0.44,0.59,0.97,1.01,1.59,1.25c0.62,0.24,1.28,0.29,1.98,0.15c0.66-0.13,1.2-0.41,1.64-0.83c0.44-0.42,0.73-0.97,0.88-1.65
		l2.78-0.57c-0.13,1.42-0.62,2.6-1.47,3.55c-0.85,0.95-1.96,1.56-3.32,1.84c-1.15,0.24-2.25,0.17-3.29-0.21
		c-1.04-0.38-1.94-1.01-2.68-1.91c-0.74-0.9-1.25-1.99-1.51-3.27C90.68,28.34,90.72,27.14,91.04,26.01z"/>
	<path class="st1" d="M107.56,32.94c-0.79-0.39-1.42-0.98-1.92-1.77c-0.49-0.79-0.78-1.73-0.87-2.8c-0.08-1.08,0.06-2.05,0.43-2.91
		c0.38-0.86,0.93-1.54,1.65-2.05c0.73-0.51,1.56-0.8,2.49-0.88c0.94-0.07,1.8,0.08,2.6,0.47c0.8,0.39,1.45,0.98,1.95,1.77
		c0.5,0.79,0.8,1.72,0.88,2.8c0.09,1.08-0.06,2.05-0.45,2.91c-0.39,0.86-0.95,1.54-1.68,2.06c-0.73,0.51-1.57,0.8-2.52,0.88
		C109.2,33.49,108.34,33.33,107.56,32.94z M111.19,30.65c0.37-0.27,0.66-0.64,0.86-1.13c0.2-0.49,0.27-1.07,0.22-1.74
		c-0.08-1-0.38-1.75-0.91-2.25c-0.53-0.5-1.15-0.72-1.85-0.67c-0.7,0.06-1.27,0.37-1.7,0.95c-0.43,0.58-0.61,1.37-0.53,2.37
		s0.37,1.75,0.88,2.26c0.5,0.5,1.11,0.73,1.81,0.67C110.4,31.06,110.81,30.91,111.19,30.65z"/>
	<path class="st1" d="M125.22,23.6c0.69,0.82,1.01,1.94,0.96,3.37l-0.21,6.2l-2.47-0.08l0.2-5.84c0.03-0.84-0.14-1.49-0.51-1.96
		c-0.37-0.46-0.89-0.71-1.56-0.73c-0.68-0.02-1.23,0.18-1.64,0.62c-0.41,0.44-0.63,1.08-0.66,1.92l-0.2,5.83l-2.47-0.08l0.36-10.56
		l2.47,0.08l-0.04,1.32c0.34-0.45,0.78-0.79,1.3-1.03c0.52-0.24,1.08-0.35,1.7-0.33C123.6,22.35,124.53,22.78,125.22,23.6z"/>
	<path class="st1" d="M131.91,25.48l-0.63,5.07c-0.04,0.35,0,0.62,0.14,0.8c0.14,0.18,0.39,0.29,0.77,0.33l1.14,0.14l-0.28,2.23
		l-1.54-0.19c-2.06-0.26-2.96-1.47-2.69-3.64l0.63-5.06l-1.15-0.14l0.27-2.18l1.15,0.14l0.32-2.59l2.47,0.31l-0.32,2.59l2.17,0.27
		l-0.27,2.18L131.91,25.48z"/>
	<path class="st1" d="M140.19,24.97c0.56-0.21,1.17-0.26,1.81-0.14l-0.53,2.75l-0.64-0.12c-0.76-0.15-1.37-0.07-1.83,0.25
		c-0.46,0.31-0.79,0.95-0.97,1.91l-1,5.17l-2.42-0.47l2.01-10.38l2.42,0.47l-0.31,1.61C139.13,25.54,139.62,25.19,140.19,24.97z"/>
	<path class="st1" d="M143.16,35.63c-0.6-0.64-0.99-1.42-1.17-2.33c-0.18-0.91-0.13-1.89,0.17-2.93c0.3-1.04,0.77-1.9,1.43-2.57
		c0.65-0.67,1.41-1.12,2.27-1.34c0.86-0.22,1.74-0.21,2.64,0.05c0.9,0.26,1.66,0.71,2.27,1.36c0.61,0.64,1.01,1.43,1.21,2.34
		c0.2,0.92,0.14,1.89-0.16,2.93c-0.3,1.04-0.78,1.89-1.44,2.56c-0.66,0.67-1.43,1.12-2.29,1.34c-0.86,0.22-1.75,0.2-2.67-0.06
		C144.51,36.73,143.76,36.28,143.16,35.63z M147.36,34.76c0.44-0.12,0.84-0.37,1.2-0.76c0.35-0.39,0.63-0.9,0.81-1.55
		c0.28-0.97,0.26-1.78-0.06-2.43c-0.32-0.65-0.82-1.08-1.5-1.27c-0.68-0.2-1.32-0.1-1.93,0.29c-0.61,0.39-1.05,1.07-1.33,2.03
		c-0.28,0.97-0.27,1.77,0.03,2.42c0.3,0.65,0.78,1.07,1.46,1.26C146.48,34.87,146.92,34.88,147.36,34.76z"/>
	<path class="st1" d="M159.08,26.52l-4.97,13.22l-2.31-0.87l4.97-13.22L159.08,26.52z"/>
	<path class="st1" d="M170.23,41.09c0.11,0.75-0.02,1.47-0.38,2.17c-0.33,0.63-0.76,1.11-1.3,1.44c-0.54,0.33-1.15,0.49-1.83,0.47
		c-0.68-0.01-1.4-0.21-2.13-0.6l-4.7-2.46l6.19-11.79l4.5,2.36c0.74,0.39,1.31,0.85,1.71,1.39c0.4,0.54,0.62,1.11,0.65,1.72
		c0.03,0.61-0.1,1.2-0.41,1.79c-0.36,0.69-0.83,1.17-1.41,1.46c-0.58,0.28-1.2,0.38-1.86,0.27
		C169.79,39.74,170.12,40.34,170.23,41.09z M166.74,42.73c0.44-0.12,0.79-0.42,1.05-0.92c0.27-0.51,0.32-0.99,0.16-1.44
		c-0.16-0.45-0.51-0.82-1.04-1.09l-2.15-1.13l-1.67,3.18l2.2,1.15C165.81,42.76,166.3,42.84,166.74,42.73z M165.7,36.32l2,1.05
		c0.52,0.27,0.99,0.36,1.4,0.25c0.41-0.11,0.74-0.4,0.99-0.87s0.3-0.91,0.16-1.32c-0.15-0.41-0.48-0.75-1-1.02l-2-1.05L165.7,36.32z
		"/>
	<path class="st1" d="M183.13,43.78l-5.97,8.73l-2.05-1.4l0.75-1.1c-0.52,0.2-1.06,0.26-1.63,0.19c-0.57-0.07-1.1-0.28-1.6-0.62
		c-0.63-0.43-1.09-0.96-1.38-1.58c-0.29-0.62-0.38-1.31-0.27-2.06c0.11-0.75,0.43-1.51,0.96-2.29l3.5-5.12l2.04,1.39l-3.29,4.8
		c-0.47,0.69-0.68,1.33-0.61,1.93c0.06,0.59,0.37,1.08,0.93,1.46c0.56,0.38,1.13,0.5,1.71,0.35c0.57-0.15,1.1-0.58,1.57-1.27
		l3.29-4.8L183.13,43.78z"/>
	<path class="st1" d="M188.2,48.39c0.6,0.08,1.15,0.34,1.65,0.76l-1.8,2.15l-0.5-0.42c-0.59-0.5-1.17-0.72-1.72-0.67
		c-0.56,0.05-1.15,0.45-1.77,1.2l-3.38,4.04l-1.89-1.58l6.78-8.11l1.89,1.58l-1.05,1.26C187,48.38,187.6,48.31,188.2,48.39z"/>
	<path class="st1" d="M193.53,61.51l-5.02-5.08c-0.5,0.58-0.75,1.17-0.76,1.79c0,0.61,0.22,1.15,0.67,1.6
		c0.64,0.65,1.41,0.82,2.29,0.49l1.87,1.89c-0.92,0.51-1.9,0.72-2.92,0.61c-1.03-0.11-1.95-0.58-2.77-1.4
		c-0.66-0.67-1.09-1.43-1.3-2.28c-0.2-0.85-0.16-1.71,0.14-2.59c0.29-0.88,0.83-1.7,1.6-2.46c0.78-0.77,1.6-1.3,2.48-1.59
		c0.88-0.29,1.73-0.33,2.57-0.11c0.84,0.21,1.59,0.66,2.27,1.35c0.65,0.66,1.08,1.4,1.29,2.23c0.21,0.83,0.17,1.66-0.11,2.51
		s-0.79,1.63-1.52,2.36C194.04,61.1,193.78,61.33,193.53,61.51z M193.06,58.48c0.48-0.49,0.71-1.04,0.69-1.65s-0.26-1.14-0.71-1.6
		c-0.43-0.43-0.93-0.66-1.51-0.67c-0.58-0.02-1.15,0.19-1.73,0.63L193.06,58.48z"/>
	<path class="st1" d="M197.77,60.77c0.89-0.19,1.72-0.16,2.49,0.1c0.77,0.26,1.4,0.73,1.91,1.39c0.44,0.58,0.71,1.18,0.79,1.8
		c0.08,0.63,0.03,1.22-0.15,1.77l1.19-0.92l1.52,1.97l-8.37,6.46l-1.52-1.97l1.22-0.94c-0.59,0.05-1.18-0.04-1.78-0.29
		s-1.12-0.65-1.56-1.23c-0.5-0.65-0.78-1.38-0.83-2.2c-0.05-0.81,0.13-1.63,0.55-2.45c0.42-0.82,1.06-1.56,1.91-2.22
		C196,61.38,196.87,60.96,197.77,60.77z M200.92,66.85c0.22-0.47,0.31-0.94,0.26-1.41c-0.05-0.47-0.21-0.88-0.49-1.25
		c-0.28-0.36-0.63-0.62-1.06-0.78c-0.43-0.16-0.9-0.19-1.41-0.1c-0.52,0.09-1.02,0.33-1.53,0.72c-0.5,0.39-0.87,0.82-1.1,1.31
		c-0.23,0.48-0.33,0.96-0.29,1.42c0.04,0.47,0.2,0.88,0.47,1.23c0.28,0.36,0.64,0.63,1.08,0.79c0.44,0.16,0.92,0.2,1.43,0.1
		c0.51-0.1,1.02-0.34,1.54-0.74S200.7,67.32,200.92,66.85z"/>
	<path class="st1" d="M212.03,77.64l-9.14,5.32l-1.25-2.15l1.16-0.67c-0.56-0.04-1.08-0.22-1.56-0.53
		c-0.48-0.31-0.87-0.73-1.18-1.24c-0.38-0.66-0.57-1.33-0.57-2.02c0.01-0.68,0.22-1.34,0.64-1.97c0.42-0.63,1.04-1.18,1.85-1.66
		l5.36-3.12l1.24,2.13l-5.03,2.93c-0.72,0.42-1.19,0.91-1.38,1.48c-0.2,0.56-0.12,1.13,0.21,1.71c0.34,0.59,0.81,0.94,1.39,1.05
		c0.58,0.11,1.24-0.05,1.97-0.47l5.03-2.93L212.03,77.64z"/>
</g>
<g>
	<path class="st4" d="M64.68,101.04c12.47,18.18,67.58,15.47,70.79,14.44c3.2-1.04-4.55-5.61-6.35-8.33
		c-26.9-6.83-44.56-8.73-58.6-21.18C64.08,80.26,58.77,92.41,64.68,101.04z"/>
</g>
<g>
	<path class="st5" d="M61.02,157.97c22,1.37,53.8-43.73,54.96-46.89c1.15-3.16-1.94-5.04-5.18-5.3
		c-21.95,16.99-39.6,34.92-58.06,38.32C44.28,145.65,50.58,157.32,61.02,157.97z"/>
</g>
<g>
	<path class="st6" d="M102.48,195.61c14.62-16.49-1.34-69.32-3.12-72.18c-1.78-2.86-4.39-1.82-6.6,0.58
		c-0.12,27.75,2.37,52.94-6.32,69.58C82.46,201.21,95.54,203.44,102.48,195.61z"/>
</g>
<g>
	<path class="st7" d="M158.54,186.3c-3.99-21.68-55.44-41.62-58.79-41.98c-3.35-0.35-4.55,2.43-4.02,5.64
		c21.79,17.18,43.58,30.64,51.35,47.73C150.64,205.52,160.44,196.59,158.54,186.3z"/>
</g>
<g>
	<path class="st8" d="M186.34,136.45c-19.54-10.2-66.93,18.07-69.28,20.49c-2.34,2.42-0.46,5.08,2.4,6.63
		c26.96-6.59,50.56-15.48,68.8-11.07C196.62,154.52,195.62,141.29,186.34,136.45z"/>
</g>
<g>
	<path class="st9" d="M164.08,84.36c-20.07,9.12-26.97,63.87-26.51,67.2c0.47,3.33,3.56,3.95,6.55,2.66
		c11.4-25.3,19.08-49.83,33.79-61.5C184.65,87.38,173.61,80.03,164.08,84.36z"/>
</g>
<g>
	<path class="st10" d="M109.52,70.69c-5.17,21.43,33.72,60.58,36.64,62.26c2.91,1.69,6.36,0.05,7.18-3.1
		c-12.92-24.56-28.57-46.14-28.71-64.92C124.56,56.34,111.98,60.52,109.52,70.69z"/>
</g>
<path class="st4" d="M122.83,106.03c-2.1,7.43,1.1,7.95,2.39,10.24c4.03,5.23,14.64,1.1,16.19,0.47c0.28-0.1,0.57-0.2,0.82-0.29
	c2.42-0.87,3.99-2.91,3.46-4.37c-0.28-0.78-1.1-1.28-2.17-1.45c1.14-0.97,1.72-2.2,1.37-3.17c-0.34-0.94-1.46-1.48-2.86-1.5
	c1-0.94,1.49-2.07,1.16-2.99c-0.43-1.2-2.12-1.74-4.06-1.41c0.63-0.76,0.9-1.6,0.64-2.3c-0.48-1.35-2.68-1.79-4.92-0.99
	c-0.83,0.3-1.55,0.73-2.1,1.22C129.67,99.91,124.23,101.07,122.83,106.03z"/>
<path class="st10" d="M146.23,118.42c-7.49,1.89-6.34,4.93-7.68,7.19c-2.51,6.11,6.36,13.24,7.69,14.26
	c0.22,0.19,0.46,0.39,0.66,0.57c1.96,1.67,4.51,2,5.52,0.82c0.54-0.64,0.56-1.6,0.17-2.61c1.41,0.5,2.77,0.39,3.44-0.4
	c0.65-0.77,0.55-2-0.13-3.23c1.31,0.4,2.54,0.25,3.17-0.49c0.83-0.97,0.45-2.71-0.8-4.22c0.97,0.16,1.83-0.02,2.31-0.59
	c0.93-1.09,0.21-3.22-1.6-4.75c-0.68-0.57-1.41-0.98-2.11-1.21C154.95,121.28,151.23,117.16,146.23,118.42z"/>
<path class="st9" d="M148.56,142.24c-6.21-4.6-7.83-1.79-10.42-1.4c-6.32,1.92-6.23,13.3-6.18,14.97c-0.01,0.3-0.01,0.6-0.02,0.87
	c-0.05,2.57,1.3,4.76,2.86,4.79c0.83,0.02,1.59-0.57,2.12-1.52c0.5,1.41,1.44,2.39,2.48,2.41c1,0.02,1.9-0.84,2.42-2.14
	c0.52,1.27,1.41,2.13,2.38,2.14c1.28,0.02,2.38-1.37,2.76-3.29c0.49,0.86,1.18,1.41,1.92,1.42c1.43,0.03,2.63-1.87,2.67-4.25
	c0.02-0.89-0.13-1.71-0.39-2.4C151.86,150.8,152.7,145.31,148.56,142.24z"/>
<path class="st8" d="M131.26,161.17c-0.88-7.68-4.04-6.94-6.1-8.57c-5.72-3.3-13.97,4.54-15.15,5.72c-0.22,0.2-0.45,0.4-0.65,0.58
	c-1.91,1.73-2.58,4.21-1.54,5.36c0.56,0.62,1.51,0.77,2.56,0.51c-0.69,1.33-0.76,2.69-0.06,3.46c0.67,0.75,1.91,0.81,3.21,0.3
	c-0.57,1.25-0.59,2.48,0.06,3.2c0.86,0.95,2.62,0.8,4.29-0.24c-0.29,0.94-0.22,1.82,0.28,2.37c0.96,1.06,3.16,0.64,4.92-0.95
	c0.66-0.59,1.16-1.27,1.48-1.93C127.26,169.43,131.85,166.29,131.26,161.17z"/>
<path class="st7" d="M106.91,158.56c5.96-4.91,3.63-7.16,3.87-9.78c-0.33-6.59-11.4-9.25-13.04-9.61c-0.29-0.08-0.58-0.16-0.84-0.23
	c-2.49-0.67-4.94,0.12-5.34,1.62c-0.22,0.81,0.17,1.68,0.96,2.43c-1.49,0.15-2.67,0.83-2.94,1.83c-0.26,0.97,0.35,2.04,1.49,2.86
	c-1.36,0.2-2.4,0.86-2.65,1.79c-0.33,1.23,0.75,2.64,2.53,3.47c-0.95,0.27-1.65,0.8-1.84,1.52c-0.37,1.38,1.19,3,3.48,3.61
	c0.86,0.23,1.69,0.29,2.42,0.2C97.8,159.7,102.94,161.84,106.91,158.56z"/>
<path class="st6" d="M94.01,136.81c7.69,0.72,7.62-2.52,9.64-4.21c4.41-4.91-1.57-14.6-2.47-16.01c-0.15-0.26-0.3-0.52-0.44-0.76
	c-1.29-2.23-3.58-3.4-4.93-2.61c-0.72,0.42-1.06,1.32-1.03,2.4c-1.16-0.95-2.48-1.3-3.37-0.77c-0.87,0.5-1.19,1.7-0.96,3.08
	c-1.1-0.81-2.31-1.09-3.15-0.6c-1.1,0.64-1.33,2.4-0.65,4.24c-0.86-0.48-1.74-0.59-2.38-0.22c-1.24,0.72-1.28,2.96-0.08,5.01
	c0.44,0.77,1,1.4,1.58,1.85C86.75,131.19,88.88,136.33,94.01,136.81z"/>
<g>
	<path class="st4" d="M130.36,107.04c-7.72-1.96-14.67-3.52-21-5.03c5.18,3.8,10.16,8.39,12.54,14.13
		c7.99,0.02,13.83-0.46,14.81-0.78C139.91,114.33,132.15,109.76,130.36,107.04z"/>
</g>
<path class="st5" d="M104.52,114.44c5.46,5.47,7.48,2.93,10.1,2.93c6.53-0.96,8.13-12.23,8.33-13.89c0.05-0.29,0.1-0.59,0.15-0.86
	c0.43-2.54-0.59-4.9-2.12-5.16c-0.82-0.14-1.66,0.33-2.33,1.19c-0.29-1.47-1.08-2.58-2.1-2.75c-0.99-0.17-2,0.55-2.71,1.76
	c-0.33-1.33-1.08-2.31-2.04-2.47c-1.26-0.21-2.56,1-3.21,2.85c-0.36-0.92-0.96-1.56-1.69-1.69c-1.41-0.24-2.88,1.46-3.27,3.8
	c-0.15,0.87-0.12,1.71,0.04,2.43C102.53,105.47,100.88,110.79,104.52,114.44z"/>
<path class="st1" d="M207.3,130.67c-0.33-6.33-1.33-12.57-2.88-18.73c-2.47-9.81-6.32-19.05-11.56-27.7
	c-0.49-0.82-0.64-1.45-0.21-2.4c0.74-1.6,0.39-3.14-0.65-4.63c-6.31-9.06-13.93-16.82-22.93-23.22
	c-14.86-10.56-31.42-15.94-48.63-16.19c-4.61,0.02-8.19,0.22-11.75,0.7c-12.82,1.75-24.69,6.14-35.57,13.13
	C62.52,58.45,53.66,67.1,46.49,77.48c-1,1.44-1.44,2.98-0.68,4.65c0.41,0.9,0.24,1.6-0.24,2.44c-2.94,5.15-5.7,10.4-7.78,15.97
	c-3.68,9.83-5.95,19.94-6.49,30.4c-5.02,1.11-8.78,5.59-8.78,10.94v9.73c0,6.19,5.02,11.21,11.21,11.21h0.35
	c6.19,0,11.21-5.02,11.21-11.21v-9.73c0-5.55-4.04-10.16-9.34-11.05c0.45-6.25,1.46-12.41,3.03-18.5
	c2.34-9.05,5.97-17.55,10.74-25.58c0.33-0.55,0.61-1.12,1.45-1.03c2.29,0.24,3.69-1.08,4.89-2.82c2.87-4.18,6.15-8.03,9.8-11.54
	c16.16-15.58,35.29-23.55,57.91-22.35c13.59,0.72,25.95,5.18,37.24,12.71c8.71,5.81,15.94,13.15,21.95,21.69
	c0.79,1.12,1.75,2.18,3.09,2.05c2.12-0.21,2.84,1.07,3.58,2.57c0.39,0.79,0.86,1.53,1.29,2.31c7,12.81,10.83,26.52,11.79,41.06
	c-4.25,1.59-7.28,5.69-7.28,10.5v9.73c0,2.54,0.84,4.88,2.27,6.76c0.05,0.09,0.11,0.16,0.18,0.23c1.09,1.37,2.5,2.48,4.11,3.21
	c-1.24,8.59-3.17,16.99-6.92,24.89c-4.51,9.48-10.94,17.37-19.63,23.3c-7.71,5.26-16.31,8.5-25.37,10.59
	c-0.8,0.18-1.28-0.05-1.8-0.67c-1.06-1.24-2.46-1.75-4.1-1.59c-3.98,0.41-7.95,0.84-11.93,1.23c-2.04,0.2-3.35,1.3-4.02,3.19
	c-0.45,1.28-0.15,2.56,0.04,3.84c0.4,2.74,2.47,4.34,5.2,4.07c3.86-0.39,7.72-0.79,11.59-1.14c2.31-0.21,4.2-1.26,5.56-3.03
	c0.9-1.16,1.95-1.68,3.29-2.04c10.84-2.89,20.82-7.51,29.46-14.79c8.8-7.42,14.79-16.78,18.68-27.52
	c2.26-6.26,3.77-12.71,4.51-19.32c0.03,0,0.07,0,0.1,0h0.35c6.19,0,11.21-5.02,11.21-11.21v-9.73
	C218.19,135.79,213.34,130.84,207.3,130.67z"/>
<path class="st18" d="M206.81,158.1L206.81,158.1c-4.3,0-7.78-3.48-7.78-7.78v-7.16c0-4.3,3.48-7.78,7.78-7.78h0
	c4.3,0,7.78,3.48,7.78,7.78v7.16C214.59,154.61,211.1,158.1,206.81,158.1z"/>
<ellipse class="st19" cx="120.98" cy="241.75" rx="68.22" ry="4.58"/>
<path class="st18" d="M33.9,158.1L33.9,158.1c-4.3,0-7.78-3.48-7.78-7.78v-7.16c0-4.3,3.48-7.78,7.78-7.78h0
	c4.3,0,7.78,3.48,7.78,7.78v7.16C41.69,154.61,38.2,158.1,33.9,158.1z"/>
<g>
	<path class="st1" d="M259.4,219.2h-3.07l-9.24-13.99v13.99h-3.07v-18.76h3.07l9.24,13.96v-13.96h3.07V219.2z"/>
	<path class="st1" d="M263.35,207.75c0.62-1.15,1.46-2.04,2.53-2.68s2.25-0.96,3.54-0.96c1.17,0,2.19,0.23,3.06,0.69
		c0.87,0.46,1.57,1.03,2.09,1.71v-2.16h3.1v14.85h-3.1v-2.21c-0.52,0.7-1.23,1.29-2.13,1.75c-0.9,0.47-1.92,0.7-3.07,0.7
		c-1.28,0-2.44-0.33-3.5-0.98c-1.06-0.66-1.9-1.57-2.52-2.75c-0.62-1.18-0.93-2.51-0.93-4C262.42,210.22,262.73,208.9,263.35,207.75
		z M273.94,209.1c-0.42-0.75-0.97-1.33-1.66-1.72c-0.68-0.4-1.42-0.59-2.21-0.59c-0.79,0-1.53,0.19-2.21,0.58
		c-0.68,0.39-1.24,0.95-1.66,1.7c-0.42,0.75-0.63,1.63-0.63,2.65s0.21,1.92,0.63,2.7c0.42,0.77,0.98,1.36,1.67,1.77
		c0.69,0.4,1.42,0.61,2.2,0.61c0.79,0,1.53-0.2,2.21-0.59c0.68-0.4,1.24-0.97,1.66-1.74s0.63-1.66,0.63-2.68
		C274.58,210.74,274.36,209.85,273.94,209.1z"/>
	<path class="st1" d="M285.3,206.86v8.22c0,0.56,0.13,0.96,0.39,1.2c0.26,0.24,0.71,0.36,1.33,0.36h1.89v2.56h-2.43
		c-1.38,0-2.44-0.32-3.18-0.97c-0.74-0.65-1.1-1.7-1.1-3.15v-8.22h-1.75v-2.51h1.75v-3.69h3.1v3.69h3.61v2.51H285.3z"/>
	<path class="st1" d="M291.91,201.82c-0.38-0.38-0.57-0.84-0.57-1.4c0-0.56,0.19-1.02,0.57-1.4c0.38-0.38,0.84-0.57,1.4-0.57
		c0.54,0,1,0.19,1.37,0.57c0.38,0.38,0.57,0.84,0.57,1.4c0,0.56-0.19,1.02-0.57,1.4c-0.38,0.38-0.83,0.57-1.37,0.57
		C292.75,202.39,292.28,202.2,291.91,201.82z M294.82,204.35v14.85h-3.07v-14.85H294.82z"/>
	<path class="st1" d="M301.5,218.49c-1.13-0.64-2.02-1.54-2.67-2.7c-0.65-1.16-0.97-2.5-0.97-4.03c0-1.51,0.33-2.85,1-4.02
		s1.57-2.07,2.72-2.7c1.15-0.63,2.43-0.94,3.85-0.94c1.42,0,2.7,0.31,3.85,0.94c1.15,0.63,2.06,1.53,2.72,2.7
		c0.66,1.17,1,2.51,1,4.02c0,1.51-0.34,2.85-1.02,4.02s-1.61,2.07-2.79,2.71c-1.18,0.64-2.48,0.96-3.89,0.96
		C303.9,219.45,302.63,219.13,301.5,218.49z M307.53,216.21c0.69-0.38,1.25-0.94,1.68-1.7c0.43-0.75,0.65-1.67,0.65-2.75
		s-0.21-1.99-0.62-2.74c-0.41-0.75-0.96-1.31-1.64-1.68c-0.68-0.38-1.42-0.57-2.21-0.57s-1.52,0.19-2.2,0.57s-1.21,0.94-1.6,1.68
		c-0.4,0.75-0.59,1.66-0.59,2.74c0,1.6,0.41,2.83,1.23,3.71c0.82,0.87,1.85,1.31,3.09,1.31
		C306.09,216.78,306.83,216.59,307.53,216.21z"/>
	<path class="st1" d="M326.69,204.84c0.93,0.49,1.65,1.2,2.17,2.16c0.52,0.95,0.78,2.1,0.78,3.45v8.76h-3.05v-8.3
		c0-1.33-0.33-2.35-1-3.06c-0.67-0.71-1.57-1.06-2.72-1.06c-1.15,0-2.06,0.35-2.74,1.06s-1.01,1.73-1.01,3.06v8.3h-3.07v-14.85h3.07
		v1.7c0.5-0.61,1.15-1.09,1.93-1.43c0.78-0.34,1.61-0.51,2.49-0.51C324.72,204.11,325.76,204.35,326.69,204.84z"/>
	<path class="st1" d="M333.45,207.75c0.62-1.15,1.46-2.04,2.53-2.68s2.25-0.96,3.54-0.96c1.17,0,2.19,0.23,3.06,0.69
		c0.87,0.46,1.57,1.03,2.09,1.71v-2.16h3.1v14.85h-3.1v-2.21c-0.52,0.7-1.23,1.29-2.13,1.75c-0.9,0.47-1.92,0.7-3.07,0.7
		c-1.28,0-2.44-0.33-3.5-0.98c-1.06-0.66-1.9-1.57-2.52-2.75c-0.62-1.18-0.93-2.51-0.93-4C332.52,210.22,332.83,208.9,333.45,207.75
		z M344.04,209.1c-0.42-0.75-0.97-1.33-1.66-1.72c-0.68-0.4-1.42-0.59-2.21-0.59c-0.79,0-1.53,0.19-2.21,0.58
		c-0.68,0.39-1.24,0.95-1.66,1.7c-0.42,0.75-0.63,1.63-0.63,2.65s0.21,1.92,0.63,2.7c0.42,0.77,0.98,1.36,1.67,1.77
		c0.69,0.4,1.42,0.61,2.2,0.61c0.79,0,1.53-0.2,2.21-0.59c0.68-0.4,1.24-0.97,1.66-1.74s0.63-1.66,0.63-2.68
		C344.68,210.74,344.47,209.85,344.04,209.1z"/>
	<path class="st1" d="M354.89,199.26v19.95h-3.07v-19.95H354.89z"/>
	<path class="st1" d="M381.33,219.2h-3.07l-9.25-13.99v13.99h-3.07v-18.76h3.07l9.25,13.96v-13.96h3.07V219.2z"/>
	<path class="st1" d="M385.28,207.75c0.62-1.15,1.46-2.04,2.53-2.68c1.07-0.64,2.25-0.96,3.54-0.96c1.17,0,2.19,0.23,3.06,0.69
		c0.87,0.46,1.57,1.03,2.09,1.71v-2.16h3.1v14.85h-3.1v-2.21c-0.52,0.7-1.23,1.29-2.13,1.75s-1.92,0.7-3.07,0.7
		c-1.28,0-2.44-0.33-3.5-0.98c-1.06-0.66-1.9-1.57-2.52-2.75s-0.93-2.51-0.93-4C384.35,210.22,384.66,208.9,385.28,207.75z
		 M395.87,209.1c-0.42-0.75-0.97-1.33-1.66-1.72c-0.68-0.4-1.42-0.59-2.21-0.59s-1.53,0.19-2.21,0.58s-1.24,0.95-1.66,1.7
		c-0.42,0.75-0.63,1.63-0.63,2.65s0.21,1.92,0.63,2.7c0.42,0.77,0.98,1.36,1.67,1.77c0.69,0.4,1.42,0.61,2.2,0.61
		c0.79,0,1.53-0.2,2.21-0.59c0.68-0.4,1.24-0.97,1.66-1.74c0.42-0.76,0.63-1.66,0.63-2.68C396.51,210.74,396.3,209.85,395.87,209.1z
		"/>
	<path class="st1" d="M408.52,204.74c0.75-0.42,1.63-0.63,2.66-0.63v3.18h-0.78c-1.2,0-2.12,0.31-2.74,0.92
		c-0.62,0.61-0.93,1.67-0.93,3.18v7.82h-3.07v-14.85h3.07v2.16C407.17,205.76,407.77,205.17,408.52,204.74z"/>
	<path class="st1" d="M413.91,207.74c0.62-1.16,1.48-2.05,2.57-2.68c1.1-0.63,2.35-0.94,3.77-0.94c1.8,0,3.28,0.43,4.46,1.28
		s1.97,2.07,2.39,3.65h-3.32c-0.27-0.74-0.7-1.31-1.29-1.72c-0.59-0.41-1.34-0.62-2.24-0.62c-1.26,0-2.26,0.44-3,1.33
		c-0.75,0.89-1.12,2.13-1.12,3.73c0,1.6,0.37,2.85,1.12,3.75c0.75,0.9,1.75,1.35,3,1.35c1.78,0,2.96-0.78,3.53-2.34h3.32
		c-0.43,1.51-1.24,2.71-2.43,3.6c-1.19,0.89-2.66,1.33-4.42,1.33c-1.42,0-2.68-0.32-3.77-0.96c-1.1-0.64-1.95-1.54-2.57-2.7
		c-0.62-1.16-0.93-2.5-0.93-4.03C412.98,210.24,413.29,208.9,413.91,207.74z"/>
	<path class="st1" d="M432.81,218.49c-1.13-0.64-2.02-1.54-2.67-2.7c-0.65-1.16-0.97-2.5-0.97-4.03c0-1.51,0.33-2.85,1-4.02
		c0.66-1.17,1.57-2.07,2.72-2.7c1.15-0.63,2.43-0.94,3.85-0.94c1.42,0,2.7,0.31,3.85,0.94c1.15,0.63,2.06,1.53,2.72,2.7
		s1,2.51,1,4.02c0,1.51-0.34,2.85-1.02,4.02c-0.68,1.17-1.61,2.07-2.79,2.71s-2.48,0.96-3.89,0.96
		C435.21,219.45,433.95,219.13,432.81,218.49z M438.84,216.21c0.69-0.38,1.25-0.94,1.68-1.7c0.43-0.75,0.65-1.67,0.65-2.75
		s-0.21-1.99-0.62-2.74c-0.41-0.75-0.96-1.31-1.64-1.68s-1.42-0.57-2.21-0.57c-0.79,0-1.52,0.19-2.2,0.57
		c-0.67,0.38-1.21,0.94-1.6,1.68c-0.4,0.75-0.59,1.66-0.59,2.74c0,1.6,0.41,2.83,1.23,3.71c0.82,0.87,1.85,1.31,3.09,1.31
		C437.4,216.78,438.15,216.59,438.84,216.21z"/>
	<path class="st1" d="M450.95,206.86v8.22c0,0.56,0.13,0.96,0.39,1.2c0.26,0.24,0.71,0.36,1.33,0.36h1.89v2.56h-2.43
		c-1.38,0-2.44-0.32-3.18-0.97c-0.74-0.65-1.1-1.7-1.1-3.15v-8.22h-1.75v-2.51h1.75v-3.69h3.1v3.69h3.61v2.51H450.95z"/>
	<path class="st1" d="M457.55,201.82c-0.38-0.38-0.57-0.84-0.57-1.4c0-0.56,0.19-1.02,0.57-1.4c0.38-0.38,0.84-0.57,1.4-0.57
		c0.54,0,1,0.19,1.37,0.57c0.38,0.38,0.57,0.84,0.57,1.4c0,0.56-0.19,1.02-0.57,1.4c-0.38,0.38-0.83,0.57-1.37,0.57
		C458.4,202.39,457.93,202.2,457.55,201.82z M460.47,204.35v14.85h-3.07v-14.85H460.47z"/>
	<path class="st1" d="M464.41,207.74c0.62-1.16,1.48-2.05,2.57-2.68c1.1-0.63,2.35-0.94,3.77-0.94c1.8,0,3.28,0.43,4.46,1.28
		c1.18,0.85,1.97,2.07,2.38,3.65h-3.31c-0.27-0.74-0.7-1.31-1.29-1.72c-0.59-0.41-1.34-0.62-2.24-0.62c-1.26,0-2.26,0.44-3.01,1.33
		c-0.75,0.89-1.12,2.13-1.12,3.73c0,1.6,0.37,2.85,1.12,3.75c0.75,0.9,1.75,1.35,3.01,1.35c1.78,0,2.96-0.78,3.53-2.34h3.31
		c-0.43,1.51-1.24,2.71-2.43,3.6s-2.66,1.33-4.42,1.33c-1.42,0-2.68-0.32-3.77-0.96c-1.1-0.64-1.95-1.54-2.57-2.7
		c-0.62-1.16-0.93-2.5-0.93-4.03C463.48,210.24,463.79,208.9,464.41,207.74z"/>
	<path class="st1" d="M482.93,218.81c-0.93-0.42-1.66-1-2.2-1.73c-0.54-0.73-0.83-1.54-0.86-2.44h3.18c0.05,0.63,0.35,1.15,0.9,1.58
		c0.55,0.42,1.24,0.63,2.06,0.63c0.86,0,1.53-0.17,2.01-0.5c0.48-0.33,0.71-0.76,0.71-1.28c0-0.56-0.26-0.97-0.79-1.24
		s-1.37-0.57-2.52-0.89c-1.12-0.31-2.02-0.6-2.72-0.89c-0.7-0.29-1.31-0.73-1.82-1.32c-0.51-0.59-0.77-1.38-0.77-2.35
		c0-0.79,0.23-1.51,0.7-2.17c0.47-0.66,1.14-1.17,2.01-1.55c0.87-0.38,1.87-0.57,3.01-0.57c1.69,0,3.05,0.43,4.08,1.28
		s1.59,2.02,1.66,3.49h-3.07c-0.05-0.66-0.32-1.19-0.81-1.59s-1.14-0.59-1.97-0.59c-0.81,0-1.43,0.15-1.86,0.46
		c-0.43,0.31-0.65,0.71-0.65,1.21c0,0.4,0.14,0.73,0.43,1c0.29,0.27,0.64,0.48,1.05,0.63s1.02,0.35,1.83,0.58
		c1.08,0.29,1.96,0.58,2.66,0.88c0.69,0.3,1.29,0.73,1.79,1.31s0.76,1.34,0.78,2.29c0,0.84-0.23,1.6-0.7,2.26
		c-0.47,0.67-1.13,1.19-1.98,1.56c-0.85,0.38-1.86,0.57-3,0.57C484.9,219.45,483.86,219.24,482.93,218.81z"/>
	<path class="st1" d="M517.04,200.47v18.73h-3.07v-8.19h-8.81v8.19h-3.07v-18.73h3.07v8.03h8.81v-8.03H517.04z"/>
	<path class="st1" d="M534.58,212.92h-11.35c0.09,1.19,0.53,2.14,1.32,2.86s1.76,1.08,2.91,1.08c1.65,0,2.82-0.69,3.5-2.08h3.32
		c-0.45,1.37-1.26,2.48-2.44,3.36s-2.64,1.31-4.38,1.31c-1.42,0-2.69-0.32-3.81-0.96c-1.12-0.64-2-1.54-2.64-2.7
		c-0.64-1.16-0.96-2.5-0.96-4.03c0-1.53,0.31-2.87,0.93-4.03c0.62-1.16,1.49-2.05,2.62-2.68c1.12-0.63,2.41-0.94,3.87-0.94
		c1.4,0,2.65,0.31,3.75,0.92c1.1,0.61,1.95,1.47,2.56,2.57c0.61,1.11,0.92,2.38,0.92,3.81
		C534.69,211.97,534.66,212.48,534.58,212.92z M531.49,210.44c-0.02-1.13-0.42-2.04-1.21-2.72c-0.79-0.68-1.77-1.02-2.94-1.02
		c-1.06,0-1.97,0.34-2.72,1.01c-0.75,0.67-1.2,1.59-1.35,2.74H531.49z"/>
	<path class="st1" d="M540.78,199.26v19.95h-3.07v-19.95H540.78z"/>
	<path class="st1" d="M550.03,204.81c0.9-0.47,1.91-0.7,3.05-0.7c1.29,0,2.47,0.32,3.54,0.96c1.07,0.64,1.91,1.53,2.52,2.68
		c0.61,1.15,0.92,2.47,0.92,3.96c0,1.49-0.31,2.83-0.92,4c-0.61,1.18-1.45,2.09-2.52,2.75c-1.07,0.66-2.25,0.98-3.54,0.98
		c-1.13,0-2.14-0.23-3.02-0.69c-0.88-0.46-1.6-1.03-2.16-1.71v9.22h-3.07v-21.91h3.07v2.18
		C548.42,205.85,549.13,205.28,550.03,204.81z M556.3,209.06c-0.42-0.75-0.98-1.31-1.67-1.7c-0.69-0.39-1.43-0.58-2.22-0.58
		c-0.77,0-1.51,0.2-2.2,0.59s-1.25,0.97-1.67,1.72c-0.42,0.75-0.63,1.64-0.63,2.67c0,1.02,0.21,1.92,0.63,2.68
		c0.42,0.76,0.98,1.34,1.67,1.74s1.42,0.59,2.2,0.59c0.79,0,1.53-0.2,2.22-0.61c0.69-0.4,1.25-0.99,1.67-1.77
		c0.42-0.77,0.63-1.67,0.63-2.7S556.72,209.8,556.3,209.06z"/>
	<path class="st1" d="M566.17,199.26v19.95h-3.07v-19.95H566.17z"/>
	<path class="st1" d="M570.38,201.82c-0.38-0.38-0.57-0.84-0.57-1.4c0-0.56,0.19-1.02,0.57-1.4c0.38-0.38,0.84-0.57,1.4-0.57
		c0.54,0,1,0.19,1.37,0.57c0.38,0.38,0.57,0.84,0.57,1.4c0,0.56-0.19,1.02-0.57,1.4c-0.38,0.38-0.83,0.57-1.37,0.57
		C571.22,202.39,570.76,202.2,570.38,201.82z M573.29,204.35v14.85h-3.07v-14.85H573.29z"/>
	<path class="st1" d="M587.96,204.84c0.93,0.49,1.65,1.2,2.17,2.16c0.52,0.95,0.78,2.1,0.78,3.45v8.76h-3.05v-8.3
		c0-1.33-0.33-2.35-1-3.06s-1.57-1.06-2.72-1.06c-1.15,0-2.06,0.35-2.74,1.06s-1.01,1.73-1.01,3.06v8.3h-3.07v-14.85h3.07v1.7
		c0.5-0.61,1.15-1.09,1.93-1.43c0.78-0.34,1.61-0.51,2.49-0.51C585.99,204.11,587.04,204.35,587.96,204.84z"/>
	<path class="st1" d="M608.33,212.92h-11.35c0.09,1.19,0.53,2.14,1.32,2.86s1.76,1.08,2.91,1.08c1.65,0,2.82-0.69,3.5-2.08h3.32
		c-0.45,1.37-1.26,2.48-2.44,3.36s-2.64,1.31-4.38,1.31c-1.42,0-2.69-0.32-3.81-0.96c-1.12-0.64-2-1.54-2.64-2.7
		c-0.64-1.16-0.96-2.5-0.96-4.03c0-1.53,0.31-2.87,0.93-4.03c0.62-1.16,1.49-2.05,2.62-2.68c1.12-0.63,2.41-0.94,3.87-0.94
		c1.4,0,2.65,0.31,3.75,0.92c1.1,0.61,1.95,1.47,2.56,2.57c0.61,1.11,0.92,2.38,0.92,3.81C608.44,211.97,608.4,212.48,608.33,212.92
		z M605.23,210.44c-0.02-1.13-0.42-2.04-1.21-2.72c-0.79-0.68-1.77-1.02-2.94-1.02c-1.06,0-1.97,0.34-2.72,1.01
		c-0.75,0.67-1.2,1.59-1.35,2.74H605.23z"/>
</g>
<g>
	<path class="st1" d="M264.7,153.2h-2.98v19.05h-2.33v-7.95h-7.8v1.69c0,0.29-0.01,0.55-0.04,0.78c-0.02,0.23-0.08,0.42-0.16,0.57
		c-0.08,0.15-0.19,0.27-0.34,0.35s-0.34,0.12-0.59,0.12c-0.25,0-0.52-0.07-0.82-0.22s-0.61-0.35-0.92-0.6
		c-0.31-0.25-0.61-0.53-0.91-0.85s-0.56-0.65-0.79-0.99c-0.23-0.35-0.42-0.69-0.56-1.03s-0.21-0.65-0.21-0.94
		c0-0.2,0.04-0.36,0.11-0.49c0.07-0.13,0.17-0.22,0.3-0.29c0.13-0.07,0.28-0.11,0.46-0.13c0.18-0.02,0.38-0.04,0.61-0.04h1.53v-9.03
		h-5.12v-2.08h20.54V153.2z M251.6,153.2v9.03h7.8v-9.03H251.6z"/>
	<path class="st1" d="M272.24,153.2h-2.98v19.05h-2.32V153.2h-3.23v-2.08h8.53V153.2z"/>
	<path class="st1" d="M290.32,153.2h-4.81v6.22h-4.78c-1.48,0-2.6,0.37-3.36,1.1s-1.13,1.78-1.13,3.15c0,0.78,0.12,1.46,0.38,2.06
		c0.25,0.6,0.6,1.09,1.04,1.5c0.44,0.4,0.96,0.71,1.57,0.91c0.61,0.21,1.26,0.31,1.97,0.31c0.75,0,1.35-0.11,1.8-0.34
		c-0.04-0.24-0.07-0.44-0.08-0.62c-0.02-0.18-0.03-0.36-0.03-0.54c0-0.4,0.05-0.81,0.15-1.23c0.1-0.42,0.25-0.8,0.45-1.15
		s0.46-0.63,0.78-0.84c0.32-0.22,0.7-0.33,1.14-0.33c0.27,0,0.53,0.05,0.78,0.14c0.25,0.09,0.46,0.24,0.65,0.43
		c0.18,0.19,0.33,0.44,0.44,0.73s0.16,0.63,0.16,1.02s-0.05,0.74-0.16,1.07c-0.1,0.33-0.24,0.63-0.4,0.91
		c-0.17,0.28-0.35,0.54-0.56,0.78c-0.21,0.24-0.41,0.46-0.61,0.66c0.21,0.45,0.43,0.86,0.66,1.22s0.47,0.68,0.72,0.96
		c0.25,0.28,0.5,0.54,0.76,0.77c0.25,0.23,0.51,0.44,0.77,0.64l-1.74,1.83c-0.5-0.44-0.93-0.89-1.28-1.33s-0.65-0.85-0.89-1.24
		c-0.24-0.39-0.44-0.74-0.59-1.05c-0.15-0.31-0.27-0.56-0.37-0.75c-0.65,0.25-1.46,0.38-2.41,0.38c-1.23,0-2.3-0.2-3.22-0.6
		c-0.92-0.4-1.68-0.94-2.29-1.62s-1.07-1.45-1.37-2.32c-0.3-0.87-0.45-1.77-0.45-2.71c0-0.97,0.16-1.83,0.47-2.57
		c0.31-0.74,0.75-1.37,1.3-1.87c0.56-0.5,1.22-0.89,1.99-1.15c0.77-0.26,1.61-0.39,2.53-0.39h2.91v-4.15h-11.94v-2.08h19.07V153.2z"
		/>
	<path class="st1" d="M315.38,153.2H303.4v5.59l0.07,0.03c0.48-0.66,1.08-1.19,1.8-1.6c0.72-0.4,1.51-0.6,2.37-0.6
		c0.68,0,1.31,0.14,1.89,0.42c0.58,0.28,1.08,0.66,1.51,1.15c0.43,0.49,0.76,1.06,1,1.72c0.24,0.66,0.36,1.38,0.36,2.14
		c0,0.87-0.15,1.67-0.45,2.4s-0.69,1.4-1.16,1.99s-1.01,1.12-1.6,1.58c-0.59,0.46-1.18,0.85-1.76,1.17l-1.26-2.18
		c0.19-0.1,0.42-0.24,0.7-0.41c0.27-0.17,0.56-0.37,0.86-0.6s0.59-0.48,0.88-0.77s0.55-0.6,0.78-0.94c0.23-0.34,0.42-0.71,0.56-1.11
		c0.14-0.4,0.21-0.82,0.21-1.26c0-0.41-0.06-0.79-0.19-1.16c-0.13-0.37-0.3-0.69-0.53-0.96c-0.23-0.27-0.5-0.49-0.81-0.65
		c-0.32-0.16-0.67-0.24-1.04-0.24c-0.49,0-0.97,0.13-1.43,0.38c-0.46,0.25-0.88,0.57-1.26,0.96s-0.7,0.79-0.96,1.23
		c-0.26,0.44-0.43,0.84-0.52,1.21v9.58h-2.32v-5.43l-0.06-0.03c-0.14,0.12-0.32,0.27-0.54,0.45c-0.22,0.17-0.48,0.34-0.79,0.5
		c-0.31,0.16-0.66,0.3-1.06,0.41c-0.4,0.11-0.85,0.17-1.35,0.17c-0.83,0-1.6-0.16-2.3-0.48s-1.31-0.76-1.83-1.31
		c-0.52-0.55-0.92-1.2-1.21-1.95c-0.29-0.75-0.44-1.54-0.44-2.4c0-0.81,0.13-1.56,0.4-2.25c0.27-0.69,0.64-1.28,1.11-1.78
		c0.47-0.5,1.02-0.88,1.64-1.16c0.63-0.28,1.31-0.42,2.03-0.42c0.51,0,0.99,0.06,1.42,0.19c0.44,0.13,0.84,0.28,1.21,0.47
		s0.69,0.38,0.98,0.6c0.29,0.21,0.53,0.4,0.73,0.57l0.06-0.01v-5.19h-11.75v-2.08h26.06V153.2z M297.02,158.78
		c-0.54,0-1.01,0.11-1.42,0.33c-0.41,0.22-0.75,0.51-1.03,0.85s-0.48,0.73-0.62,1.16c-0.14,0.43-0.21,0.85-0.21,1.27
		c0,0.45,0.08,0.91,0.24,1.35c0.16,0.45,0.39,0.85,0.69,1.21s0.65,0.65,1.07,0.87s0.87,0.33,1.38,0.33c0.43,0,0.87-0.09,1.34-0.26
		c0.47-0.17,0.9-0.45,1.29-0.81c0.39-0.37,0.72-0.84,0.97-1.41c0.25-0.57,0.38-1.25,0.38-2.05v-0.7c-0.23-0.28-0.49-0.55-0.8-0.82
		c-0.31-0.26-0.64-0.49-0.99-0.69c-0.35-0.2-0.73-0.36-1.11-0.47C297.81,158.84,297.42,158.78,297.02,158.78z"/>
	<path class="st1" d="M340.12,153.2h-2.98v19.05h-2.34v-6.78l-0.06-0.01c-0.63,0.57-1.34,0.97-2.13,1.21
		c-0.79,0.24-1.56,0.36-2.33,0.36c-0.81,0-1.55-0.12-2.23-0.35c-0.67-0.24-1.25-0.6-1.73-1.08c-0.48-0.49-0.86-1.1-1.13-1.84
		s-0.4-1.62-0.4-2.64v-7.91h-3.16v-2.08h18.47V153.2z M334.8,153.2h-7.7v7.78c0,0.59,0.05,1.13,0.15,1.6
		c0.1,0.47,0.27,0.87,0.51,1.21c0.24,0.33,0.56,0.58,0.96,0.76c0.4,0.17,0.89,0.26,1.49,0.26c0.97,0,1.85-0.23,2.64-0.69
		c0.78-0.46,1.44-1.06,1.96-1.81V153.2z"/>
	<path class="st1" d="M358.2,153.2h-4.81v6.22h-4.78c-1.48,0-2.6,0.37-3.36,1.1c-0.76,0.73-1.13,1.78-1.13,3.15
		c0,0.78,0.12,1.46,0.38,2.06c0.25,0.6,0.6,1.09,1.04,1.5c0.44,0.4,0.96,0.71,1.57,0.91c0.6,0.21,1.26,0.31,1.97,0.31
		c0.75,0,1.35-0.11,1.8-0.34c-0.04-0.24-0.07-0.44-0.09-0.62c-0.02-0.18-0.03-0.36-0.03-0.54c0-0.4,0.05-0.81,0.15-1.23
		c0.1-0.42,0.25-0.8,0.45-1.15s0.46-0.63,0.78-0.84c0.32-0.22,0.7-0.33,1.14-0.33c0.27,0,0.53,0.05,0.78,0.14
		c0.25,0.09,0.46,0.24,0.64,0.43c0.18,0.19,0.33,0.44,0.44,0.73c0.11,0.29,0.16,0.63,0.16,1.02s-0.05,0.74-0.16,1.07
		c-0.1,0.33-0.24,0.63-0.4,0.91c-0.17,0.28-0.35,0.54-0.56,0.78c-0.21,0.24-0.41,0.46-0.61,0.66c0.21,0.45,0.43,0.86,0.66,1.22
		s0.47,0.68,0.72,0.96c0.25,0.28,0.5,0.54,0.76,0.77c0.26,0.23,0.51,0.44,0.77,0.64l-1.74,1.83c-0.5-0.44-0.93-0.89-1.28-1.33
		s-0.65-0.85-0.89-1.24c-0.24-0.39-0.44-0.74-0.59-1.05c-0.15-0.31-0.27-0.56-0.37-0.75c-0.65,0.25-1.46,0.38-2.41,0.38
		c-1.23,0-2.3-0.2-3.22-0.6s-1.68-0.94-2.29-1.62c-0.61-0.68-1.07-1.45-1.37-2.32c-0.3-0.87-0.45-1.77-0.45-2.71
		c0-0.97,0.16-1.83,0.47-2.57s0.75-1.37,1.3-1.87c0.56-0.5,1.22-0.89,1.99-1.15c0.77-0.26,1.61-0.39,2.53-0.39h2.91v-4.15h-11.94
		v-2.08h19.07V153.2z"/>
	<path class="st1" d="M365.74,153.2h-2.98v19.05h-2.32V153.2h-3.23v-2.08h8.53V153.2z"/>
	<path class="st1" d="M374.33,155.44c0,0.68-0.08,1.33-0.25,1.96s-0.42,1.2-0.77,1.72c-0.34,0.52-0.76,0.99-1.27,1.4
		c-0.51,0.41-1.1,0.75-1.78,1.01c0.14,0.64,0.34,1.19,0.6,1.64c0.25,0.45,0.56,0.82,0.91,1.11s0.74,0.51,1.16,0.64
		c0.43,0.13,0.87,0.2,1.35,0.2c0.95,0,1.82-0.22,2.63-0.65c0.81-0.43,1.49-1.04,2.04-1.8v-11.55h5.3v2.08h-2.98v19.05h-2.32v-6.63
		l-0.06-0.01c-0.25,0.21-0.54,0.41-0.88,0.62c-0.34,0.2-0.72,0.38-1.13,0.54c-0.41,0.16-0.85,0.28-1.33,0.38
		c-0.47,0.1-0.96,0.15-1.47,0.15c-1.06,0-1.96-0.21-2.71-0.62s-1.38-0.95-1.89-1.62s-0.9-1.43-1.19-2.29
		c-0.29-0.86-0.49-1.73-0.62-2.63c0.83-0.17,1.53-0.42,2.09-0.74c0.56-0.32,1.01-0.69,1.35-1.11c0.34-0.42,0.58-0.87,0.73-1.36
		c0.15-0.49,0.22-0.98,0.22-1.48c0-0.83-0.16-1.46-0.49-1.88s-0.74-0.63-1.23-0.63c-0.43,0-0.78,0.15-1.05,0.44s-0.4,0.67-0.4,1.12
		c0,0.08,0.01,0.19,0.03,0.31c0.02,0.12,0.07,0.26,0.14,0.42c0.08,0.16,0.19,0.33,0.34,0.53c0.15,0.19,0.35,0.4,0.61,0.62
		l-1.26,1.54c-0.43-0.24-0.79-0.5-1.06-0.79s-0.49-0.58-0.64-0.89c-0.15-0.3-0.25-0.6-0.31-0.89s-0.09-0.55-0.09-0.8
		c0-0.45,0.08-0.9,0.23-1.34s0.39-0.84,0.7-1.19c0.31-0.35,0.7-0.64,1.18-0.86c0.47-0.22,1.03-0.33,1.66-0.33s1.19,0.11,1.67,0.34
		c0.48,0.23,0.89,0.54,1.22,0.95c0.33,0.41,0.58,0.89,0.75,1.45C374.24,154.14,374.33,154.76,374.33,155.44z"/>
	<path class="st1" d="M383.86,144.92c-0.42-0.47-0.8-0.82-1.16-1.04s-0.78-0.33-1.26-0.33c-0.74,0-1.33,0.25-1.77,0.76
		c-0.44,0.5-0.67,1.22-0.67,2.13c0,0.38,0.04,0.77,0.13,1.18c0.08,0.41,0.21,0.82,0.37,1.24c0.16,0.42,0.36,0.83,0.6,1.23
		s0.51,0.79,0.81,1.16h-2.35c-0.57-0.8-0.99-1.63-1.28-2.47c-0.28-0.85-0.43-1.67-0.43-2.47c0-0.78,0.13-1.47,0.38-2.08
		c0.25-0.61,0.58-1.13,1-1.55c0.42-0.42,0.9-0.73,1.45-0.96c0.55-0.22,1.14-0.33,1.75-0.33c0.82,0,1.56,0.16,2.21,0.49
		s1.25,0.85,1.82,1.57L383.86,144.92z"/>
	<path class="st1" d="M399.04,153.2h-2.98v19.05h-2.32V153.2h-3.23v-2.08h3.23c-0.52-1.25-0.78-2.41-0.78-3.49
		c0-0.69,0.11-1.33,0.34-1.93c0.23-0.6,0.57-1.11,1.04-1.54s1.07-0.78,1.79-1.02c0.73-0.25,1.59-0.37,2.59-0.37
		c1.31,0,2.58,0.21,3.79,0.64c1.21,0.43,2.4,1.02,3.57,1.77c1.16,0.76,2.31,1.65,3.45,2.69c1.14,1.04,2.29,2.17,3.45,3.4h-2.47
		c-0.26-0.25-0.62-0.59-1.06-1s-0.95-0.85-1.52-1.32s-1.21-0.94-1.91-1.42s-1.44-0.91-2.21-1.3c-0.77-0.39-1.58-0.7-2.42-0.94
		c-0.84-0.24-1.68-0.36-2.53-0.36c-0.69,0-1.27,0.08-1.74,0.24c-0.47,0.16-0.85,0.38-1.13,0.67c-0.29,0.28-0.49,0.62-0.62,1
		c-0.12,0.38-0.18,0.79-0.18,1.23c0,0.85,0.23,1.87,0.69,3.05h3.15V153.2z"/>
	<path class="st1" d="M416.68,153.2h-2.98v19.05h-2.34v-10.93h-6.63c0,0.62-0.01,1.16-0.02,1.6c-0.01,0.44-0.05,0.81-0.12,1.1
		c-0.07,0.29-0.17,0.5-0.3,0.63c-0.13,0.13-0.32,0.2-0.55,0.2c-0.49,0-0.96-0.16-1.4-0.48s-0.83-0.71-1.16-1.16
		c-0.33-0.45-0.6-0.93-0.8-1.42c-0.2-0.49-0.3-0.91-0.3-1.25c0-0.3,0.07-0.54,0.2-0.71c0.13-0.17,0.31-0.3,0.53-0.38
		c0.22-0.08,0.46-0.14,0.74-0.16c0.28-0.02,0.56-0.03,0.84-0.03h8.97v-6.07h-13.31v-2.08h18.63V153.2z"/>
	<path class="st1" d="M434.28,153.2h-2.98v19.05h-2.33v-6.83l-0.06-0.01c-0.66,0.57-1.39,0.98-2.19,1.24
		c-0.8,0.26-1.6,0.39-2.4,0.39c-0.81,0-1.55-0.12-2.23-0.35s-1.25-0.6-1.73-1.08c-0.48-0.49-0.86-1.1-1.13-1.84s-0.4-1.62-0.4-2.64
		v-7.91h-3.16v-2.08h18.6V153.2z M427.54,163.66l-6.34-8.9l-0.06,0.01v6.21c0,0.59,0.05,1.13,0.15,1.6c0.1,0.47,0.27,0.87,0.51,1.21
		s0.56,0.58,0.96,0.76c0.4,0.17,0.89,0.26,1.49,0.26c0.65,0,1.25-0.09,1.79-0.28c0.54-0.19,1.05-0.45,1.51-0.79L427.54,163.66z
		 M428.98,153.2h-6.39v0.04l6.32,9.16l0.07-0.1V153.2z"/>
	<path class="st1" d="M431.11,151.51h-2.06l-1.29-2.42c-0.55-1.03-1.05-1.85-1.5-2.45c-0.45-0.6-0.87-1.07-1.28-1.38
		c-0.4-0.32-0.8-0.52-1.18-0.61c-0.39-0.09-0.79-0.13-1.22-0.13h-2.75v-2.3h2.59c0.55,0,1.04,0.04,1.49,0.13s0.87,0.25,1.27,0.48
		c0.4,0.23,0.79,0.55,1.18,0.96s0.79,0.94,1.23,1.59c0.43,0.65,0.91,1.42,1.42,2.33c0.52,0.9,1.1,1.97,1.77,3.2L431.11,151.51z"/>
	<path class="st1" d="M440.71,155.91c0.1-0.15,0.2-0.34,0.29-0.57c0.09-0.23,0.13-0.49,0.13-0.79c0-0.26-0.05-0.5-0.14-0.7
		c-0.09-0.2-0.21-0.36-0.36-0.48s-0.31-0.21-0.5-0.28c-0.19-0.06-0.38-0.09-0.57-0.09c-0.23,0-0.45,0.04-0.67,0.13
		c-0.22,0.09-0.42,0.23-0.59,0.43c-0.18,0.2-0.32,0.45-0.43,0.76c-0.11,0.31-0.17,0.67-0.17,1.1c0,0.46,0.07,0.9,0.21,1.31
		s0.35,0.77,0.64,1.08c0.29,0.31,0.65,0.55,1.09,0.73s0.97,0.27,1.58,0.27c0.42,0,0.82-0.04,1.18-0.11
		c0.36-0.07,0.67-0.14,0.94-0.21l0.38,2.18c-0.15,0.02-0.35,0.05-0.61,0.11c-0.26,0.05-0.53,0.13-0.83,0.24
		c-0.3,0.11-0.6,0.25-0.91,0.42c-0.31,0.17-0.58,0.38-0.83,0.63c-0.25,0.25-0.45,0.55-0.6,0.89c-0.16,0.34-0.23,0.74-0.23,1.19
		c0,0.42,0.07,0.8,0.21,1.13s0.34,0.61,0.6,0.85s0.56,0.42,0.92,0.54c0.36,0.12,0.75,0.18,1.18,0.18c0.6,0,1.16-0.11,1.67-0.34
		c0.51-0.23,0.97-0.51,1.38-0.84c0.41-0.33,0.76-0.7,1.05-1.08s0.52-0.74,0.69-1.06v-12.42h5.3v2.08h-2.98v19.05h-2.33v-5.3
		l-0.06-0.01c-0.35,0.39-0.72,0.71-1.11,0.98s-0.78,0.48-1.18,0.64c-0.4,0.17-0.81,0.29-1.21,0.36c-0.41,0.08-0.8,0.11-1.18,0.11
		c-0.75,0-1.44-0.12-2.08-0.37c-0.64-0.25-1.19-0.59-1.65-1.04c-0.46-0.44-0.83-0.97-1.09-1.58c-0.26-0.61-0.4-1.28-0.4-2.02
		c0-0.68,0.13-1.3,0.39-1.87c0.26-0.57,0.72-1.11,1.37-1.62l-0.01-0.06c-0.64-0.17-1.2-0.43-1.67-0.78s-0.86-0.75-1.16-1.21
		c-0.31-0.45-0.54-0.95-0.69-1.48c-0.15-0.53-0.23-1.07-0.23-1.61c0-0.66,0.11-1.27,0.32-1.83s0.51-1.04,0.89-1.45
		c0.38-0.41,0.83-0.73,1.35-0.96s1.09-0.35,1.72-0.35c0.65,0,1.21,0.11,1.68,0.34c0.47,0.23,0.85,0.51,1.15,0.86
		s0.52,0.74,0.66,1.16c0.14,0.42,0.21,0.82,0.21,1.2c0,0.26-0.03,0.52-0.09,0.78c-0.06,0.25-0.13,0.5-0.21,0.72
		s-0.18,0.43-0.28,0.62c-0.1,0.19-0.19,0.35-0.28,0.48L440.71,155.91z"/>
	<path class="st1" d="M462.75,159.72c0.14,0.44,0.31,0.93,0.5,1.45c0.19,0.52,0.41,1.05,0.67,1.59s0.55,1.05,0.88,1.55
		s0.7,0.95,1.12,1.33c0.42,0.39,0.89,0.7,1.4,0.93s1.08,0.35,1.7,0.35c0.61,0,1.13-0.09,1.56-0.27c0.43-0.18,0.77-0.42,1.04-0.72
		c0.26-0.3,0.46-0.66,0.57-1.06c0.12-0.41,0.18-0.83,0.18-1.28c0-0.97-0.35-1.73-1.06-2.28c-0.7-0.55-1.72-0.82-3.06-0.82
		c-0.16,0-0.32,0-0.48,0.01c-0.16,0.01-0.32,0.02-0.48,0.04v-2.16c0.08,0.01,0.14,0.01,0.21,0.01s0.1,0,0.11,0
		c0.66,0,1.25-0.08,1.77-0.25c0.51-0.17,0.95-0.39,1.3-0.67s0.61-0.61,0.79-0.99s0.27-0.78,0.27-1.19c0-0.38-0.07-0.71-0.2-1.01
		c-0.13-0.29-0.31-0.54-0.54-0.74c-0.23-0.2-0.5-0.35-0.81-0.45c-0.31-0.1-0.65-0.15-1.02-0.15c-0.25,0-0.5,0.02-0.74,0.05
		c-0.24,0.03-0.49,0.08-0.75,0.16c-0.26,0.07-0.55,0.16-0.84,0.28c-0.3,0.11-0.64,0.26-1.01,0.43l-0.81-1.94
		c0.74-0.36,1.45-0.63,2.13-0.82c0.68-0.18,1.38-0.28,2.08-0.28c0.68,0,1.31,0.11,1.89,0.33c0.58,0.22,1.08,0.52,1.5,0.9
		c0.42,0.38,0.75,0.84,0.99,1.37s0.35,1.1,0.35,1.72c0,1.69-0.81,3.05-2.42,4.08v0.06c0.63,0.26,1.16,0.59,1.59,0.98
		c0.27,0.05,0.56,0.08,0.87,0.11c0.31,0.03,0.59,0.04,0.84,0.04c0.26,0,0.54-0.02,0.84-0.06s0.59-0.11,0.9-0.21
		c0.31-0.1,0.62-0.25,0.94-0.44c0.32-0.19,0.64-0.43,0.96-0.74v-7.85h5.3v2.08h-2.98v19.05h-2.33v-10.77l-0.06-0.01
		c-0.54,0.36-1.04,0.6-1.52,0.71s-0.96,0.17-1.46,0.17c-0.16,0-0.33-0.01-0.5-0.02c-0.17-0.01-0.34-0.03-0.52-0.05l-0.01,0.06
		c0.15,0.39,0.23,0.86,0.23,1.43c0,0.77-0.13,1.47-0.38,2.13c-0.26,0.65-0.62,1.22-1.1,1.69c-0.48,0.48-1.05,0.85-1.73,1.11
		s-1.43,0.4-2.27,0.4c-0.9,0-1.71-0.16-2.43-0.48c-0.72-0.32-1.38-0.72-1.96-1.23s-1.09-1.07-1.52-1.69
		c-0.43-0.63-0.81-1.26-1.12-1.89c-0.31-0.63-0.57-1.24-0.76-1.81c-0.2-0.57-0.35-1.05-0.44-1.42L462.75,159.72z M491.31,153.2
		h-2.98v19.05H486V153.2h-3.23v-2.08h8.53V153.2z"/>
	<path class="st1" d="M512.22,151.11v2.08h-2.98v19.05h-2.35v-9.53h-8.21c-0.5,0.33-1.1,0.53-1.8,0.6l-0.03,0.07
		c0.92,1.44,1.92,2.77,3.02,4.01c1.1,1.24,2.34,2.39,3.74,3.45l-1.52,1.74c-0.8-0.59-1.57-1.24-2.29-1.93
		c-0.72-0.69-1.4-1.41-2.04-2.15c-0.64-0.74-1.24-1.49-1.79-2.25c-0.56-0.76-1.07-1.51-1.53-2.25c-0.46-0.74-0.88-1.45-1.25-2.13
		c-0.37-0.69-0.69-1.32-0.96-1.91l1.94-1.05c0.18,0.42,0.36,0.76,0.53,1.04c0.17,0.28,0.35,0.5,0.53,0.67s0.37,0.28,0.57,0.35
		s0.41,0.11,0.64,0.11c0.65,0,1.13-0.25,1.44-0.77c0.31-0.51,0.46-1.18,0.46-2.01c0-0.49-0.05-0.98-0.14-1.45
		c-0.09-0.48-0.22-0.94-0.36-1.38s-0.3-0.85-0.47-1.24s-0.33-0.74-0.48-1.05h-6.56v-2.08H512.22z M506.89,153.2h-7.56
		c0.4,0.86,0.71,1.72,0.94,2.59c0.23,0.87,0.34,1.73,0.34,2.59c0,0.4-0.03,0.79-0.09,1.17s-0.16,0.74-0.3,1.08l0.03,0.03h6.65V153.2
		z"/>
	<path class="st1" d="M515.05,179.51c-0.48-0.79-0.98-1.55-1.49-2.26c-0.51-0.71-1.05-1.33-1.63-1.86s-1.2-0.95-1.86-1.26
		c-0.67-0.31-1.4-0.47-2.19-0.47c-0.48,0-0.91,0.06-1.28,0.17c-0.37,0.11-0.69,0.26-0.94,0.45c-0.25,0.19-0.45,0.41-0.58,0.66
		c-0.13,0.25-0.2,0.51-0.2,0.77c0,0.51,0.21,0.92,0.62,1.22c0.41,0.3,0.97,0.45,1.68,0.45c0.66,0,1.35-0.13,2.06-0.4l0.5,2.04
		c-0.41,0.16-0.82,0.28-1.24,0.36c-0.42,0.08-0.83,0.12-1.24,0.12c-0.6,0-1.18-0.08-1.72-0.25c-0.54-0.17-1.02-0.42-1.43-0.75
		c-0.41-0.33-0.74-0.73-0.98-1.22c-0.24-0.49-0.36-1.04-0.36-1.67c0-0.69,0.14-1.29,0.43-1.81c0.29-0.51,0.67-0.94,1.14-1.28
		c0.47-0.34,1.01-0.59,1.62-0.75c0.61-0.17,1.22-0.25,1.84-0.25c0.8,0,1.56,0.12,2.26,0.37c0.7,0.25,1.36,0.57,1.96,0.97
		c0.6,0.4,1.16,0.86,1.66,1.36c0.5,0.5,0.95,1.02,1.35,1.54c0.4,0.52,0.76,1.03,1.06,1.52c0.31,0.49,0.56,0.92,0.77,1.29
		L515.05,179.51z"/>
	<path class="st1" d="M531.85,153.2h-2.98v19.05h-2.35v-5.97l-0.06-0.04c-0.52,0.47-1.03,0.84-1.52,1.11
		c-0.5,0.27-0.96,0.47-1.39,0.61c-0.43,0.14-0.82,0.23-1.17,0.26c-0.35,0.04-0.64,0.06-0.87,0.06c-0.87,0-1.64-0.14-2.31-0.41
		c-0.67-0.27-1.23-0.64-1.69-1.08c-0.45-0.45-0.8-0.96-1.04-1.55s-0.35-1.18-0.35-1.81c0-0.65,0.13-1.3,0.4-1.94
		c0.27-0.64,0.69-1.22,1.27-1.73l-0.01-0.06h-4.49v-2.08h11.4v2.08h-1.46c-0.97,0-1.77,0.13-2.4,0.38
		c-0.62,0.25-1.12,0.57-1.47,0.94c-0.36,0.37-0.61,0.76-0.74,1.18c-0.14,0.42-0.21,0.8-0.21,1.14c0,0.28,0.05,0.59,0.14,0.91
		c0.09,0.33,0.25,0.63,0.48,0.9c0.22,0.27,0.52,0.5,0.89,0.68c0.37,0.18,0.84,0.27,1.41,0.27c0.59,0,1.15-0.1,1.67-0.29
		c0.51-0.19,0.99-0.45,1.42-0.76c0.43-0.31,0.83-0.66,1.18-1.06c0.35-0.39,0.66-0.78,0.91-1.17v-9.64h-15.3v-2.08h20.63V153.2z"/>
	<path class="st1" d="M549.49,153.2h-2.98v19.05h-2.34v-10.93h-6.63c0,0.62-0.01,1.16-0.02,1.6c-0.01,0.44-0.05,0.81-0.12,1.1
		c-0.07,0.29-0.17,0.5-0.3,0.63c-0.13,0.13-0.32,0.2-0.55,0.2c-0.49,0-0.96-0.16-1.4-0.48s-0.83-0.71-1.16-1.16
		c-0.34-0.45-0.6-0.93-0.8-1.42c-0.2-0.49-0.3-0.91-0.3-1.25c0-0.3,0.07-0.54,0.2-0.71s0.31-0.3,0.52-0.38
		c0.22-0.08,0.47-0.14,0.74-0.16c0.28-0.02,0.56-0.03,0.84-0.03h8.97v-6.07h-13.31v-2.08h18.63V153.2z"/>
	<path class="st1" d="M557.03,153.2h-2.98v19.05h-2.33V153.2h-3.23v-2.08h8.53V153.2z"/>
	<path class="st1" d="M589.36,153.2h-11.98v5.59l0.07,0.03c0.48-0.66,1.08-1.19,1.8-1.6c0.72-0.4,1.51-0.6,2.37-0.6
		c0.68,0,1.31,0.14,1.89,0.42c0.58,0.28,1.08,0.66,1.51,1.15c0.43,0.49,0.76,1.06,1,1.72c0.24,0.66,0.36,1.38,0.36,2.14
		c0,0.87-0.15,1.67-0.45,2.4c-0.3,0.73-0.69,1.4-1.16,1.99s-1.01,1.12-1.6,1.58c-0.6,0.46-1.18,0.85-1.76,1.17l-1.26-2.18
		c0.19-0.1,0.42-0.24,0.69-0.41c0.27-0.17,0.56-0.37,0.86-0.6s0.59-0.48,0.88-0.77s0.55-0.6,0.78-0.94
		c0.23-0.34,0.42-0.71,0.56-1.11c0.14-0.4,0.21-0.82,0.21-1.26c0-0.41-0.06-0.79-0.19-1.16c-0.13-0.37-0.3-0.69-0.53-0.96
		c-0.23-0.27-0.5-0.49-0.82-0.65c-0.32-0.16-0.66-0.24-1.04-0.24c-0.49,0-0.97,0.13-1.43,0.38c-0.46,0.25-0.88,0.57-1.26,0.96
		s-0.7,0.79-0.96,1.23c-0.26,0.44-0.43,0.84-0.52,1.21v9.58h-2.33v-5.43l-0.06-0.03c-0.14,0.12-0.32,0.27-0.54,0.45
		s-0.48,0.34-0.79,0.5c-0.31,0.16-0.66,0.3-1.06,0.41c-0.4,0.11-0.85,0.17-1.35,0.17c-0.83,0-1.6-0.16-2.3-0.48
		s-1.31-0.76-1.83-1.31c-0.51-0.55-0.92-1.2-1.21-1.95c-0.29-0.75-0.44-1.54-0.44-2.4c0-0.81,0.13-1.56,0.4-2.25
		c0.27-0.69,0.64-1.28,1.11-1.78c0.47-0.5,1.02-0.88,1.64-1.16c0.63-0.28,1.31-0.42,2.03-0.42c0.51,0,0.99,0.06,1.42,0.19
		c0.44,0.13,0.84,0.28,1.21,0.47c0.36,0.18,0.69,0.38,0.98,0.6c0.29,0.21,0.53,0.4,0.73,0.57l0.06-0.01v-5.19H563.3v-2.08h26.06
		V153.2z M571,158.78c-0.54,0-1.01,0.11-1.42,0.33c-0.41,0.22-0.75,0.51-1.03,0.85s-0.48,0.73-0.62,1.16
		c-0.14,0.43-0.21,0.85-0.21,1.27c0,0.45,0.08,0.91,0.24,1.35s0.39,0.85,0.69,1.21s0.65,0.65,1.07,0.87s0.87,0.33,1.38,0.33
		c0.43,0,0.87-0.09,1.34-0.26c0.47-0.17,0.9-0.45,1.29-0.81c0.39-0.37,0.72-0.84,0.97-1.41c0.25-0.57,0.38-1.25,0.38-2.05v-0.7
		c-0.23-0.28-0.49-0.55-0.8-0.82c-0.31-0.26-0.64-0.49-0.99-0.69c-0.35-0.2-0.73-0.36-1.11-0.47
		C571.78,158.84,571.39,158.78,571,158.78z"/>
	<path class="st1" d="M577.18,151.51h-2.06l-1.29-2.42c-0.55-1.03-1.05-1.85-1.5-2.45c-0.45-0.6-0.87-1.07-1.28-1.38
		c-0.4-0.32-0.8-0.52-1.18-0.61c-0.39-0.09-0.79-0.13-1.22-0.13h-2.75v-2.3h2.59c0.55,0,1.04,0.04,1.49,0.13
		c0.44,0.09,0.87,0.25,1.27,0.48c0.4,0.23,0.79,0.55,1.18,0.96s0.79,0.94,1.23,1.59c0.44,0.65,0.91,1.42,1.42,2.33
		c0.52,0.9,1.1,1.97,1.77,3.2L577.18,151.51z M576.88,146.79c0-0.54,0.16-0.98,0.47-1.31c0.32-0.33,0.73-0.5,1.24-0.5
		c0.24,0,0.46,0.05,0.67,0.14s0.4,0.22,0.56,0.39c0.16,0.17,0.29,0.36,0.38,0.58c0.09,0.22,0.13,0.47,0.13,0.73
		c0,0.54-0.16,0.97-0.47,1.3c-0.32,0.33-0.73,0.5-1.24,0.5c-0.25,0-0.47-0.04-0.69-0.13c-0.21-0.09-0.4-0.22-0.55-0.38
		c-0.16-0.17-0.28-0.36-0.37-0.58C576.92,147.3,576.88,147.06,576.88,146.79z"/>
	<path class="st1" d="M599.95,165.82c-0.01-0.08-0.02-0.15-0.02-0.23c0-0.08-0.01-0.17-0.01-0.26c0-0.32,0.04-0.68,0.12-1.07
		s0.22-0.76,0.42-1.09c0.2-0.33,0.47-0.62,0.8-0.84c0.34-0.23,0.75-0.34,1.25-0.34c0.34,0,0.63,0.05,0.87,0.16s0.44,0.26,0.6,0.45
		c0.16,0.19,0.27,0.41,0.34,0.65c0.07,0.25,0.11,0.51,0.11,0.78c0,0.44-0.06,0.83-0.18,1.18c-0.12,0.35-0.29,0.66-0.5,0.94
		c-0.21,0.28-0.46,0.52-0.75,0.73c-0.29,0.21-0.59,0.39-0.92,0.54c0.28,0.77,0.56,1.42,0.84,1.96c0.28,0.54,0.57,1.02,0.87,1.42
		c0.3,0.41,0.6,0.76,0.92,1.06c0.32,0.3,0.65,0.59,1.01,0.86l-1.74,1.83c-0.82-0.73-1.53-1.61-2.12-2.64
		c-0.59-1.03-1.08-2.28-1.45-3.76l-8.18,5.57l-1.28-1.72l6.05-4.04l-0.01-0.03c-0.99-0.12-1.86-0.38-2.59-0.77
		c-0.74-0.39-1.35-0.87-1.84-1.44c-0.49-0.57-0.85-1.21-1.09-1.91s-0.36-1.44-0.36-2.2c0-0.88,0.16-1.65,0.47-2.33
		c0.31-0.67,0.75-1.23,1.3-1.69c0.56-0.45,1.22-0.8,1.99-1.04s1.61-0.35,2.53-0.35h2.91v-3.02h-11.94v-2.08h19.07v2.08h-4.81v5.09
		h-4.78c-1.5,0-2.63,0.31-3.37,0.93c-0.75,0.62-1.12,1.52-1.12,2.71c0,0.67,0.12,1.26,0.38,1.77c0.25,0.51,0.59,0.93,1.03,1.28
		c0.44,0.35,0.96,0.61,1.57,0.79c0.6,0.18,1.26,0.26,1.97,0.26C598.97,166.03,599.52,165.96,599.95,165.82z"/>
</g>
<rect x="243.32" y="186.87" class="st2" width="365.89" height="0.68"/>
<rect x="243.32" y="135.89" class="st2" width="365.89" height="0.68"/>
</svg>
