<svg width="87" height="86" viewBox="0 0 87 86" fill="none" xmlns="http://www.w3.org/2000/svg">
<path d="M79.3997 50.3712C83.471 30.6942 70.8202 11.4425 51.1433 7.37116C31.4663 3.29984 12.2146 15.9507 8.14325 35.6276C4.07194 55.3046 16.7228 74.5563 36.3997 78.6276C56.0767 82.6989 75.3284 70.0481 79.3997 50.3712Z" stroke="#F15C58" stroke-miterlimit="10" stroke-dasharray="7.08 7.08"/>
<path d="M43.7745 72.3439C59.9768 72.3439 73.1114 59.2093 73.1114 43.0069C73.1114 26.8045 59.9768 13.6699 43.7745 13.6699C27.5721 13.6699 14.4375 26.8045 14.4375 43.0069C14.4375 59.2093 27.5721 72.3439 43.7745 72.3439Z" fill="#DDF2F9"/>
<path d="M71.8512 33.3435C71.2282 33.5556 70.5919 33.6815 69.929 33.6086C69.5777 33.5688 69.2331 33.5026 68.9016 33.3766C66.6679 32.5083 64.4209 31.6665 62.2004 30.7717C60.5831 30.1221 59.7214 28.8694 59.6154 27.1394C59.5159 25.5353 60.4903 24.0108 61.9883 23.3347C62.5782 23.0696 63.2079 22.937 63.8641 22.99C64.0232 23.0033 64.1889 23.0497 64.3546 22.99C65.667 23.3745 66.9131 23.9379 68.1858 24.4151C69.3789 24.8659 70.5654 25.3232 71.7386 25.8137C72.6466 26.1981 73.3758 26.8013 73.853 27.6961C74.4893 28.8826 74.496 30.0757 73.9922 31.2821C73.6542 32.0907 73.0443 32.6806 72.3219 33.1579C72.2953 33.1314 72.2688 33.1181 72.2423 33.1513C72.1164 33.2175 71.9838 33.2838 71.8579 33.3435H71.8512ZM73.3029 28.591C72.9184 27.6895 72.4677 27.1725 71.8247 26.8477C70.8106 26.3373 69.7302 26.0059 68.6829 25.5817C68.5106 25.5088 68.4907 25.6414 68.4509 25.7408C67.7483 27.5503 67.0523 29.3599 66.3431 31.1628C66.2702 31.3484 66.3166 31.408 66.4889 31.4743C67.4103 31.8256 68.325 32.1902 69.2463 32.5348C70.4195 32.9723 71.7717 32.6608 72.6135 31.7328C73.5216 30.7386 73.674 29.5919 73.3029 28.5843V28.591ZM62.2601 24.1765C61.1664 24.7399 60.5036 25.701 60.5036 27.0731C60.5036 28.2728 61.3122 29.4527 62.4523 29.91C63.367 30.2812 64.2883 30.6259 65.203 30.9838C65.3555 31.0435 65.435 31.0435 65.5013 30.8645C66.2039 29.0417 66.9065 27.2255 67.6157 25.4094C67.6887 25.2238 67.6356 25.1575 67.4633 25.0978C66.5618 24.7598 65.667 24.3886 64.7589 24.0572C63.9569 23.7656 63.1549 23.7854 62.2468 24.1699L62.2601 24.1765Z" fill="#4156A5"/>
<path d="M29.3979 35.3928C28.0656 35.9761 26.74 36.5594 25.4011 37.1361C24.8973 37.3548 24.4068 37.6133 23.8765 37.7657C21.371 38.5081 18.9716 36.9438 18.6402 34.3522C18.6335 34.2925 18.6137 34.2328 18.607 34.1666C18.5739 33.1193 18.8655 32.1648 19.5217 31.3495C19.8929 30.8855 20.3702 30.5144 20.9203 30.2691C23.2203 29.2483 25.527 28.2342 27.8337 27.2201C27.8535 27.2201 27.8734 27.2068 27.8933 27.2002C28.3838 27.0743 28.8743 26.9881 29.3847 27.0013C30.1801 27.0212 30.949 27.2466 31.5455 27.7238C32.838 28.7512 33.6069 30.1498 33.0501 32.1913C32.785 33.1591 32.2084 33.9081 31.3533 34.4648C31.1412 34.604 30.9158 34.6836 30.6971 34.7896C30.2662 34.9951 29.8288 35.1873 29.3979 35.3862V35.3928ZM25.527 32.6818C25.1359 31.8003 24.7449 30.9187 24.3604 30.0305C24.2809 29.8383 24.208 29.7786 23.9959 29.878C23.1209 30.2757 22.2261 30.6403 21.3512 31.0579C20.3503 31.5351 19.714 32.3305 19.5482 33.4308C19.356 34.6836 19.7802 35.7242 20.8143 36.4732C21.7952 37.1825 22.869 37.2487 23.9693 36.7914C24.831 36.4335 25.6794 36.0358 26.5345 35.6712C26.7334 35.585 26.7665 35.4989 26.6737 35.3C26.2826 34.4317 25.8982 33.5568 25.5137 32.6818H25.527ZM26.3158 32.2775C26.7002 33.1524 27.0913 34.0207 27.4691 34.9023C27.5619 35.121 27.6414 35.1807 27.88 35.0746C28.7285 34.6836 29.5902 34.319 30.4386 33.9346C32.2481 33.1193 32.8844 30.985 31.8239 29.308C31.1213 28.1944 29.5902 27.631 28.3308 28.0354C27.2901 28.3668 26.329 28.897 25.3215 29.3014C25.1028 29.3875 25.0696 29.4803 25.1691 29.6924C25.5601 30.5541 25.938 31.4158 26.3158 32.2841V32.2775Z" fill="#4156A5"/>
<path d="M72.2363 33.1517C72.2363 33.1517 72.2958 33.1319 72.3156 33.1583C72.2892 33.1583 72.2627 33.1583 72.2363 33.1517Z" fill="#CCEBF6"/>
<path d="M54.034 9.77952C54.034 9.77952 53.9944 9.79273 53.9746 9.79933C53.9878 9.75971 54.0076 9.75311 54.034 9.77952Z" fill="#A2AFDA"/>
<path d="M73.3035 28.5907C73.6747 29.5982 73.5223 30.7449 72.6142 31.7391C71.7657 32.6671 70.4202 32.9853 69.247 32.5412C68.3256 32.1965 67.4109 31.8253 66.4896 31.4806C66.3173 31.4144 66.2709 31.3547 66.3438 31.1691C67.053 29.3662 67.749 27.5567 68.4516 25.7471C68.4914 25.6411 68.5112 25.5152 68.6836 25.5881C69.7309 26.0189 70.8179 26.3503 71.8254 26.8541C72.4617 27.1722 72.9191 27.6959 73.3035 28.5973V28.5907Z" fill="#DDF2F9"/>
<path d="M62.2608 24.1756C63.1623 23.7912 63.9709 23.7713 64.773 24.0629C65.681 24.3943 66.5692 24.7589 67.4773 25.1036C67.6497 25.1698 67.7027 25.2295 67.6298 25.4151C66.9205 27.2313 66.2113 29.0474 65.5153 30.8702C65.4491 31.0492 65.3695 31.0492 65.2171 30.9895C64.3024 30.625 63.3744 30.2803 62.4663 29.9157C61.3262 29.4584 60.5176 28.2785 60.5176 27.0788C60.5176 25.7067 61.1804 24.7456 62.2741 24.1822L62.2608 24.1756Z" fill="white"/>
<path d="M25.5265 32.6809C25.911 33.5558 26.2888 34.4308 26.6865 35.2991C26.7726 35.4979 26.7461 35.5841 26.5473 35.6703C25.6922 36.0348 24.8438 36.4325 23.9821 36.7905C22.8818 37.2478 21.808 37.1815 20.827 36.4723C19.7864 35.7233 19.3688 34.6827 19.561 33.4299C19.7267 32.3296 20.3697 31.5342 21.3639 31.057C22.2322 30.6394 23.1271 30.2815 24.0086 29.8771C24.2207 29.7843 24.2936 29.844 24.3732 30.0296C24.751 30.9178 25.1487 31.7927 25.5398 32.6809H25.5265Z" fill="white"/>
<path d="M26.3153 32.276C25.9375 31.4143 25.5597 30.546 25.1686 29.6844C25.0692 29.4722 25.1024 29.3795 25.3211 29.2933C26.3286 28.889 27.2897 28.3587 28.3303 28.0273C29.5897 27.6229 31.1209 28.1864 31.8235 29.2999C32.884 30.9769 32.2477 33.1112 30.4382 33.9265C29.5897 34.3109 28.728 34.6689 27.8796 35.0666C27.6476 35.1726 27.5615 35.113 27.4687 34.8942C27.0975 34.0193 26.6998 33.1443 26.3153 32.2694V32.276Z" fill="#A2AFDA"/>
<path d="M17.2676 50.6766C17.6454 50.7826 18.0166 50.8887 18.401 50.9881C18.5336 51.0212 18.5601 51.0809 18.5203 51.2068C18.348 51.7437 18.1823 52.2872 18.0166 52.8241C17.7581 52.148 17.4598 51.4918 17.2875 50.7892C17.2742 50.7495 17.2808 50.7097 17.2742 50.6699L17.2676 50.6766Z" fill="#CCEBF6"/>
<path d="M13.8207 41.1648C13.6947 41.1648 13.5686 41.1648 13.4492 41.0985C13.5952 40.9924 13.708 41.0852 13.8207 41.1648Z" fill="#CCEBF6"/>
<path d="M17.1279 50.6353C17.181 50.6154 17.2274 50.6221 17.2673 50.6751C17.2142 50.6884 17.1677 50.6884 17.1279 50.6353Z" fill="#CCEBF6"/>
<path d="M13.1964 41.0659C13.1964 41.0659 13.1436 41.0527 13.1172 41.0527C13.1436 41.0527 13.17 41.0659 13.1964 41.0659Z" fill="#CCEBF6"/>
<path d="M30.4968 22.631C30.3643 23.0684 30.2251 23.5457 30.0793 24.0229C29.8539 24.7785 29.6219 25.5275 29.4032 26.2898C29.3501 26.4754 29.2772 26.5085 29.0983 26.4489C28.2962 26.197 27.4942 25.9584 26.6856 25.7264C26.5 25.6734 26.4602 25.6137 26.5198 25.4281C26.8844 24.2284 27.2423 23.0287 27.5936 21.8223C27.6533 21.6102 27.7593 21.5704 27.9582 21.6367C28.7271 21.8753 29.5026 22.1073 30.2781 22.3393C30.404 22.3791 30.5565 22.399 30.4968 22.6376V22.631Z" fill="#DDF2F9"/>
<path d="M29.5697 48.9324C30.8092 48.8926 31.9095 49.9532 31.9559 51.2324C32.0023 52.5382 30.9616 53.6584 29.6757 53.6982C28.2904 53.7446 27.2232 52.7172 27.1768 51.2855C27.1371 50.0393 28.2241 48.9656 29.5697 48.9258V48.9324Z" fill="#DDF2F9"/>
<path d="M52.0772 23.8897C51.759 24.9502 51.4409 26.0174 51.1161 27.0779C51.0763 27.2171 51.0962 27.2967 51.2155 27.3895C51.6331 27.701 51.7325 28.1119 51.5801 28.6024C51.2155 29.8022 50.8642 31.0085 50.4996 32.2082C50.4334 32.427 50.4532 32.533 50.6919 32.5728C50.8244 32.5927 50.9504 32.6457 51.0763 32.6855C51.8518 32.9374 52.2429 33.6466 52.0109 34.4287C51.7391 35.3766 51.4541 36.3178 51.1691 37.2657C51.0498 37.6634 50.8045 37.9683 50.4267 38.1406C50.2875 38.2069 50.2213 38.293 50.1815 38.4322C48.9751 42.4755 47.7688 46.5254 46.5624 50.5687C46.3437 51.2912 46.1316 52.0203 45.9128 52.7428C45.893 52.8025 45.8863 52.8687 45.8598 52.9218C45.7736 53.1074 45.893 53.2466 45.999 53.3261C46.1117 53.4123 46.1846 53.2399 46.2575 53.1736C48.1864 51.4569 50.9172 51.3111 52.9521 52.8952C54.6357 54.201 55.2985 55.9708 54.8876 58.0521C54.4833 60.087 53.2239 61.4458 51.2354 62.0357C48.3786 62.8775 45.5151 61.2271 44.7396 58.3504C44.68 58.125 44.6468 57.9725 44.3486 58.125C44.0768 58.2642 43.7653 58.2443 43.467 58.1515C43.1488 58.0587 42.824 57.9792 42.5125 57.8665C42.2938 57.787 42.2076 57.84 42.1413 58.0587C41.7105 59.5302 41.2664 61.0017 40.8289 62.4732C40.7693 62.672 40.7162 62.8709 40.6632 63.0697C40.0799 65.0052 39.4966 66.9407 38.92 68.8761C38.7609 69.3998 38.6084 69.93 38.4493 70.4537C38.4228 70.5465 38.3632 70.6459 38.4228 70.7785C38.9266 70.6194 39.3906 70.3675 39.8744 70.162C40.345 69.9632 40.8157 69.9367 41.2863 70.162C42.2938 70.6393 42.5589 71.9848 41.7768 72.7802C41.1404 73.4232 40.3583 73.8474 39.5165 74.1788C39.0724 74.3578 38.6084 74.4042 38.1511 74.4837C38.1246 74.4903 38.098 74.5036 38.0782 74.5102C38.0185 74.5102 37.9655 74.5235 37.9058 74.5301C37.8859 74.5301 37.8661 74.5301 37.8462 74.5301C37.7003 74.5301 37.5545 74.5434 37.4087 74.5434C37.3888 74.5301 37.3689 74.5301 37.3557 74.5434C37.0707 74.5301 36.7856 74.5102 36.494 74.497C36.4608 74.4638 36.441 74.4705 36.4211 74.5102C35.5196 74.3975 34.6646 74.1059 33.8957 73.6287C32.4109 72.7007 31.4233 71.3883 30.9328 69.6981C30.7539 69.0883 30.9196 68.558 31.3173 68.1139C31.7415 67.6433 32.3049 67.5107 32.9147 67.6433C33.3588 67.7361 33.7167 67.9482 33.9487 68.3658C34.1409 68.7171 34.3796 69.0419 34.5917 69.3865C34.6513 69.486 34.7043 69.6053 34.8303 69.592C34.9695 69.5788 34.9562 69.4197 34.9827 69.3335C35.3407 68.1669 35.6787 66.9937 36.03 65.8205C36.5072 64.2164 36.9911 62.6124 37.4684 61.0083C37.7003 60.2262 37.9257 59.444 38.1577 58.6553C38.171 58.6089 38.2041 58.5625 38.224 58.5227C38.3897 57.9792 38.5554 57.4423 38.7277 56.9054C38.7675 56.7728 38.741 56.7198 38.6084 56.6867C38.2306 56.5872 37.8528 56.4745 37.475 56.3751C37.4418 56.3221 37.3954 56.3155 37.3358 56.3354C37.1104 56.2227 36.9049 56.0901 36.7658 55.878C36.6332 55.6791 36.5006 55.699 36.3482 55.8449C35.8113 56.3619 35.175 56.7132 34.4724 56.9452C33.9819 57.1042 33.4847 57.197 32.9611 57.2037C30.8599 57.2235 29.3288 56.289 28.2749 54.5059C27.7247 53.578 27.5259 52.5506 27.6319 51.4967C27.8175 49.7335 28.6792 48.3548 30.2103 47.4468C31.0786 46.9364 32.0398 46.7176 33.0473 46.7508C33.1401 46.7508 33.2329 46.7508 33.3257 46.7508C33.3522 46.7508 33.3787 46.764 33.4052 46.764C33.4914 46.7773 33.5775 46.7839 33.6637 46.7972C33.7764 46.8568 33.9089 46.8635 34.0349 46.8635C34.7971 47.0756 35.4997 47.4203 36.1493 47.8776C37.0375 48.6465 37.6606 49.5745 37.9456 50.7212C37.9655 50.8073 37.9456 50.9532 38.0516 50.9465C38.1776 50.9465 38.3234 50.8935 38.3831 50.7477C38.4162 50.6615 38.4361 50.5687 38.4626 50.4825C39.0194 48.6266 39.5695 46.764 40.1263 44.9081C40.9946 42.0049 41.8629 39.1083 42.7312 36.2051C42.7644 36.0858 42.7975 35.9731 42.718 35.8472C42.4462 35.4296 42.4529 34.9921 42.592 34.5348C42.824 33.7792 43.0428 33.0235 43.2748 32.2679C43.6924 30.9025 44.1762 30.6373 45.5483 31.0218C45.7339 31.0748 45.8267 31.0615 45.8863 30.8494C46.2708 29.537 46.6618 28.2246 47.0529 26.9122C47.2849 26.5941 47.5699 26.3753 47.9809 26.3753C48.1466 26.3753 48.1598 26.2693 48.193 26.1566C48.4382 25.3214 48.6769 24.4796 48.9221 23.6444C49.2469 22.5375 49.5783 21.4306 49.9097 20.317C50.261 19.1504 50.6057 17.9839 50.9636 16.8239C51.0962 16.4063 51.1492 15.9622 51.3878 15.5778C51.6927 15.0939 52.1501 14.9282 52.6737 15.0276C53.0317 15.0939 53.4095 15.1602 53.721 15.4121C54.0723 15.6905 54.291 16.1942 54.1717 16.6317C53.8602 17.7452 53.5288 18.8455 53.2106 19.9591C52.9786 20.7744 52.7201 21.5764 52.5014 22.3917C52.3688 22.8756 52.1965 23.3594 52.0573 23.8499L52.0772 23.8897ZM40.0733 61.9031C40.4975 60.5046 40.9151 59.1126 41.3393 57.7207C41.3857 57.5748 41.326 57.5152 41.1935 57.4754C40.7361 57.3429 40.2788 57.2103 39.828 57.0645C39.6822 57.0181 39.6292 57.0512 39.5894 57.197C39.3442 58.0653 39.0857 58.927 38.8338 59.7887C38.8205 59.8086 38.8073 59.8219 38.8006 59.8417C37.7666 63.2951 36.7326 66.7485 35.6986 70.2018C35.6522 70.3675 35.6986 70.4471 35.8378 70.5266C36.2156 70.7387 36.6199 70.8514 37.0441 70.9243C37.3026 70.9641 37.422 70.8845 37.4949 70.6194C38.1047 68.5381 38.7277 66.4701 39.3442 64.3954C39.5894 63.5669 39.828 62.7383 40.0733 61.9031ZM42.3269 48.8122C42.3269 49.1436 42.0419 49.3358 41.6707 49.2298C41.1802 49.0972 40.6963 48.9514 40.2125 48.7923C40.0136 48.726 39.9341 48.7658 39.8811 48.9647C39.7286 49.5148 39.5695 50.065 39.3906 50.6018C39.3177 50.8206 39.3574 50.9067 39.5828 50.973C41.2266 51.4503 42.8638 51.9474 44.501 52.4379C45.0976 52.6169 45.0114 52.6765 45.197 52.0535C46.1316 48.9448 47.0529 45.8361 47.9809 42.7274C48.4051 41.2957 48.8293 39.864 49.2668 38.4389C49.3264 38.2334 49.28 38.1737 49.0878 38.1207C47.3578 37.6103 45.6278 37.0933 43.9045 36.5697C43.699 36.51 43.5863 36.5299 43.5266 36.7619C43.3808 37.3054 43.2151 37.8357 43.0428 38.3726C42.9632 38.6245 43.0428 38.7173 43.2814 38.7902C44.1099 39.0222 44.9318 39.274 45.7538 39.5259C46.1051 39.632 46.2509 39.9568 46.0653 40.2219C45.9195 40.4274 45.7074 40.4473 45.482 40.381C44.6468 40.1291 43.8117 39.8838 42.9831 39.632C42.7909 39.5723 42.6782 39.5789 42.6186 39.8043C42.4661 40.3743 42.3004 40.9444 42.1214 41.5078C42.0552 41.7199 42.1347 41.7862 42.3137 41.8326C42.7843 41.9651 43.2483 42.1043 43.7122 42.2502C44.0702 42.3628 44.2226 42.5749 44.1431 42.8533C44.0635 43.1118 43.8183 43.2113 43.4736 43.1118C42.9964 42.9726 42.5191 42.8335 42.0419 42.681C41.8497 42.6213 41.7635 42.6611 41.7105 42.86C41.558 43.43 41.3857 43.9934 41.2001 44.5568C41.1338 44.7557 41.1868 44.8418 41.3791 44.8882C41.6177 44.9479 41.8563 45.0208 42.0949 45.0937C42.7114 45.2793 43.3278 45.4583 43.9442 45.6505C44.2359 45.7433 44.3684 45.9686 44.2955 46.2139C44.216 46.4658 44.0105 46.5785 43.699 46.5122C43.5863 46.4857 43.4802 46.4525 43.3676 46.4194C42.6119 46.194 41.8563 45.9819 41.1073 45.7433C40.9151 45.6836 40.8488 45.7433 40.8024 45.909C40.6367 46.4857 40.471 47.0623 40.2854 47.639C40.2257 47.8246 40.2655 47.8909 40.4511 47.9439C40.9482 48.0831 41.4453 48.2355 41.9425 48.388C42.1745 48.4543 42.3203 48.6001 42.3402 48.8255L42.3269 48.8122ZM44.786 31.7509C44.4811 31.7641 44.3353 31.9232 44.2558 32.1817C43.9973 33.0633 43.7255 33.9515 43.4604 34.8331C43.3212 35.3037 43.4272 35.5025 43.8978 35.6417C45.7869 36.2051 47.6693 36.7685 49.5584 37.3319C50.0091 37.4645 50.2146 37.3585 50.3538 36.9077C50.6123 36.0527 50.8642 35.1976 51.1161 34.3426C51.2685 33.8322 51.1691 33.6466 50.6587 33.4941C48.8028 32.9374 46.9469 32.3806 45.0909 31.8238C44.9849 31.7907 44.8722 31.7708 44.786 31.7509ZM45.2368 53.9889C45.2235 53.6376 44.9981 53.5249 44.733 53.4454C42.8373 52.882 40.9416 52.312 39.0393 51.7486C38.6283 51.6226 38.4096 51.7419 38.2836 52.1529C38.0185 53.0278 37.76 53.9028 37.5015 54.7777C37.3623 55.2549 37.4684 55.4472 37.939 55.593C39.8347 56.163 41.7304 56.7264 43.6327 57.2898C44.0437 57.4158 44.2624 57.2898 44.3883 56.8855C44.6535 56.0039 44.9186 55.1157 45.1837 54.2342C45.2102 54.148 45.2235 54.0552 45.2368 53.9956V53.9889ZM54.1187 57.0247C54.132 54.6584 52.17 52.6964 49.797 52.6964C47.4108 52.6964 45.4621 54.6319 45.4489 56.9982C45.4422 59.4109 47.3711 61.3596 49.7904 61.3729C52.1634 61.3861 54.1055 59.4374 54.1187 57.0181V57.0247ZM28.5466 52.0269C28.5466 54.3866 30.5086 56.3221 32.8948 56.3354C35.2545 56.3486 37.2231 54.3601 37.2165 51.9673C37.2165 49.5877 35.228 47.6257 32.8484 47.6456C30.4622 47.6655 28.5334 49.6209 28.54 52.0269H28.5466ZM37.3292 73.6751C38.741 73.6618 39.9871 73.1846 41.0543 72.2632C41.3857 71.9782 41.4321 71.5938 41.22 71.2557C41.0145 70.9376 40.65 70.8315 40.2589 70.9906C39.9407 71.1165 39.6292 71.2623 39.3177 71.4082C37.422 72.2765 35.3605 71.7926 34.0548 70.1687C33.73 69.7643 33.498 69.2937 33.1997 68.8695C32.9545 68.5248 32.5899 68.4188 32.2452 68.5712C31.8873 68.737 31.7282 69.1015 31.8343 69.5125C32.4706 71.9451 34.817 73.7215 37.3225 73.6684L37.3292 73.6751ZM52.5279 15.9224C52.2031 15.9423 52.1302 16.1743 52.0639 16.4063C51.4608 18.4346 50.8576 20.4562 50.2544 22.4845C49.8633 23.7969 49.4722 25.1093 49.0746 26.4151C49.0083 26.6206 49.048 26.7134 49.2601 26.7598C49.4855 26.8062 49.7042 26.8658 49.9163 26.952C50.1483 27.0514 50.2345 26.9785 50.3008 26.7465C50.8377 24.9105 51.3878 23.0744 51.938 21.2384C52.3887 19.7271 52.8394 18.2225 53.2968 16.7112C53.3631 16.4859 53.3962 16.2737 53.1642 16.1279C52.972 16.0086 52.74 15.9688 52.5345 15.9224H52.5279ZM50.725 28.3506C50.7847 28.1119 50.6322 28.0921 50.5063 28.0523C49.7308 27.8203 48.9552 27.5883 48.1864 27.3497C47.9875 27.29 47.8815 27.3232 47.8218 27.5353C47.4705 28.7416 47.1126 29.9414 46.748 31.1411C46.6884 31.3267 46.7281 31.3863 46.9137 31.4394C47.7224 31.6714 48.5244 31.91 49.3264 32.1618C49.5054 32.2149 49.5783 32.1884 49.6313 32.0028C49.8501 31.2471 50.0821 30.4915 50.3074 29.7359C50.4532 29.2586 50.5924 28.7814 50.725 28.3439V28.3506Z" fill="#4156A5"/>
<path d="M42.3207 48.8121C42.3008 48.5867 42.1617 48.4409 41.923 48.3746C41.4259 48.2288 40.9288 48.0697 40.4317 47.9305C40.2527 47.8775 40.2063 47.8112 40.266 47.6256C40.4515 47.0556 40.6173 46.4723 40.783 45.8956C40.8294 45.7233 40.8956 45.6702 41.0879 45.7299C41.8369 45.9685 42.5991 46.1872 43.3481 46.406C43.4542 46.4391 43.5669 46.4723 43.6795 46.4988C43.9844 46.5651 44.1965 46.4524 44.2761 46.2005C44.349 45.9553 44.2164 45.7299 43.9248 45.6371C43.3084 45.4449 42.6919 45.2659 42.0755 45.0803C41.8369 45.0074 41.5982 44.9345 41.3596 44.8748C41.1674 44.8284 41.1144 44.7489 41.1807 44.5434C41.3663 43.98 41.5386 43.4166 41.691 42.8466C41.7441 42.6411 41.8369 42.6013 42.0225 42.6676C42.4997 42.8201 42.9703 42.9593 43.4542 43.0984C43.7988 43.1979 44.0441 43.0984 44.1236 42.8399C44.2032 42.5682 44.0574 42.3494 43.6928 42.2368C43.2288 42.0909 42.7582 41.9517 42.2942 41.8192C42.1153 41.7662 42.0357 41.7065 42.102 41.4944C42.281 40.931 42.4467 40.3609 42.5991 39.7909C42.6588 39.5656 42.7715 39.5589 42.9637 39.6186C43.7988 39.8771 44.634 40.1223 45.4626 40.3676C45.6879 40.4339 45.9 40.4206 46.0459 40.2085C46.2314 39.95 46.0856 39.6252 45.7343 39.5125C44.9124 39.2606 44.0905 39.0088 43.262 38.7768C43.0233 38.7105 42.9438 38.6111 43.0233 38.3592C43.1957 37.8289 43.3614 37.292 43.5072 36.7485C43.5735 36.5099 43.6795 36.49 43.885 36.5563C45.6084 37.0799 47.3384 37.5969 49.0684 38.1073C49.2606 38.167 49.307 38.2266 49.2473 38.4255C48.8099 39.8506 48.3857 41.2823 47.9614 42.714C47.0335 45.8227 46.1121 48.9314 45.1775 52.0401C44.9919 52.6631 45.0781 52.6035 44.4816 52.4245C42.8444 51.934 41.2072 51.4369 39.5633 50.9596C39.338 50.8934 39.2982 50.8072 39.3711 50.5885C39.5501 50.0449 39.7092 49.5014 39.8616 48.9513C39.9146 48.7524 39.9942 48.7126 40.193 48.7789C40.6769 48.938 41.1608 49.0838 41.6513 49.2164C42.0225 49.3158 42.3141 49.1302 42.3075 48.7988L42.3207 48.8121Z" fill="#A2AFDA"/>
<path d="M44.7867 31.75C44.8728 31.7699 44.9855 31.7964 45.0916 31.8229C46.9475 32.3797 48.8034 32.9298 50.6594 33.4932C51.1764 33.6457 51.2692 33.8313 51.1167 34.3417C50.8648 35.1967 50.613 36.0518 50.3545 36.9068C50.2153 37.3576 50.0098 37.4702 49.5591 37.3311C47.67 36.7676 45.7875 36.2042 43.8985 35.6408C43.4279 35.5016 43.3152 35.3028 43.461 34.8322C43.7261 33.9506 43.9913 33.069 44.2564 32.1808C44.3293 31.9223 44.4818 31.7633 44.7867 31.75Z" fill="white"/>
<path d="M45.2373 53.9892C45.2241 54.0489 45.2108 54.1417 45.1843 54.2278C44.9192 55.1094 44.654 55.9976 44.3889 56.8792C44.263 57.2901 44.0509 57.4028 43.6333 57.2835C41.7376 56.7201 39.8419 56.1501 37.9396 55.5866C37.4689 55.4474 37.3629 55.2486 37.5021 54.7714C37.7606 53.8964 38.0191 53.0215 38.2842 52.1465C38.4102 51.7356 38.6223 51.6229 39.0399 51.7422C40.9356 52.3056 42.8313 52.8757 44.7336 53.4391C44.9987 53.5186 45.2175 53.6313 45.2373 53.9826V53.9892Z" fill="white"/>
<path d="M54.1201 57.0248C54.1068 59.4375 52.1713 61.3929 49.7918 61.3796C47.3724 61.3664 45.4436 59.4176 45.4502 57.0049C45.4568 54.6386 47.4122 52.7031 49.7984 52.7031C52.1647 52.7031 54.1267 54.6651 54.1201 57.0314V57.0248ZM53.0595 57.0381C53.0595 55.2351 51.6146 53.7703 49.8382 53.7703C48.0021 53.7703 46.5174 55.202 46.5174 56.9718C46.5174 58.8542 47.9491 60.3058 49.805 60.3058C51.6079 60.3058 53.0595 58.8476 53.0595 57.0381Z" fill="#F6F6FA"/>
<path d="M28.5479 52.026C28.5479 49.6265 30.4701 47.6646 32.8563 47.6447C35.2358 47.6248 37.2177 49.5868 37.2243 51.9663C37.2243 54.3525 35.2623 56.341 32.9027 56.3344C30.5165 56.3212 28.5611 54.3857 28.5545 52.026H28.5479ZM32.8761 55.254C34.6724 55.2474 36.1505 53.8024 36.1638 52.079C36.1771 50.1568 34.6724 48.7384 33.0153 48.7251C31.007 48.7052 29.6084 50.1237 29.615 52.0923C29.6216 53.8289 31.0998 55.2606 32.8761 55.254Z" fill="#F6F6FA"/>
<path d="M40.0678 61.9035C39.8291 62.732 39.5905 63.5672 39.3386 64.3957C38.7222 66.4704 38.0925 68.5451 37.4893 70.6197C37.4098 70.8849 37.2971 70.9644 37.0386 70.9246C36.6144 70.8584 36.2101 70.7391 35.8323 70.5269C35.6931 70.4474 35.64 70.3679 35.6931 70.2022C36.7271 66.7488 37.7611 63.2954 38.7951 59.8421C38.7951 59.8222 38.815 59.8089 38.8283 59.7891C39.1 60.3061 39.3585 60.8363 39.6568 61.3401C39.7695 61.5389 39.8358 61.7842 40.0678 61.9035Z" fill="#F6F6FA"/>
<path d="M52.5283 15.9219C52.7338 15.9683 52.9592 16.008 53.158 16.1274C53.39 16.2665 53.3569 16.4853 53.2906 16.7106C52.8332 18.2153 52.3825 19.7265 51.9318 21.2378C51.3816 23.0738 50.8315 24.9099 50.2946 26.7459C50.2283 26.9779 50.1488 27.0508 49.9102 26.9514C49.6981 26.8652 49.4793 26.8056 49.254 26.7592C49.0418 26.7128 49.0021 26.62 49.0684 26.4145C49.4661 25.1087 49.8571 23.7963 50.2482 22.4839C50.8514 20.4557 51.4546 18.434 52.0577 16.4057C52.1306 16.1738 52.1969 15.9418 52.5217 15.9219H52.5283Z" fill="#F6F6FA"/>
<path d="M40.0666 61.9031C39.8347 61.7905 39.7684 61.5386 39.6557 61.3397C39.3574 60.836 39.0989 60.3057 38.8271 59.7887C39.079 58.927 39.3375 58.0653 39.5828 57.197C39.6225 57.0512 39.6822 57.0181 39.8214 57.0645C40.2721 57.2103 40.7295 57.3429 41.1868 57.4754C41.326 57.5152 41.3791 57.5748 41.3327 57.7207C40.9084 59.1126 40.4842 60.5112 40.0666 61.9031Z" fill="#CCEBF6"/>
<path d="M53.0588 57.0373C53.0588 58.8468 51.6072 60.3051 49.8043 60.3051C47.9483 60.3051 46.5166 58.8535 46.5166 56.971C46.5166 55.1946 48.0013 53.7695 49.8374 53.7695C51.6138 53.7695 53.0588 55.2344 53.0588 57.0373ZM49.791 54.6511C48.4454 54.6909 47.3584 55.7647 47.3982 57.0108C47.4446 58.4359 48.5117 59.4699 49.897 59.4235C51.1896 59.3837 52.2236 58.2569 52.1772 56.9578C52.1308 55.6785 51.0305 54.618 49.791 54.6577V54.6511Z" fill="#4156A5"/>
<path d="M32.8754 55.2479C31.1057 55.2545 29.6275 53.8228 29.6143 52.0861C29.6077 50.1175 31.0062 48.6991 33.0146 48.719C34.6717 48.7322 36.1763 50.1507 36.1631 52.0729C36.1498 53.8029 34.6717 55.2412 32.8754 55.2479ZM32.8953 49.6072C31.5763 49.6072 30.5025 50.6544 30.5025 51.9536C30.5025 53.3058 31.5498 54.3663 32.8953 54.3663C34.1414 54.3663 35.2682 53.3124 35.2815 52.1259C35.2948 50.6876 34.274 49.6072 32.8953 49.6072Z" fill="#4156A5"/>
<path d="M32.8958 49.6075C34.2745 49.6075 35.2952 50.6879 35.282 52.1262C35.2687 53.3127 34.1419 54.3666 32.8958 54.3666C31.5502 54.3666 30.4963 53.3061 30.503 51.9539C30.503 50.6481 31.5767 49.6008 32.8958 49.6075Z" fill="white"/>
</svg>
