<svg width="191" height="190" viewBox="0 0 191 190" fill="none" xmlns="http://www.w3.org/2000/svg">
<path d="M31.9426 131.994C31.9288 135.73 30.7249 139.01 30.1437 142.386C29.784 144.448 30.0607 146.205 31.2369 147.894C32.6899 149.997 34.1152 152.114 35.5266 154.245C36.7997 156.183 36.4538 157.303 34.2536 157.968C31.403 158.826 28.497 159.573 25.6188 160.348C24.1381 160.749 23.2525 160.14 22.8789 158.687C22.7682 158.258 22.5745 157.843 22.5468 157.414C22.2147 152.294 19.6962 148.253 16.3474 144.614C11.9608 139.854 10.2449 134.457 12.2099 128.05C12.971 125.546 13.3031 122.889 13.7736 120.287C14.0503 118.751 14.8806 117.921 16.4581 117.962C18.1186 118.004 19.115 118.917 19.2672 120.55C19.627 124.328 19.9314 128.119 20.2082 131.911C20.2912 133.004 20.3327 134.056 21.3013 134.748C22.5606 135.661 23.723 136.27 24.6086 134.222C25.1206 133.018 25.9924 131.966 26.6151 130.818C27.4038 129.351 28.2064 127.926 30.2268 128.59C32.0395 129.185 32.1641 130.679 31.9703 132.008L31.9426 131.994ZM29.4518 130.001C28.2618 131.952 27.2101 133.641 26.2138 135.343C24.5533 138.193 23.4462 138.47 20.6094 136.727C18.7413 135.578 18.2155 133.821 18.1187 131.786C17.9526 128.438 17.7035 125.103 17.5236 121.754C17.4821 120.896 17.2746 119.969 16.3613 119.969C15.5863 119.969 15.5863 120.951 15.4618 121.643C14.9774 124.328 14.5762 127.04 13.8704 129.655C12.5973 134.429 13.7597 138.484 16.9424 142.137C20.7202 146.482 24.1935 151.021 24.5256 157.124C24.5809 158.12 24.8992 158.563 26.02 158.231C28.6631 157.442 31.3476 156.75 34.2121 155.975C33.534 154.965 33.0773 154.121 32.4546 153.401C28.2756 148.641 26.9195 143.327 29.2304 137.28C29.4518 136.713 29.6594 136.09 29.6455 135.495C29.6317 133.807 30.5174 132.077 29.4657 130.001H29.4518Z" fill="#1C489B"/>
<path d="M29.452 130.001C30.5037 132.077 29.6181 133.793 29.6319 135.495C29.6319 136.09 29.4243 136.713 29.2167 137.28C26.9058 143.341 28.262 148.641 32.441 153.401C33.0637 154.107 33.5203 154.965 34.1984 155.975C31.3339 156.764 28.6494 157.442 26.0064 158.23C24.8855 158.562 24.5672 158.12 24.5119 157.123C24.1798 151.021 20.7065 146.482 16.9287 142.137C13.746 138.484 12.5975 134.429 13.8568 129.655C14.5625 127.026 14.95 124.314 15.4481 121.643C15.5727 120.951 15.5727 119.969 16.3476 119.969C17.2609 119.969 17.4684 120.896 17.51 121.754C17.7037 125.103 17.9528 128.438 18.105 131.786C18.2018 133.834 18.7415 135.592 20.5958 136.726C23.4326 138.47 24.5396 138.193 26.2001 135.343C27.1964 133.627 28.2481 131.952 29.4382 130.001H29.452Z" fill="white"/>
<path d="M168.387 117.017C180.547 76.8688 157.857 34.4648 117.709 22.3051C77.5608 10.1454 35.1568 32.8346 22.9971 72.9829C10.8374 113.131 33.5266 155.535 73.6748 167.695C113.823 179.855 156.227 157.165 168.387 117.017Z" stroke="#F15C58" stroke-width="1.38378" stroke-miterlimit="10" stroke-dasharray="7.08 7.08"/>
<path d="M95.652 156.225C129.477 156.225 156.898 128.804 156.898 94.9787C156.898 61.1533 129.477 33.7324 95.652 33.7324C61.8267 33.7324 34.4058 61.1533 34.4058 94.9787C34.4058 128.804 61.8267 156.225 95.652 156.225Z" fill="#DDF2F9"/>
<path d="M86.3395 31.0762C93.4383 31.0762 100.537 31.0762 107.636 31.0762C112.687 31.0762 115.247 33.65 115.247 38.7147C115.247 49.1899 115.247 59.6651 115.247 70.1404C115.247 74.8868 112.548 77.5575 107.761 77.5575C93.4384 77.5575 79.1162 77.5575 64.8079 77.5575C60.0615 77.5575 57.377 74.8591 57.377 70.085C57.377 59.5544 57.377 49.0238 57.377 38.4933C57.377 33.7192 60.0476 31.09 64.8494 31.0762C72.0035 31.0762 79.1716 31.0762 86.3257 31.0762H86.3395ZM86.3119 40.4167C77.9677 40.4167 69.6373 40.4582 61.2931 40.3752C59.8401 40.3752 59.5357 40.7903 59.5495 42.1741C59.6049 51.4593 59.5772 60.7445 59.5772 70.0297C59.5772 73.6552 61.2515 75.3711 64.8494 75.3711C79.1577 75.3711 93.4799 75.3711 107.788 75.3711C111.372 75.3711 113.047 73.6552 113.047 70.0158C113.047 60.7307 113.019 51.4455 113.074 42.1603C113.074 40.7627 112.742 40.3614 111.317 40.3752C102.973 40.4444 94.6422 40.4029 86.298 40.4029L86.3119 40.4167ZM86.215 38.2442C94.6146 38.2442 103.014 38.2027 111.4 38.2857C113.102 38.2995 113.268 37.7322 112.798 36.3484C112.119 34.3557 110.528 33.2625 107.968 33.2625C100.039 33.2625 92.1238 33.2625 84.1947 33.2625C77.6909 33.2625 71.1871 33.2625 64.6833 33.2625C62.1095 33.2625 60.4766 34.3281 59.8401 36.3207C59.2866 38.0504 59.4111 38.2442 61.1962 38.2442C69.5404 38.2442 77.8708 38.2442 86.215 38.2442Z" fill="#1C489B"/>
<path d="M86.3115 40.4163C94.6557 40.4163 102.986 40.4579 111.33 40.3887C112.756 40.3887 113.102 40.7761 113.088 42.1738C113.019 51.4589 113.06 60.7441 113.06 70.0293C113.06 73.6687 111.386 75.3707 107.802 75.3846C93.4933 75.3846 79.1712 75.3846 64.8629 75.3846C61.265 75.3846 59.5906 73.6687 59.5906 70.0431C59.5906 60.758 59.6183 51.4728 59.563 42.1876C59.563 40.8176 59.8536 40.3887 61.3065 40.3887C69.6507 40.4717 77.9811 40.4302 86.3254 40.4302L86.3115 40.4163ZM70.8961 54.2127C68.7651 52.8704 66.6895 51.9433 64.4754 51.3897C63.6036 51.1683 62.5658 50.7532 61.86 51.7495C61.182 52.7043 61.8047 53.5069 62.3167 54.3095C63.8112 56.662 65.6793 58.6546 68.1563 60.246C66.1775 61.0901 64.7937 62.3355 63.576 63.7884C63.0363 64.4111 62.7733 65.1307 63.1193 65.9195C63.4652 66.7221 64.254 66.639 64.9597 66.6667C67.9487 66.8189 70.6056 65.961 72.958 63.6639C72.958 64.8678 72.958 65.6842 72.958 66.5007C72.958 67.1926 73.2209 67.6354 73.982 67.6492C74.7016 67.6492 75.089 67.2756 75.1167 66.5699C75.1444 65.6981 75.1167 64.8263 75.1167 63.6639C77.4553 66.0579 80.1398 66.7774 83.1288 66.6806C83.8622 66.6529 84.5818 66.5975 84.9416 65.8503C85.3014 65.103 84.9415 64.5495 84.4849 63.9268C83.3225 62.3216 81.7865 61.2008 80.0845 60.329C80.126 59.8032 80.555 59.7616 80.8317 59.5679C83.0873 57.9627 84.817 55.887 86.1593 53.4931C86.9066 52.1647 86.2146 51.113 84.7063 51.196C84.1805 51.2237 83.6823 51.4174 83.1565 51.5281C81.0531 51.9709 79.1989 53.0226 77.2339 54.0743C77.3861 50.9885 76.6942 48.2624 75.7256 45.5917C75.4211 44.7614 75.0198 43.8758 73.9266 43.9312C72.9718 43.9865 72.5844 44.7614 72.2799 45.564C71.2421 48.2762 70.6056 51.0438 70.8823 54.2127H70.8961ZM99.6512 54.7939C96.6345 54.7939 93.6317 54.7939 90.615 54.7939C89.854 54.7939 88.9545 54.6693 88.9684 55.8317C88.9684 56.911 89.7848 56.9664 90.6012 56.9664C96.6207 56.9664 102.64 56.9664 108.66 56.9664C109.448 56.9664 110.279 56.9664 110.306 55.8732C110.334 54.697 109.462 54.8077 108.687 54.8077C105.671 54.8077 102.668 54.8077 99.6512 54.8077V54.7939ZM99.8311 46.9616C96.7591 46.9616 93.7009 46.9616 90.6289 46.9616C89.8678 46.9616 88.9684 46.8371 88.9822 47.9995C88.9822 49.0788 89.8125 49.148 90.615 49.148C96.6345 49.148 102.654 49.148 108.66 49.148C109.462 49.148 110.279 49.1065 110.306 48.0272C110.334 46.8648 109.448 46.9616 108.687 46.9616C105.74 46.9616 102.792 46.9616 99.8449 46.9616H99.8311ZM99.6235 62.6261C96.6068 62.6261 93.604 62.6261 90.5874 62.6261C89.8125 62.6261 88.9407 62.543 88.9684 63.7054C88.9961 64.7986 89.8125 64.8124 90.615 64.8124C96.6345 64.8124 102.654 64.8124 108.687 64.8124C109.49 64.8124 110.306 64.7986 110.306 63.6916C110.306 62.5154 109.421 62.6399 108.66 62.6399C105.643 62.6399 102.64 62.6399 99.6235 62.6399V62.6261Z" fill="white"/>
<path d="M86.2147 38.2436C77.8705 38.2436 69.5401 38.2436 61.1959 38.2436C59.4108 38.2436 59.2724 38.0499 59.8398 36.3202C60.4763 34.3275 62.1092 33.2758 64.683 33.262C71.1868 33.2482 77.6906 33.262 84.1944 33.262C92.1235 33.262 100.039 33.262 107.968 33.262C110.528 33.262 112.119 34.3552 112.797 36.3478C113.268 37.7316 113.102 38.299 111.4 38.2851C103 38.2021 94.6004 38.2436 86.2147 38.2436ZM99.4021 37.192C100.191 37.1228 100.786 36.6938 100.744 35.6421C100.717 34.6181 100.136 34.1615 99.1531 34.1753C98.2121 34.1891 97.7555 34.7427 97.7278 35.6283C97.7001 36.6108 98.1982 37.1781 99.4021 37.192ZM92.5109 37.192C93.5211 37.1643 94.0331 36.6523 94.0054 35.6421C93.9777 34.6458 93.4242 34.1476 92.4279 34.1753C91.5008 34.203 91.0441 34.7288 91.0164 35.6283C90.9887 36.6384 91.5008 37.1504 92.4971 37.1781L92.5109 37.192ZM107.497 35.393C107.331 34.6735 106.847 34.1476 105.837 34.1891C104.868 34.2307 104.439 34.8395 104.439 35.6836C104.439 36.6384 104.965 37.2335 105.989 37.2058C106.985 37.1781 107.483 36.6246 107.497 35.4069V35.393Z" fill="white"/>
<path d="M70.8961 54.198C70.6193 51.043 71.2559 48.2616 72.2937 45.5494C72.5982 44.7468 72.9856 43.9719 73.9404 43.9165C75.0336 43.8612 75.4349 44.7468 75.7393 45.5771C76.708 48.2478 77.3999 50.9738 77.2477 54.0597C79.2127 53.008 81.0808 51.9563 83.1703 51.5135C83.6823 51.4028 84.1943 51.2091 84.7201 51.1814C86.2284 51.1122 86.9203 52.15 86.1731 53.4785C84.817 55.8586 83.1011 57.9481 80.8455 59.5533C80.5826 59.747 80.1398 59.7747 80.0983 60.3144C81.8003 61.1861 83.3363 62.307 84.4987 63.9122C84.9415 64.5211 85.3151 65.0884 84.9553 65.8357C84.5956 66.5829 83.876 66.6383 83.1426 66.6659C80.1675 66.7628 77.4691 66.0432 75.1305 63.6493C75.1305 64.8255 75.1582 65.6973 75.1305 66.5552C75.1028 67.2471 74.7154 67.6346 73.9958 67.6346C73.2347 67.6346 72.9718 67.1779 72.9718 66.486C72.9718 65.6696 72.9718 64.8393 72.9718 63.6493C70.6193 65.9464 67.9625 66.8043 64.9735 66.6521C64.2678 66.6106 63.479 66.7074 63.1331 65.9049C62.7871 65.1161 63.0639 64.4104 63.5897 63.7738C64.8213 62.3347 66.2051 61.0754 68.1701 60.2313C65.6931 58.64 63.825 56.6473 62.3305 54.2949C61.8185 53.4785 61.1958 52.6897 61.8738 51.7349C62.5657 50.7386 63.6174 51.1537 64.4892 51.3751C66.7033 51.9286 68.7789 52.8558 70.9099 54.198H70.8961ZM73.9681 57.533C75.5733 54.0458 75.2273 50.877 73.9681 47.3622C72.8334 50.8631 72.529 54.032 73.9681 57.533ZM64.8767 53.9074C66.4957 56.7719 69.4846 58.9444 71.8924 58.9859C70.9653 56.6197 68.35 54.71 64.8767 53.9074ZM75.7947 59.2212C79.3095 58.64 81.399 56.509 83.5024 53.6584C80.1536 54.7654 77.5106 56.1353 75.7947 59.2212ZM82.0632 64.4519C80.5134 62.819 79.0051 61.8365 76.6942 61.9611C78.1194 63.7046 79.78 64.3689 82.0632 64.4519ZM65.9422 64.4657C68.2531 64.355 69.9275 63.7185 71.3528 61.9472C69.0695 61.8504 67.5889 62.8467 65.9422 64.4657Z" fill="#1C489B"/>
<path d="M99.6516 54.7786C102.668 54.7786 105.671 54.7786 108.688 54.7786C109.463 54.7786 110.334 54.6818 110.307 55.8441C110.279 56.9512 109.463 56.9373 108.66 56.9373C102.641 56.9373 96.6211 56.9373 90.6016 56.9373C89.7852 56.9373 88.9826 56.8958 88.9688 55.8026C88.9688 54.6264 89.8543 54.7648 90.6154 54.7648C93.6321 54.7648 96.6349 54.7648 99.6516 54.7648V54.7786Z" fill="#1C489B"/>
<path d="M99.8314 46.9472C102.779 46.9472 105.726 46.9472 108.674 46.9472C109.449 46.9472 110.334 46.8504 110.293 48.0128C110.265 49.0921 109.449 49.1336 108.646 49.1336C102.627 49.1336 96.6072 49.1336 90.6016 49.1336C89.799 49.1336 88.9826 49.0644 88.9688 47.9851C88.9688 46.8227 89.8543 46.9472 90.6154 46.9472C93.6874 46.9472 96.7456 46.9472 99.8176 46.9472H99.8314Z" fill="#1C489B"/>
<path d="M99.6235 62.6108C102.64 62.6108 105.643 62.6108 108.66 62.6108C109.421 62.6108 110.306 62.4863 110.306 63.6625C110.306 64.7695 109.49 64.7834 108.687 64.7834C102.668 64.7834 96.6484 64.7834 90.6151 64.7834C89.8125 64.7834 88.9961 64.7834 88.9684 63.6763C88.9407 62.514 89.8125 62.597 90.5874 62.597C93.6041 62.597 96.6069 62.597 99.6235 62.597V62.6108Z" fill="#1C489B"/>
<path d="M99.4022 37.1908C98.1983 37.1769 97.714 36.6096 97.7278 35.6271C97.7417 34.7415 98.2121 34.188 99.1531 34.1741C100.136 34.1603 100.717 34.6169 100.744 35.6409C100.772 36.6788 100.177 37.1216 99.4022 37.1908Z" fill="#1C489B"/>
<path d="M92.5247 37.1914C91.5283 37.1499 91.0164 36.6379 91.044 35.6416C91.0717 34.7421 91.5283 34.2163 92.4555 34.1886C93.4518 34.1609 94.0053 34.6453 94.033 35.6554C94.0606 36.6656 93.5348 37.1776 92.5385 37.2053L92.5247 37.1914Z" fill="#1C489B"/>
<path d="M107.497 35.3919C107.497 36.6096 106.985 37.1631 105.989 37.1908C104.965 37.2185 104.439 36.6235 104.439 35.6687C104.439 34.8245 104.868 34.2157 105.837 34.1742C106.847 34.1327 107.345 34.6585 107.497 35.3781V35.3919Z" fill="#1C489B"/>
<path d="M73.9544 57.5341C72.5152 54.0193 72.8197 50.8643 73.9544 47.3633C75.1998 50.8781 75.5457 54.047 73.9544 57.5341Z" fill="white"/>
<path d="M64.8628 53.9082C68.3223 54.7246 70.9515 56.6204 71.8786 58.9867C69.4846 58.9452 66.4957 56.7726 64.8628 53.9082Z" fill="white"/>
<path d="M74.522 59.4427C76.5008 55.8449 79.5728 54.2674 83.4751 52.9805C81.0396 56.2877 78.618 58.7647 74.522 59.4427Z" fill="white"/>
<path d="M81.8003 64.4525C79.1572 64.3694 77.2338 63.5945 75.5732 61.5603C78.2578 61.4081 80.0152 62.5567 81.8003 64.4525Z" fill="white"/>
<path d="M65.9146 64.4664C67.5613 62.8473 69.0419 61.851 71.3251 61.9479C69.886 63.7191 68.2255 64.3695 65.9146 64.4664Z" fill="white"/>
<path d="M31.68 125.408C29.978 125.201 27.9992 125.229 26.2141 124.384C24.3598 123.499 24.1523 121.894 25.9512 121.105C30.9466 118.905 33.8526 115.099 35.9559 110.173C37.741 105.994 43.4145 103.863 47.8565 105.15C49.0604 105.496 49.6 105.274 50.1259 104.237C50.4026 103.683 50.8316 102.811 51.7172 103.448C52.3123 103.863 52.3122 104.582 51.8694 105.094C50.6794 106.464 51.2052 107.737 51.7864 109.19C53.101 112.484 52.2569 115.431 49.8768 117.922C44.9921 123.07 38.8065 125.132 31.6662 125.422L31.68 125.408ZM49.6139 109.204C47.4829 112.359 44.9228 114.767 42.0584 116.843C41.3388 117.369 40.5224 118.531 39.6645 117.258C38.9449 116.179 40.2733 115.777 40.8684 115.293C43.2762 113.342 45.6563 111.405 47.4413 108.817C48.3685 107.475 48.0087 107.073 46.5419 106.797C43.4145 106.215 38.9726 108.042 37.6718 111.197C35.61 116.179 32.7317 120.247 27.3626 122.502C34.2677 124.979 45.6701 121.174 49.3371 115.459C50.5548 113.563 50.97 111.571 49.6416 109.204H49.6139Z" fill="#1C489B"/>
<path d="M49.6275 109.218C50.9559 111.598 50.5408 113.577 49.3231 115.473C45.6561 121.174 34.2537 124.993 27.3486 122.516C32.7177 120.261 35.6098 116.192 37.6578 111.211C38.9586 108.056 43.4005 106.229 46.5279 106.81C47.9947 107.087 48.3544 107.488 47.4273 108.831C45.6422 111.418 43.2621 113.356 40.8543 115.307C40.2593 115.791 38.9309 116.192 39.6504 117.272C40.5084 118.545 41.311 117.382 42.0444 116.857C44.9088 114.781 47.4688 112.373 49.5999 109.218H49.6275Z" fill="white"/>
<path d="M44.3001 133.973C44.3139 137.709 45.5178 140.988 46.099 144.365C46.4588 146.427 46.182 148.184 45.0058 149.872C43.5528 151.976 42.1275 154.093 40.7161 156.224C39.443 158.161 39.789 159.282 41.9892 159.946C44.8398 160.804 47.7457 161.551 50.624 162.326C52.1046 162.728 52.9903 162.119 53.3639 160.666C53.4746 160.237 53.6683 159.822 53.696 159.393C54.0281 154.273 56.5466 150.232 59.8953 146.593C64.2819 141.832 65.9978 136.436 64.0328 130.029C63.2717 127.524 62.9396 124.867 62.4691 122.266C62.1924 120.73 61.3621 119.899 59.7846 119.941C58.1241 119.982 57.1277 120.896 56.9755 122.529C56.6157 126.306 56.3113 130.098 56.0346 133.889C55.9515 134.983 55.91 136.034 54.9414 136.726C53.6821 137.64 52.5198 138.248 51.6341 136.2C51.1221 134.997 50.2503 133.945 49.6276 132.796C48.8389 131.329 48.0363 129.904 46.016 130.568C44.2032 131.163 44.0787 132.658 44.2724 133.986L44.3001 133.973ZM46.7909 131.98C47.981 133.931 49.0326 135.619 50.0289 137.321C51.6895 140.172 52.7965 140.449 55.6333 138.705C57.5014 137.556 58.0272 135.799 58.1241 133.765C58.2901 130.416 58.5392 127.081 58.7191 123.733C58.7606 122.875 58.9682 121.947 59.8815 121.947C60.6564 121.947 60.6564 122.93 60.7809 123.622C61.2653 126.306 61.6666 129.019 62.3723 131.634C63.6454 136.408 62.483 140.462 59.3003 144.116C55.5226 148.461 52.0493 153 51.7172 159.102C51.6618 160.098 51.3436 160.541 50.2227 160.209C47.5797 159.42 44.8951 158.728 42.0307 157.953C42.7087 156.943 43.1654 156.099 43.7881 155.38C47.9671 150.619 49.3232 145.306 47.0123 139.259C46.7909 138.691 46.5833 138.068 46.5972 137.473C46.611 135.785 45.7254 134.056 46.7771 131.98H46.7909Z" fill="#1C489B"/>
<path d="M46.7908 131.982C45.7391 134.057 46.6247 135.773 46.6109 137.475C46.6109 138.07 46.8185 138.693 47.026 139.26C49.3369 145.321 47.9808 150.621 43.8018 155.381C43.1791 156.087 42.7225 156.945 42.0444 157.955C44.9089 158.744 47.5934 159.422 50.2364 160.211C51.3573 160.543 51.6756 160.1 51.7309 159.104C52.063 153.001 55.5363 148.463 59.314 144.117C62.4967 140.464 63.6453 136.41 62.386 131.636C61.6803 129.007 61.2928 126.294 60.7947 123.624C60.6701 122.932 60.6702 121.949 59.8952 121.949C58.9819 121.949 58.7744 122.876 58.7329 123.734C58.5391 127.083 58.2901 130.418 58.1378 133.767C58.041 135.815 57.5013 137.572 55.647 138.707C52.8103 140.45 51.7032 140.174 50.0427 137.323C49.0464 135.607 47.9947 133.933 46.8047 131.982H46.7908Z" fill="white"/>
<path d="M151.35 169.288C146.991 169.288 142.632 169.288 138.273 169.288C135.007 169.288 133.471 166.604 135.104 163.753C139.394 156.281 143.683 148.822 147.973 141.35C148.333 140.713 148.679 140.063 149.274 139.606C150.962 138.333 153.204 138.859 154.352 140.838C157.189 145.764 160.012 150.69 162.849 155.616C164.412 158.342 165.99 161.041 167.526 163.781C169.145 166.645 167.595 169.288 164.329 169.288C160.012 169.288 155.681 169.288 151.363 169.288H151.35ZM151.28 167.019C151.737 167.019 152.194 167.019 152.636 167.019C156.58 167.019 160.524 167.019 164.468 167.019C165.796 167.019 166.253 166.216 165.63 165.012C165.547 164.86 165.464 164.708 165.367 164.556C161.119 157.152 156.857 149.749 152.609 142.332C151.737 140.81 150.921 140.768 150.063 142.277C145.731 149.804 141.414 157.332 137.097 164.86C136.322 166.216 136.778 167.019 138.314 167.019C142.646 167.019 146.963 167.019 151.294 167.019H151.28Z" fill="#1C489B"/>
<path d="M156.469 104.098C162.406 104.168 167.125 108.983 167.055 114.906C166.986 120.731 162.06 125.547 156.262 125.436C150.284 125.326 145.648 120.579 145.704 114.601C145.759 108.72 150.561 104.029 156.469 104.098ZM164.8 114.117C164.703 111.626 163.375 109.094 160.579 107.475C157.784 105.856 154.933 105.953 152.097 107.475C151.46 107.821 151.308 108.084 151.917 108.679C154.214 110.92 156.469 113.204 158.739 115.487C159.251 115.999 159.777 116.525 160.275 117.051C160.759 117.576 160.745 118.144 160.247 118.628C159.791 119.085 159.251 119.071 158.739 118.642C158.504 118.434 158.282 118.213 158.061 117.992C155.57 115.501 153.079 113.01 150.588 110.505C149.634 109.551 149.592 109.564 148.942 110.754C147.295 113.785 147.724 117.59 150.007 120.247C152.318 122.932 156.013 123.873 159.334 122.627C162.613 121.396 164.786 118.282 164.8 114.089V114.117Z" fill="#1C489B"/>
<path d="M136.75 133.82C136.75 136.851 136.75 139.895 136.75 142.926C136.75 143.728 136.612 144.434 135.657 144.531C134.91 144.6 134.481 144.005 134.481 142.898C134.481 136.865 134.481 130.831 134.481 124.798C134.481 123.58 135.118 122.958 136.003 123.262C136.695 123.511 136.75 124.092 136.75 124.715C136.75 127.746 136.75 130.79 136.75 133.82Z" fill="#1C489B"/>
<path d="M114.223 105.204C110.417 105.204 106.626 105.177 102.82 105.218C102.018 105.218 101.796 104.969 101.81 104.208C101.852 102.215 101.852 100.237 101.81 98.2439C101.796 97.4966 102.073 97.2891 102.779 97.2891C110.376 97.3029 117.987 97.3167 125.584 97.2891C126.386 97.2891 126.608 97.5658 126.58 98.3269C126.538 100.32 126.525 102.298 126.58 104.291C126.594 105.052 126.317 105.218 125.611 105.218C121.806 105.19 118.014 105.218 114.209 105.218L114.223 105.204Z" fill="white"/>
<path d="M151.28 167.003C146.949 167.003 142.631 167.003 138.3 167.003C136.764 167.003 136.308 166.201 137.082 164.845C141.4 157.317 145.717 149.775 150.049 142.261C150.92 140.753 151.723 140.795 152.595 142.317C156.843 149.72 161.105 157.137 165.353 164.54C165.436 164.693 165.533 164.845 165.616 164.997C166.239 166.201 165.782 167.003 164.454 167.003C160.51 167.017 156.566 167.003 152.622 167.003C152.166 167.003 151.709 167.003 151.266 167.003H151.28ZM150.173 153.581C150.173 155.144 150.173 156.722 150.173 158.286C150.173 159.074 150.45 159.697 151.363 159.656C152.221 159.628 152.429 159.019 152.429 158.272C152.429 155.131 152.429 151.989 152.429 148.862C152.429 148.018 152.18 147.34 151.239 147.381C150.353 147.409 150.159 148.101 150.159 148.876C150.159 150.44 150.159 152.017 150.159 153.581H150.173ZM152.442 163.323C152.456 162.561 152.152 161.953 151.266 161.98C150.45 161.994 150.159 162.589 150.173 163.35C150.173 164.153 150.45 164.748 151.349 164.734C152.207 164.72 152.442 164.125 152.442 163.336V163.323Z" fill="white"/>
<path d="M164.8 114.102C164.786 118.295 162.614 121.394 159.334 122.64C156.013 123.885 152.332 122.944 150.007 120.26C147.724 117.617 147.295 113.811 148.942 110.767C149.592 109.577 149.634 109.577 150.589 110.518C153.079 113.009 155.57 115.5 158.061 118.004C158.282 118.226 158.504 118.447 158.739 118.655C159.237 119.084 159.791 119.084 160.247 118.641C160.745 118.156 160.759 117.575 160.275 117.063C159.777 116.524 159.251 116.012 158.739 115.5C156.47 113.23 154.214 110.933 151.917 108.691C151.308 108.096 151.446 107.847 152.097 107.487C154.934 105.951 157.784 105.855 160.579 107.487C163.389 109.106 164.703 111.639 164.8 114.13V114.102Z" fill="white"/>
<path d="M150.173 153.581C150.173 152.017 150.173 150.44 150.173 148.876C150.173 148.101 150.367 147.409 151.253 147.382C152.194 147.354 152.457 148.032 152.443 148.862C152.443 152.004 152.443 155.145 152.443 158.272C152.443 159.019 152.235 159.628 151.377 159.656C150.464 159.697 150.187 159.075 150.187 158.286C150.187 156.722 150.187 155.145 150.187 153.581H150.173Z" fill="#1C489B"/>
<path d="M152.443 163.337C152.443 164.126 152.208 164.721 151.35 164.735C150.45 164.749 150.173 164.154 150.173 163.351C150.173 162.59 150.464 162.009 151.267 161.981C152.138 161.954 152.457 162.563 152.443 163.324V163.337Z" fill="#1C489B"/>
<path d="M127.894 126.459H95.1401V157.359H127.894V126.459Z" fill="#A2AFDA"/>
<path d="M135.547 110.353C134.55 111.958 133.859 113.632 133.194 115.321C131.603 119.403 130.551 123.623 130.15 127.982C129.749 132.438 129.942 136.838 131.119 141.17C131.188 141.405 131.257 141.64 131.271 141.889C131.299 142.387 131.091 142.775 130.634 142.996C130.205 143.204 129.818 143.107 129.458 142.83C129.292 142.706 129.14 142.54 129.029 142.374C126.372 138.291 122.332 136.16 117.931 134.583C115.593 133.739 113.199 133.116 110.763 132.673C110.514 132.632 110.168 132.438 110.002 132.729C109.919 132.881 110.071 133.199 110.168 133.407C112.534 138.291 115.662 142.65 119.758 146.22C122.276 148.421 125.39 149.376 128.656 149.832C129.306 149.929 129.818 150.164 129.929 150.856C130.025 151.451 129.68 151.852 129.168 152.088C124.144 154.316 122.083 158.744 120.616 163.601C120.408 164.265 120.311 164.957 120.159 165.635C119.979 166.41 120.284 166.562 120.989 166.299C124.338 165.068 127.299 163.227 129.97 160.861C132.793 158.356 134.218 155.215 134.44 151.493C134.509 150.413 134.966 149.832 135.713 149.957C136.682 150.109 136.765 150.842 136.709 151.617C136.405 155.699 134.966 159.27 131.921 162.106C128.337 165.455 124.241 167.891 119.467 169.108C118 169.482 117.475 169.039 117.641 167.531C118.319 161.539 120.298 156.142 124.919 151.991C125.21 151.728 125.556 151.493 124.892 151.327C119.869 150.04 116.451 146.608 113.379 142.72C110.819 139.468 108.646 135.98 107.179 132.092C106.557 130.432 107.124 129.753 108.854 130.03C114.084 130.86 119.149 132.217 123.854 134.735C125.224 135.468 126.483 136.409 127.811 137.406C128.033 136.838 127.922 136.396 127.881 135.967C127.272 129.504 128.116 123.222 130.178 117.092C130.482 116.206 130.275 115.694 129.624 115.113C127.991 113.674 126.109 113.037 123.965 113.051C119.841 113.051 115.731 113.051 111.607 113.051C111.289 113.051 110.971 113.065 110.666 113.024C110.03 112.94 109.656 112.553 109.67 111.889C109.698 111.225 110.085 110.851 110.736 110.837C111.815 110.809 112.894 110.823 113.987 110.823C116.395 110.823 118.803 110.809 121.211 110.823C121.82 110.823 122.055 110.671 122.083 110.007C122.152 107.447 122.179 107.461 119.606 107.461C115.551 107.461 111.51 107.488 107.456 107.447C106.612 107.447 106.252 107.627 106.321 108.54C106.404 109.44 106.335 110.353 106.335 111.266C106.335 112.774 106.058 113.037 104.592 113.065C103.415 113.093 102.225 112.996 101.063 113.342C98.2123 114.214 96.3165 116.663 96.2473 119.624C96.2197 120.773 96.3027 121.935 96.2197 123.084C96.1505 124.025 96.4964 124.26 97.3959 124.246C105.353 124.204 113.309 124.191 121.266 124.177C122.11 124.177 122.941 124.177 123.785 124.177C124.601 124.177 125.307 124.371 125.265 125.367C125.224 126.294 124.518 126.419 123.757 126.419C115.136 126.432 106.515 126.46 97.894 126.474C96.2473 126.474 96.2473 126.474 96.2473 128.093C96.2473 137.586 96.2473 147.078 96.2473 156.571C96.2473 157.531 96.7455 158.01 97.7419 158.01C103.402 158.01 109.047 158.01 114.707 158.01C114.984 158.01 115.261 158.01 115.551 158.01C116.368 158.01 117.087 158.259 117.032 159.214C116.99 160.1 116.298 160.28 115.523 160.28C109.698 160.28 103.872 160.28 98.0324 160.28C97.7557 160.28 97.4789 160.294 97.1883 160.28C96.4964 160.224 96.2889 160.404 96.4826 161.151C97.3129 164.459 100.399 166.95 103.914 167.005C107.165 167.046 110.403 167.005 113.655 167.019C113.96 167.019 114.306 167.005 114.582 167.116C115.067 167.295 115.399 167.669 115.316 168.25C115.233 168.901 114.818 169.274 114.181 169.274C110.307 169.247 106.418 169.606 102.571 169.122C97.6173 168.513 94.0195 164.279 94.0056 159.283C93.9779 146.054 93.9779 132.825 94.0056 119.596C94.0056 114.864 97.9356 110.962 102.668 110.837C104.093 110.796 104.08 111.169 104.08 109.329C104.08 108.111 103.48 107.493 102.281 107.475C100.426 107.433 99.6238 106.617 99.6099 104.762C99.6099 102.424 99.6099 100.085 99.6099 97.7465C99.6099 95.9199 100.399 95.1035 102.198 95.1035C110.127 95.1035 118.042 95.1035 125.971 95.1035C128.088 95.1035 128.794 95.8231 128.808 97.9264C128.808 100.224 128.808 102.534 128.808 104.832C128.808 106.617 127.977 107.419 126.165 107.461C124.338 107.502 124.38 107.502 124.324 109.287C124.283 110.325 124.394 110.879 125.708 110.934C127.576 111.017 129.292 111.861 130.717 113.093C131.312 113.605 131.506 113.466 131.769 112.816C132.489 111.072 133.333 109.384 134.343 107.793C135.145 106.52 136.003 106.52 136.792 107.834C140.113 113.425 142.12 119.486 143.005 125.92C143.49 129.421 143.573 132.936 143.199 136.465C143.171 136.714 143.005 137.046 143.324 137.226C143.545 137.337 143.711 137.129 143.863 137.004C147.862 133.822 152.554 132.175 157.424 130.985C159.085 130.584 160.773 130.293 162.448 129.989C163.901 129.74 164.496 130.473 163.997 131.884C162.724 135.427 160.842 138.637 158.573 141.626C158.116 142.235 157.549 142.526 156.871 142.014C156.193 141.502 156.345 140.879 156.788 140.27C158.379 138.098 159.832 135.842 160.953 133.393C161.05 133.185 161.202 132.881 161.119 132.715C160.967 132.396 160.621 132.59 160.372 132.646C156.041 133.504 151.834 134.735 147.973 136.935C145.911 138.112 144.112 139.564 142.742 141.516C142.507 141.862 142.23 142.18 141.968 142.512C141.58 142.982 141.137 143.273 140.515 142.982C139.85 142.664 139.74 142.097 139.92 141.474C140.459 139.551 140.847 137.6 141.013 135.621C141.732 126.861 139.878 118.628 135.907 110.837C135.837 110.685 135.713 110.56 135.547 110.353ZM114.223 105.205C118.028 105.205 121.82 105.191 125.625 105.205C126.331 105.205 126.608 105.039 126.594 104.278C126.552 102.285 126.552 100.307 126.594 98.3139C126.608 97.5528 126.386 97.2761 125.597 97.2761C118 97.3037 110.39 97.3037 102.793 97.2761C102.073 97.2761 101.81 97.4836 101.824 98.2309C101.866 100.224 101.866 102.202 101.824 104.195C101.81 104.956 102.032 105.219 102.834 105.205C106.64 105.164 110.431 105.191 114.237 105.191L114.223 105.205Z" fill="#1C489B"/>
</svg>
