<svg width="215" height="215" viewBox="0 0 215 215" fill="none" xmlns="http://www.w3.org/2000/svg">
<path d="M161.127 161.127C190.789 131.464 190.789 83.3717 161.127 53.7091C131.464 24.0465 83.3715 24.0465 53.7089 53.7091C24.0463 83.3717 24.0463 131.464 53.7089 161.127C83.3715 190.789 131.464 190.79 161.127 161.127Z" stroke="#F15C58" stroke-width="1.38378" stroke-miterlimit="10" stroke-dasharray="7.08 7.08"/>
<path d="M107.414 168.655C141.24 168.655 168.66 141.234 168.66 107.408C168.66 73.583 141.24 46.1621 107.414 46.1621C73.5888 46.1621 46.168 73.583 46.168 107.408C46.168 141.234 73.5888 168.655 107.414 168.655Z" fill="#DDF2F9"/>
<path d="M63.2853 105.18C64.3923 105.18 65.2364 105.18 66.0667 105.18C68.7097 105.18 71.3527 105.18 73.9819 105.18C77.4691 105.18 79.268 108.128 77.6905 111.213C77.6352 111.31 77.6075 111.421 77.5521 111.573C77.9811 111.684 78.3962 111.753 78.7975 111.891C80.2782 112.417 81.233 113.441 81.4544 115.019C81.6896 116.707 81.1223 118.118 79.6139 119.004C79.0328 119.35 78.8113 119.502 79.2265 120.236C80.721 122.906 78.8944 126.034 75.8362 126.172C75.4349 126.186 75.0198 126.172 74.5355 126.172C74.9645 127.251 75.4072 128.262 75.0613 129.424C74.5631 131.098 73.2209 132.219 71.4911 132.233C68.4053 132.247 65.3195 132.247 62.2336 132.233C61.5832 132.233 61.2235 132.275 61.0574 133.091C60.5869 135.277 58.7327 136.689 56.574 136.703C54.3046 136.73 52.5333 135.402 51.9106 133.16C51.7584 132.634 51.6892 132.288 50.9696 132.233C45.0747 131.79 40.5497 127.971 39.3873 122.104C38.391 117.025 38.82 112.085 42.3763 107.906C44.3966 105.54 47.0812 104.073 49.8903 102.855C52.7824 101.61 55.7298 100.461 58.1514 98.3581C59.0232 97.597 59.8535 96.7944 60.7392 96.0748C62.0399 95.0232 63.2299 95.1477 64.3508 96.3793C66.1912 98.3996 66.122 101.721 64.2124 104.045C63.9772 104.336 63.7281 104.613 63.2715 105.152L63.2853 105.18ZM70.4533 118.188C72.7642 118.188 75.0613 118.188 77.3722 118.188C78.0226 118.188 78.6176 118.077 79.1435 117.662C80.0014 116.97 80.3335 115.904 79.9875 114.867C79.6139 113.718 78.7007 113.068 77.3446 113.068C73.1379 113.04 68.945 113.068 64.7383 113.054C64.4754 113.054 64.2124 113.054 63.9634 113.054C63.5205 113.04 63.2576 112.763 63.2715 112.348C63.2715 111.933 63.5482 111.67 64.0049 111.684C64.2955 111.684 64.5999 111.684 64.8905 111.684C67.9348 111.684 70.993 111.684 74.0373 111.684C75.5318 111.684 76.5281 110.964 76.8049 109.76C77.2062 108.003 76.0161 106.592 74.0788 106.578C69.9828 106.564 65.9007 106.578 61.8047 106.578C61.5833 106.578 61.3618 106.578 61.1404 106.578C60.753 106.578 60.3794 106.536 60.2548 106.08C60.1441 105.651 60.3655 105.388 60.7115 105.166C61.3065 104.779 61.9154 104.419 62.4274 103.949C63.9495 102.537 64.7244 100.849 64.0879 98.7455C63.4652 96.6837 62.4274 96.3793 60.8914 97.8599C58.3175 100.351 55.3839 102.233 52.049 103.52C49.4198 104.544 46.9152 105.831 44.6873 107.616C39.249 111.975 39.2351 122.228 43.0267 126.739C45.0885 129.203 47.6901 130.586 50.8728 130.905C51.5093 130.974 51.8968 130.891 52.215 130.157C53.0038 128.275 54.5259 127.293 56.6016 127.334C58.6219 127.376 60.0611 128.386 60.836 130.227C61.0851 130.794 61.348 130.905 61.8877 130.905C64.9735 130.891 68.0594 130.905 71.1452 130.905C72.7089 130.905 73.8159 129.894 73.802 128.525C73.802 127.141 72.7227 126.227 71.0898 126.227C68.2254 126.227 65.361 126.227 62.4965 126.227C61.9292 126.227 61.2373 126.269 61.2234 125.508C61.2234 124.719 61.9292 124.816 62.4827 124.816C66.4957 124.816 70.5225 124.816 74.5355 124.816C75.1582 124.816 75.8085 124.816 76.4174 124.691C77.5936 124.47 78.3547 123.418 78.3547 122.187C78.3547 121.011 77.5798 120 76.4313 119.779C75.8224 119.654 75.172 119.655 74.5493 119.655C70.8684 119.655 67.1876 119.655 63.5067 119.655C62.9809 119.655 62.3305 119.696 62.3166 118.99C62.3028 118.215 62.967 118.243 63.5482 118.243C65.8592 118.243 68.1562 118.243 70.4672 118.243L70.4533 118.188ZM53.6403 130.393C52.8654 131.832 53.0591 133.354 54.18 134.419C55.3147 135.499 56.74 135.637 58.1099 134.807C56.6431 133.354 55.1625 131.915 53.6403 130.406V130.393ZM54.8719 129.203C56.3249 130.697 57.8055 132.192 59.2723 133.7C60.1026 132.219 59.9365 130.739 58.8018 129.645C57.6948 128.58 56.228 128.428 54.8857 129.216L54.8719 129.203Z" fill="#1C489B"/>
<path d="M58.6081 148.051C56.394 148.051 54.2769 148.037 52.1597 148.051C49.8626 148.079 48.3128 146.626 48.2297 144.287C48.1467 142.004 49.655 140.357 51.8829 140.219C57.5979 139.873 63.313 139.513 69.028 139.112C70.7716 138.988 72.2937 139.444 73.802 140.274C76.1406 141.575 78.5207 142.765 80.9008 143.983C81.3575 144.218 81.7311 144.343 81.399 145.021C81.0669 145.699 80.7625 145.519 80.2782 145.27C77.7597 143.928 75.2135 142.627 72.695 141.285C71.588 140.69 70.4394 140.399 69.1802 140.482C63.4375 140.869 57.6809 141.229 51.9244 141.589C50.4853 141.686 49.6135 142.724 49.6827 144.232C49.7519 145.837 50.596 146.64 52.1458 146.585C54.6366 146.501 57.1274 146.418 59.6182 146.322C60.0472 146.308 60.4624 146.266 60.6976 146.709C60.8914 147.083 60.6976 147.415 60.5039 147.747C59.3876 149.703 57.7132 150.764 55.4807 150.93C53.7787 151.068 52.0766 151.179 50.3746 151.359C49.6965 151.428 49.2675 151.234 48.8524 150.708C47.0673 148.522 45.2407 146.363 43.4141 144.204C42.404 143.001 42.1134 142.973 41.0894 144.094C40.7988 144.412 40.4667 144.426 40.0931 144.481C38.9169 144.647 38.4187 145.74 39.1798 146.681C41.6983 149.85 44.2721 152.991 46.8182 156.133C47.1088 156.492 47.441 156.741 47.953 156.728C52.1181 156.631 56.2972 157.004 60.4347 156.479C63.2853 156.119 66.122 155.427 68.9173 154.68C72.0446 153.849 75.1858 154.195 78.3409 154.098C78.9359 154.085 79.5309 154.126 80.1259 154.098C80.7209 154.057 80.887 154.278 80.887 154.86C80.887 155.51 80.6103 155.579 80.0706 155.565C78.7698 155.538 77.4552 155.648 76.1683 155.538C71.588 155.164 67.2844 156.562 62.8978 157.489C61.3342 157.821 59.7705 158.084 58.1653 158.084C54.858 158.07 51.537 158.07 48.2297 158.111C47.1365 158.125 46.3201 157.793 45.6282 156.921C43.1236 153.78 40.5774 150.681 38.0589 147.553C36.7582 145.92 37.4915 143.692 39.5119 143.139C39.8993 143.028 40.1623 142.862 40.4529 142.613C41.7121 141.492 42.999 141.561 44.1475 142.876C45.9741 144.979 47.7592 147.124 49.5305 149.283C49.9041 149.74 50.2639 149.906 50.8451 149.85C52.9899 149.657 55.1348 149.49 57.2935 149.338C58.2068 149.283 58.276 148.508 58.6635 147.996L58.6081 148.051Z" fill="#1C489B"/>
<path d="M70.4535 118.203C68.1426 118.203 65.8455 118.203 63.5346 118.203C62.9672 118.203 62.2892 118.175 62.303 118.95C62.303 119.67 62.9534 119.614 63.4931 119.614C67.1739 119.614 70.8548 119.614 74.5357 119.614C75.1584 119.614 75.8087 119.614 76.4176 119.739C77.5523 119.96 78.3273 120.97 78.3411 122.146C78.3411 123.378 77.58 124.43 76.4038 124.651C75.7949 124.762 75.1445 124.776 74.5218 124.776C70.5089 124.776 66.4821 124.776 62.4691 124.776C61.9156 124.776 61.196 124.679 61.2098 125.468C61.2098 126.229 61.9156 126.187 62.4829 126.187C65.3473 126.187 68.2118 126.187 71.0762 126.187C72.7091 126.187 73.7746 127.114 73.7884 128.484C73.7884 129.854 72.6814 130.864 71.1315 130.864C68.0457 130.864 64.9599 130.864 61.874 130.864C61.3344 130.864 61.0576 130.754 60.8224 130.186C60.0475 128.36 58.5945 127.336 56.588 127.294C54.5262 127.253 53.004 128.235 52.2014 130.117C51.897 130.85 51.4957 130.934 50.8591 130.864C47.6764 130.532 45.0887 129.162 43.0131 126.699C39.2215 122.188 39.2353 111.934 44.6736 107.575C46.9015 105.79 49.3923 104.489 52.0354 103.479C55.3841 102.192 58.3177 100.31 60.8777 97.8196C62.4137 96.3389 63.4515 96.6434 64.0742 98.7052C64.7108 100.809 63.9359 102.497 62.4137 103.908C61.9017 104.379 61.279 104.752 60.6979 105.126C60.3519 105.347 60.1305 105.624 60.2412 106.039C60.3657 106.496 60.7394 106.537 61.1268 106.537C61.3482 106.537 61.5696 106.537 61.791 106.537C65.887 106.537 69.9692 106.524 74.0652 106.537C76.0025 106.537 77.1925 107.949 76.7912 109.72C76.5145 110.924 75.5181 111.644 74.0237 111.644C70.9793 111.644 67.9212 111.644 64.8769 111.644C64.5863 111.644 64.2818 111.644 63.9912 111.644C63.5346 111.644 63.2717 111.893 63.2578 112.308C63.2578 112.723 63.5069 113 63.9497 113.014C64.2126 113.014 64.4755 113.014 64.7246 113.014C68.9313 113.014 73.1242 113.014 77.3309 113.027C78.7009 113.027 79.6003 113.692 79.9739 114.826C80.3199 115.864 79.9739 116.93 79.1298 117.622C78.604 118.037 78.009 118.161 77.3586 118.147C75.0477 118.147 72.7506 118.147 70.4397 118.147L70.4535 118.203ZM45.7253 120.126C45.67 122.852 47.7318 125.011 50.4163 125.011C52.9763 125.011 55.1073 122.935 55.135 120.375C55.1765 117.746 53.1008 115.587 50.4993 115.532C47.9532 115.477 45.7807 117.58 45.7253 120.126Z" fill="white"/>
<path d="M53.6264 130.393C55.1624 131.901 56.6293 133.354 58.0961 134.793C56.7261 135.623 55.3008 135.485 54.1661 134.406C53.0453 133.34 52.8377 131.818 53.6264 130.379V130.393Z" fill="#1C489B"/>
<path d="M54.8581 129.203C56.2142 128.414 57.681 128.58 58.7742 129.632C59.9089 130.725 60.0888 132.205 59.2447 133.686C57.7778 132.178 56.311 130.683 54.8442 129.189L54.8581 129.203Z" fill="white"/>
<path d="M45.7252 120.126C45.7806 117.58 47.9531 115.477 50.4993 115.532C53.1008 115.588 55.1765 117.746 55.1349 120.376C55.0934 122.936 52.9762 125.025 50.4162 125.011C47.7317 125.011 45.6837 122.853 45.7252 120.126ZM48.7004 122.977C49.9181 123.821 51.4402 123.752 52.5334 122.839C53.6543 121.912 54.0694 120.223 53.4882 119.019C53.2945 118.618 53.1423 118.535 52.7825 118.895C51.4403 120.265 50.0564 121.621 48.6865 122.977H48.7004ZM47.6902 122.064C49.0878 120.652 50.4855 119.269 51.8277 117.857C52.4089 117.248 51.6617 117.207 51.3849 117.11C50.1395 116.695 48.7003 117.138 47.8562 118.148C46.9153 119.269 46.8323 120.555 47.6764 122.064H47.6902Z" fill="#1C489B"/>
<path d="M48.7002 122.977C50.0701 121.607 51.4401 120.264 52.7962 118.894C53.1421 118.535 53.3082 118.618 53.5019 119.019C54.0693 120.223 53.668 121.911 52.5471 122.838C51.4539 123.751 49.9318 123.821 48.714 122.977H48.7002Z" fill="white"/>
<path d="M47.6901 122.064C46.846 120.556 46.9429 119.269 47.87 118.148C48.7003 117.138 50.1395 116.695 51.3987 117.11C51.6755 117.207 52.4227 117.235 51.8415 117.857C50.4854 119.269 49.1016 120.653 47.704 122.064H47.6901Z" fill="#1C489B"/>
<path d="M83.2118 60.3321C83.1703 60.083 83.281 59.917 83.4332 59.7371C84.8723 57.9658 86.27 56.1669 87.7229 54.4095C88.2903 53.7315 88.6224 53.0257 88.1381 52.1955C86.519 49.4141 86.7404 46.522 87.6122 43.5883C87.7091 43.2562 87.7645 42.8964 87.8475 42.5505C88.6224 40.2119 89.4942 37.901 90.8641 35.853C96.51 27.4673 104.37 23.7172 114.402 24.9764C120.934 25.7929 125.998 29.1693 129.486 34.8151C129.569 34.9397 129.624 35.0919 129.693 35.2164C129.665 35.853 129.61 36.5172 130.44 36.7248C131.534 38.7451 132.059 40.9453 132.433 43.187C132.599 44.1834 132.654 45.1935 132.765 46.1898C132.765 46.2867 132.765 46.3697 132.765 46.4666C132.779 46.7849 132.793 47.0893 132.807 47.4076C132.71 49.5248 132.654 51.642 132.281 53.7453C132.032 55.1844 131.561 56.5267 130.828 57.7859C130.177 58.5609 129.458 59.2943 129.361 60.3736C129.25 60.3736 129.153 60.3736 129.043 60.3736C128.586 59.9862 128.821 59.4188 128.697 58.9483C129.029 58.7546 129.375 58.547 129.195 58.0627C129.804 56.7343 130.579 55.4612 130.828 53.9944C131.45 50.3135 131.617 46.6327 130.938 42.938C130.745 41.9001 130.468 40.8623 130.233 39.8244C130.15 39.5062 130.537 39.0218 129.914 38.8835C129.693 37.9563 129.859 36.877 128.96 36.1851C128.78 36.0467 128.752 35.8668 128.711 35.6593C128.545 34.746 127.673 34.3585 127.175 33.6804C127.161 33.6528 127.078 33.6804 127.022 33.6804C126.981 33.6251 126.939 33.5697 126.884 33.5144C126.856 32.8087 126.372 32.2551 125.694 32.1444V32.1168C125.652 31.9922 125.611 31.8815 125.459 31.8677C125.403 31.8677 125.362 31.8262 125.348 31.7708C125.044 31.0789 124.67 30.4424 123.826 30.3178C123.757 30.1933 123.646 30.1795 123.521 30.1795C123.563 29.6813 123.231 29.709 122.899 29.7228C122.151 28.5604 121.114 27.9101 119.702 27.8962C116.644 26.637 113.475 25.9589 110.154 26.0835C108.244 26.1527 106.39 26.5124 104.536 26.9691C104.176 27.149 103.609 26.637 103.415 27.3289C102.945 27.1767 102.557 27.3704 102.17 27.5918C101.948 27.5918 101.851 27.7163 101.879 27.9239C100.551 27.9793 99.5681 28.7127 98.6548 29.5983L98.5441 29.7367C98.0598 29.6813 97.6862 29.8058 97.617 30.3594C96.9251 30.1518 96.9251 30.7883 96.676 31.1343C92.8153 34.4415 90.3244 38.5929 88.9545 43.4638C88.1657 46.3005 87.7783 49.0543 89.342 51.7942C89.9647 52.8874 89.7156 54.0359 88.8715 55.0461C87.5015 56.7066 86.1731 58.4087 84.8308 60.0969C83.9867 61.1624 84.388 62.2971 85.7164 62.5877C86.5882 62.7814 87.46 62.9336 88.3318 63.0997C88.9545 63.2104 89.4388 63.5425 89.425 64.1652C89.4111 65.037 89.3558 65.9364 88.7746 66.6975C88.055 67.6385 88.0689 67.7215 89.0652 68.3304C90.1722 69.0084 90.1861 69.1883 89.2728 70.1293C88.6086 70.8074 88.5947 70.835 89.3696 71.4439C90.1584 72.0528 90.4351 72.8277 90.1999 73.7963C89.5357 74.0869 89.5772 74.6266 89.7294 75.1801C89.7986 75.4154 89.9093 75.6368 89.9508 75.8997C90.1169 76.9098 90.5182 77.5464 91.6529 77.7539H91.7082L91.7636 77.7678C91.7636 78.2106 92.1095 78.6119 92.414 78.4597C92.8983 78.2106 93.4241 78.3213 93.8946 78.1137C94.3097 78.1137 94.7249 78.1137 95.14 78.1137C96.8421 78.4182 98.4749 78.1137 100.122 77.6848C100.938 77.4772 101.81 77.5325 102.654 77.408C103.207 77.325 103.415 77.3388 103.36 76.7715C103.567 76.6746 103.775 76.6608 103.982 76.7576C103.941 77.2696 104.481 77.6709 104.273 78.2244C104.19 78.1829 104.079 78.1552 104.024 78.0861C103.913 77.9062 104.038 77.5187 103.664 77.5741C103.29 77.6294 103.387 77.9754 103.36 78.2244C103.277 78.2659 103.18 78.3213 103.097 78.3628C102.239 78.0722 101.519 78.6396 100.731 78.7779C98.1982 79.2346 95.6797 79.6221 93.092 79.4145C90.6289 79.2208 88.9683 77.6986 88.6501 75.3738C88.5809 74.8065 88.6224 74.253 88.8161 73.7271C89.0098 73.1875 88.8853 72.7862 88.4286 72.4679C88.3041 72.3849 88.1934 72.2742 88.0689 72.1773C87.1141 71.3747 87.0172 70.8765 87.7091 69.8525C87.9582 69.4928 87.9859 69.3267 87.6261 69.0084C86.519 68.0121 86.4914 67.3479 87.4047 66.1994C87.5569 66.0056 87.7229 65.7981 87.806 65.5628C88.1658 64.6495 88.0689 64.5111 87.1141 64.3174C86.2285 64.1375 85.3428 63.9023 84.4572 63.6947C84.305 63.5425 84.1666 63.4041 84.0144 63.2519C84.0421 62.8506 84.0698 62.4631 84.0836 62.0618C84.0974 60.8303 83.9867 60.6365 83.1011 60.346L83.2118 60.3321Z" fill="#1C489B" stroke="#1A469D" stroke-width="0.345946" stroke-miterlimit="10"/>
<path d="M132.779 46.4665C132.779 46.3695 132.779 46.2864 132.779 46.1895C132.903 46.2726 132.917 46.3695 132.779 46.4665Z" fill="#1C489B" stroke="#1A469D" stroke-width="0.345946" stroke-miterlimit="10"/>
<path d="M104.093 76.7296C103.886 76.6327 103.678 76.6466 103.471 76.7434C100.758 77.3661 98.0463 77.9473 95.251 78.0857C94.8359 78.0857 94.4208 78.0857 94.0056 78.0857C93.2999 77.975 92.5942 77.8505 91.8746 77.7398H91.8193L91.7639 77.7259C90.394 76.7296 89.7851 75.4704 90.311 73.7821C90.5462 72.8135 90.2694 72.0524 89.4807 71.4297C88.7058 70.8208 88.7196 70.7932 89.3838 70.1151C90.3109 69.1741 90.2833 68.9943 89.1762 68.3162C88.1799 67.6935 88.1523 67.6243 88.8857 66.6833C89.4669 65.9361 89.5222 65.0366 89.536 64.151C89.536 63.5145 89.0655 63.1962 88.4428 63.0855C87.5711 62.9333 86.6993 62.7672 85.8275 62.5735C84.499 62.2829 84.0978 61.1344 84.9419 60.0827C86.2841 58.3945 87.6126 56.6924 88.9825 55.0319C89.8128 54.0217 90.0619 52.8593 89.453 51.78C87.8893 49.0401 88.2768 46.2864 89.0656 43.4496C90.4355 38.5787 92.9263 34.4273 96.7871 31.1201C97.133 30.9125 97.4513 30.6634 97.728 30.359C98.0325 30.1514 98.3507 29.9439 98.6552 29.7363C98.6967 29.6948 98.7243 29.6394 98.7659 29.5979C99.8452 29.0444 100.911 28.4771 101.99 27.9236C102.045 27.9236 102.087 27.9236 102.128 27.882C102.613 27.7298 103.097 27.5776 103.526 27.3147C103.914 27.2455 104.301 27.1625 104.647 26.9549C106.501 26.5121 108.355 26.1385 110.265 26.0693C113.586 25.9447 116.755 26.6228 119.813 27.882C120.879 28.4909 121.944 29.0998 123.01 29.7225C123.176 29.9162 123.37 30.0961 123.632 30.1791C123.688 30.2206 123.757 30.276 123.812 30.3175C124.366 30.8018 124.906 31.2861 125.459 31.7705C125.459 31.8258 125.501 31.8535 125.57 31.8673C125.639 31.9504 125.722 32.0334 125.791 32.1164L125.805 32.1441C126.206 32.6007 126.594 33.0574 126.995 33.514C127.037 33.5694 127.078 33.6247 127.133 33.6801C128.31 35.2991 129.209 37.0704 130.012 38.8831C130.067 39.2152 130.136 39.5473 130.33 39.8241C130.565 40.8619 130.842 41.8859 131.036 42.9376C131.7 46.6323 131.548 50.3132 130.925 53.994C130.676 55.4608 129.901 56.7339 129.292 58.0624C129.071 58.3253 128.905 58.6297 128.794 58.9618C128.656 59.1694 128.517 59.377 128.393 59.5984C126.898 62.2552 126.22 65.0781 126.359 68.1363C126.483 71.0976 126.58 74.0589 126.995 77.0064C127.009 77.1586 127.023 77.3246 127.037 77.4768C127.133 79.1927 127.438 80.881 127.645 82.583C127.645 83.1642 127.216 83.095 126.829 83.095C122.304 83.095 117.793 83.095 113.268 83.095C111.234 83.095 109.2 83.095 107.165 83.095C106.404 83.095 105.643 83.095 104.882 83.0812C104.785 81.2822 104.688 79.4833 104.592 77.6844C104.578 77.297 104.592 76.9095 104.121 76.7573L104.093 76.7296ZM92.2898 44.9026C92.0268 45.1101 92.013 45.3731 92.1375 45.6498C92.3451 46.1065 92.5665 46.5493 92.7879 47.0059C93.7981 49.2615 95.2372 51.1988 96.967 52.9424C98.7936 54.7966 100.897 56.2634 103.222 57.3843C103.222 57.4673 103.222 57.495 103.194 57.5088C102.986 57.6887 102.765 57.8548 102.557 58.0347C100.703 59.3216 99.3194 60.996 98.4614 63.0993C98.3784 63.3761 98.2954 63.6528 98.5998 63.8604C98.6967 63.9434 98.7797 64.068 98.8766 64.0818C100.98 64.5108 103.042 64.5246 105.034 63.5975C106.031 63.2931 106.916 62.7672 107.677 62.0615C108.259 61.8401 108.535 61.2035 109.117 60.9683C109.117 62.5043 109.255 64.0541 109.435 65.5763C109.518 66.2544 109.476 66.9878 109.933 67.5828V67.6243C110.127 67.9011 110.376 68.0118 110.708 67.8595C111.068 67.6797 111.151 67.3752 111.068 67.0293C110.639 65.092 110.625 63.0993 110.431 61.1344C110.431 61.079 110.445 61.0237 110.459 60.9821C110.985 61.079 111.151 61.674 111.649 61.8124C114.237 63.9158 117.17 64.5938 120.436 63.9019C121.335 63.7082 121.515 63.3207 121.1 62.4766C120.284 60.8022 119.107 59.4323 117.641 58.2838C117.198 57.9378 116.727 57.6195 116.229 57.2598C116.492 57.1214 116.672 57.0245 116.838 56.9277C121.488 54.34 124.836 50.5899 126.884 45.6775C127.369 44.5151 127.092 44.1553 125.819 44.1968C125.514 44.1968 125.21 44.2384 124.906 44.2799C121.986 44.6812 119.453 45.9681 117.101 47.6701C115.952 48.5004 114.915 49.4691 113.808 50.5069C113.96 49.1785 114.278 48.0023 114.237 46.7845C114.347 45.6221 114.333 44.4459 114.237 43.2836C114.237 43.0345 114.25 42.7716 114.223 42.5225C113.78 38.7447 112.521 35.2853 110.21 32.241C109.601 31.4384 109.158 31.4384 108.577 32.2548C106.778 34.801 105.602 37.5962 105.104 40.682C104.924 41.028 104.951 41.4016 104.979 41.7752C104.965 41.8721 104.938 41.9551 104.924 42.052C104.785 42.2042 104.785 42.3703 104.868 42.5363C104.868 42.6193 104.868 42.7024 104.854 42.7854C104.771 43.0068 104.785 43.2282 104.841 43.4496C104.758 44.7642 104.785 46.0788 104.993 47.3934C105.034 48.279 105.242 49.137 105.394 49.9949C105.422 50.1194 105.519 50.327 105.367 50.3962C105.284 50.4377 105.117 50.2855 104.979 50.2301C104.301 49.4414 103.443 48.8325 102.613 48.2237C100.509 46.6877 98.2539 45.4561 95.6662 44.9579C94.8774 44.695 94.0472 44.6258 93.2169 44.6397C92.8848 44.6397 92.4973 44.529 92.2483 44.9026H92.2898Z" fill="white" stroke="#1A469D" stroke-width="0.345946" stroke-miterlimit="10"/>
<path d="M127.604 82.5706C127.396 80.8685 127.092 79.1803 126.995 77.4644C127.161 77.5613 127.064 77.9072 127.382 77.8519C127.535 77.8242 127.576 77.6997 127.576 77.5613C127.576 76.4958 127.604 75.4303 127.535 74.3647C127.493 73.6728 127.133 73.0086 127.535 72.3167C127.59 72.2199 127.562 71.9708 127.479 71.8878C127.203 71.611 127.258 71.2789 127.258 70.9606C127.258 69.051 127.258 67.1552 127.258 65.2456C127.258 64.9135 127.258 64.6091 127.452 64.3046C127.715 63.8618 127.535 63.5159 126.912 63.2806C127.161 64.1524 126.552 64.7751 126.635 65.5639C126.829 67.7918 126.483 70.0197 126.898 72.2752C127.189 73.7974 126.953 75.4164 126.953 76.9801C126.552 74.0326 126.455 71.0713 126.317 68.11C126.179 65.0657 126.857 62.229 128.351 59.5721C128.476 59.3507 128.614 59.1431 128.752 58.9355C128.863 59.406 128.628 59.9734 129.098 60.3608C128.697 60.3885 128.268 60.4024 128.047 60.8175C127.936 61.0251 127.742 61.3157 128.005 61.4817C128.213 61.6201 128.545 61.6754 128.642 61.2465C128.669 61.1081 128.808 61.0389 128.932 61.0942C129.126 61.1911 129.029 61.3433 128.96 61.4817C128.849 61.7446 128.669 61.9384 128.42 62.0906C127.908 62.4227 127.798 62.9208 127.922 63.4882C127.977 63.7096 128.005 63.931 128.06 64.1524C127.493 66.2281 127.701 68.3314 127.798 70.4209C127.991 74.5169 128.393 78.5991 129.057 82.6536C129.14 83.1518 129.084 83.6361 128.489 83.7053C127.908 83.7745 127.701 83.3593 127.701 82.8335C127.701 82.7366 127.645 82.6398 127.604 82.5567V82.5706ZM128.185 79.72C128.185 79.5124 128.185 79.3187 128.185 79.1111C128.171 78.8759 128.282 78.5438 127.894 78.5299C127.493 78.5299 127.618 78.862 127.576 79.0973C127.396 80.315 127.839 81.4912 127.894 82.6813C127.908 82.9995 128.157 83.0826 128.434 83.0687C128.752 83.0687 128.78 82.8473 128.794 82.5982C128.794 82.2108 128.725 81.851 128.489 81.5327C128.489 81.1591 128.489 80.7993 128.489 80.4257C128.476 80.1628 128.642 79.803 128.199 79.7061L128.185 79.72Z" fill="#1C489B" stroke="#1A469D" stroke-width="0.345946" stroke-miterlimit="10"/>
<path d="M128.046 64.1515C128.005 63.9301 127.963 63.7087 127.908 63.4873C127.783 62.9199 127.908 62.4356 128.406 62.0896C128.641 61.9236 128.821 61.7299 128.946 61.4808C129.001 61.3424 129.112 61.1902 128.918 61.0933C128.794 61.038 128.655 61.0933 128.628 61.2455C128.531 61.6745 128.199 61.6053 127.991 61.4808C127.728 61.3147 127.922 61.0241 128.033 60.8166C128.254 60.4014 128.683 60.3876 129.084 60.3599C129.195 60.3599 129.292 60.3599 129.402 60.3599C129.499 60.2907 129.596 60.2215 129.693 60.1523C130.205 61.204 129.956 62.3387 130.011 63.4457C130.011 63.7225 129.901 64.0546 129.61 63.9577C129.043 63.7779 128.586 64.1376 128.06 64.1376L128.046 64.1515Z" fill="#1C489B" stroke="#1A469D" stroke-width="0.345946" stroke-miterlimit="10"/>
<path d="M84.125 63.2392C84.2772 63.3914 84.4295 63.5298 84.5678 63.682C83.9313 64.3047 83.1148 64.0556 82.4506 63.8896C81.6895 63.6958 81.8141 62.6857 82.672 61.8969C82.0355 61.6478 81.8971 61.1635 82.2707 60.6515C82.423 60.4578 82.7689 59.9458 83.1425 60.527C82.7689 61.6755 83.3362 62.492 84.1112 63.2392H84.125Z" fill="#1C489B" stroke="#1A469D" stroke-width="0.345946" stroke-miterlimit="10"/>
<path d="M84.125 63.238C83.3501 62.4907 82.7827 61.6743 83.1564 60.5258C83.1702 60.4566 83.1979 60.4012 83.2117 60.332C84.0974 60.6226 84.208 60.8164 84.1942 62.0479C84.1942 62.4492 84.1527 62.8367 84.125 63.238Z" fill="#1C489B" stroke="#1A469D" stroke-width="0.345946" stroke-miterlimit="10"/>
<path d="M129.679 60.1809C129.582 60.2501 129.486 60.3193 129.389 60.3885C129.472 59.2953 130.191 58.5619 130.855 57.8008C130.468 58.6034 130.067 59.3921 129.679 60.1947V60.1809Z" fill="#1C489B" stroke="#1A469D" stroke-width="0.345946" stroke-miterlimit="10"/>
<path d="M90.3109 73.7834C89.7851 75.4716 90.394 76.7447 91.7639 77.7271C90.6292 77.5196 90.2279 76.883 90.0618 75.8729C90.0203 75.6238 89.9097 75.4024 89.8405 75.1533C89.6744 74.5998 89.6329 74.0601 90.3109 73.7695V73.7834Z" fill="#1C489B" stroke="#1A469D" stroke-width="0.345946" stroke-miterlimit="10"/>
<path d="M128.738 58.9491C128.849 58.6167 129.015 58.312 129.237 58.0488C129.417 58.5336 129.071 58.7414 128.738 58.9491Z" fill="#1C489B" stroke="#1A469D" stroke-width="0.345946" stroke-miterlimit="10"/>
<path d="M105.145 40.6825C105.643 37.6105 106.819 34.8015 108.618 32.2553C109.199 31.425 109.642 31.425 110.251 32.2415C112.562 35.2858 113.821 38.7452 114.264 42.523C114.292 42.7721 114.264 43.035 114.278 43.2841C114.043 44.4464 114.07 45.6227 114.278 46.785C114.306 48.0028 114.001 49.179 113.849 50.5074C114.97 49.4557 115.994 48.4871 117.142 47.6707C119.495 45.9686 122.027 44.6955 124.947 44.2804C125.251 44.2389 125.556 44.2112 125.86 44.1974C127.133 44.1558 127.41 44.5295 126.926 45.678C124.878 50.5904 121.543 54.3405 116.879 56.9282C116.7 57.025 116.52 57.1219 116.271 57.2603C116.769 57.6201 117.225 57.9383 117.682 58.2843C119.149 59.419 120.325 60.8028 121.142 62.4771C121.557 63.3212 121.377 63.7087 120.477 63.9024C117.225 64.5943 114.292 63.9163 111.69 61.8129C111.607 61.2594 111.137 60.9827 110.763 60.6782C110.445 60.4291 110.542 60.8166 110.5 60.9826C110.5 61.038 110.486 61.0934 110.473 61.1349C110.251 61.1625 110.196 61.3009 110.182 61.5085C110.085 62.9891 110.639 64.4283 110.542 65.9228C110.542 65.9919 110.597 66.0611 110.625 66.1303C110.943 66.9606 110.791 67.2927 109.961 67.6386V67.5971C109.933 66.1995 109.407 64.8434 109.559 63.4181C109.615 62.8508 109.352 62.2972 109.532 61.7022C109.601 61.4946 109.532 61.0795 109.13 60.9826C108.549 61.2179 108.272 61.8544 107.691 62.0758C106.972 62.1035 106.377 62.5048 105.865 62.9199C105.602 63.1414 105.034 63.086 105.034 63.6257C103.983 63.515 103.983 63.6395 103.222 63.8332C102.71 63.9578 102.239 64.3037 101.644 64.2069C100.634 64.0408 99.6237 63.8471 98.5858 63.8886C98.2814 63.681 98.3645 63.4043 98.4475 63.1275C98.918 62.9615 99.3746 62.8508 99.7344 63.3489C99.8036 63.4458 99.9281 63.5565 100.053 63.4735C100.592 63.1137 101.187 63.3489 101.755 63.2936C102.142 63.2521 102.585 63.3766 102.848 62.9476C103.235 62.8369 103.623 62.7124 103.996 62.6017C105.782 62.0482 107.151 60.9135 108.438 59.6265C108.771 59.6957 108.964 59.502 109.103 59.2391C109.435 58.6302 109.822 58.5057 110.362 59.0177C110.459 59.1145 110.639 59.1284 110.777 59.1699C110.722 59.5989 111.012 59.7096 111.331 59.7788C111.58 60.0002 111.829 60.2077 112.078 60.4291C114.236 62.2557 116.672 63.1414 119.536 62.6709C119.481 62.2834 119.26 62.0343 119.066 61.7714C117.876 60.097 116.34 58.8378 114.472 57.9937C114.14 57.8415 113.904 57.6339 113.877 57.2741C113.849 56.9282 114.084 56.7068 114.389 56.5961C117.391 55.3783 119.855 53.4272 122.041 51.0886C122.636 51.0332 122.678 50.3967 123.023 50.1061C123.356 49.8294 123.729 49.6218 123.577 49.0959C123.812 49.0821 123.923 48.9852 123.798 48.75H123.812C124.587 48.5563 124.822 48.1688 124.781 47.1033C125.238 46.702 125.666 46.3007 125.307 45.6088C124.905 45.6918 124.518 45.761 124.117 45.8579C120.491 46.7158 117.585 48.8054 114.998 51.3792C114.264 52.1126 113.6 52.9152 112.908 53.6901C112.645 53.9945 112.313 54.1329 111.953 53.9392C111.593 53.7455 111.524 53.3995 111.676 53.0259C111.718 52.9152 111.759 52.7907 111.787 52.6661C113.074 48.5701 113.378 44.4049 112.438 40.1982C111.912 37.8043 110.929 35.6041 109.435 33.5561C108.009 35.7009 107.055 37.9427 106.626 40.3919C106.183 40.7379 105.602 40.4888 105.145 40.7241V40.6825Z" fill="#1C489B" stroke="#1A469D" stroke-width="0.345946" stroke-miterlimit="10"/>
<path d="M102.543 58.0364C102.751 57.8565 102.972 57.6905 103.18 57.5106C103.194 57.5106 103.18 57.4691 103.207 57.386C100.897 56.2513 98.7794 54.7845 96.9528 52.9441C95.2369 51.2005 93.784 49.2632 92.7738 47.0076C92.8983 46.2327 92.2618 45.6515 92.2756 44.9043C93.4103 44.9181 94.545 44.9458 95.6798 44.9596C98.2674 45.4578 100.523 46.6894 102.626 48.2254C103.457 48.8342 104.315 49.4431 104.993 50.2319C104.923 50.7577 105.131 50.7992 105.518 50.5363C105.754 50.3702 105.851 50.1212 105.892 49.8444C106.1 49.8167 106.349 49.8859 106.266 49.4846C106.196 49.1525 106.224 48.7927 106.196 48.4606L106.501 48.6128C106.501 49.0972 106.39 49.6092 106.515 50.052C106.681 50.6608 106.515 51.4358 107.248 51.8094C107.373 51.9478 107.4 52.1 107.4 52.2799C107.304 52.778 107.677 53.5806 107.193 53.7052C106.653 53.8435 106.155 53.1655 105.906 52.6258C105.712 52.2107 105.463 52.1415 105.089 52.1276L105.062 52.0861C105.02 51.8924 105.02 51.5741 104.91 51.5326C104.204 51.2559 103.844 50.5778 103.249 50.1765C103.18 50.135 103.055 50.1765 102.958 50.1765C102.986 49.8306 102.751 49.8444 102.516 49.8444C99.9279 47.9209 97.1881 46.3849 93.7148 46.0252C94.2406 46.9523 94.6696 47.7826 95.1539 48.5575C96.7453 51.076 98.8486 53.0963 101.298 54.7845C101.326 54.9782 101.436 55.0336 101.616 55.0198C102.128 55.8915 102.931 56.362 103.899 56.5419C104.231 56.6111 104.55 56.6941 104.799 56.8879C104.979 57.0401 105.311 57.1508 105.283 57.4137C105.269 57.6905 104.937 57.732 104.702 57.8288C104.453 57.9257 104.19 58.0364 103.996 58.2578C103.581 58.756 103 58.8252 102.419 58.922C102.446 58.5899 102.46 58.3132 102.474 58.0364H102.543Z" fill="#1C489B" stroke="#1A469D" stroke-width="0.345946" stroke-miterlimit="10"/>
<path d="M102.543 58.0362C102.53 58.3129 102.502 58.5759 102.488 58.9218C103.069 58.8249 103.65 58.7419 104.066 58.2576C104.259 58.0362 104.522 57.9255 104.771 57.8286C105.007 57.7317 105.325 57.7041 105.353 57.4135C105.366 57.1506 105.048 57.0399 104.868 56.8876C104.619 56.6801 104.301 56.597 103.969 56.5417C103 56.3618 102.197 55.8913 101.685 55.0195C102.848 55.6284 103.996 56.2511 105.214 56.7493C105.837 56.9983 105.837 57.6072 105.283 57.9808C105.048 58.133 104.799 58.2437 104.55 58.3821C102.82 59.3508 101.423 60.6792 100.371 62.3674C100.108 62.7826 100.094 62.9901 100.675 62.9763C101.409 62.9486 102.142 62.9486 102.876 62.9348C102.613 63.3637 102.17 63.2392 101.782 63.2807C101.215 63.3361 100.62 63.1008 100.08 63.4606C99.9558 63.5436 99.8312 63.4468 99.762 63.3361C99.4022 62.8379 98.9456 62.9486 98.4751 63.1147C99.333 61.0113 100.703 59.3369 102.571 58.05L102.543 58.0362Z" fill="#1C489B" stroke="#1A469D" stroke-width="0.345946" stroke-miterlimit="10"/>
<path d="M126.953 76.9924C126.953 75.4149 127.188 73.7959 126.898 72.2876C126.469 70.0458 126.829 67.8041 126.635 65.5762C126.566 64.7875 127.175 64.1648 126.912 63.293C127.534 63.5282 127.714 63.8603 127.451 64.317C127.271 64.6352 127.258 64.9397 127.258 65.2579C127.258 67.1676 127.258 69.0633 127.258 70.973C127.258 71.2912 127.202 71.6233 127.479 71.9001C127.562 71.9831 127.59 72.2184 127.534 72.3291C127.119 73.021 127.479 73.699 127.534 74.3771C127.604 75.4426 127.562 76.5081 127.576 77.5736C127.576 77.6982 127.534 77.8365 127.382 77.8642C127.078 77.9196 127.161 77.5736 126.995 77.4768C126.981 77.3245 126.967 77.1585 126.953 77.0063V76.9924Z" fill="#1C489B" stroke="#1A469D" stroke-width="0.345946" stroke-miterlimit="10"/>
<path d="M109.96 67.6249C110.791 67.2789 110.943 66.933 110.625 66.1166C110.597 66.0474 110.542 65.9782 110.542 65.909C110.652 64.4145 110.099 62.9892 110.182 61.4947C110.182 61.301 110.251 61.1488 110.472 61.1211C110.666 63.0861 110.68 65.0787 111.109 67.016C111.178 67.362 111.109 67.6802 110.749 67.8463C110.417 68.0123 110.168 67.9016 109.974 67.611L109.96 67.6249Z" fill="#1C489B" stroke="#1A469D" stroke-width="0.345946" stroke-miterlimit="10"/>
<path d="M98.5996 63.8611C99.6374 63.8196 100.648 64.0133 101.658 64.1794C102.253 64.2763 102.723 63.9441 103.235 63.8058C103.983 63.612 103.996 63.4875 105.048 63.5982C103.055 64.5253 100.994 64.5115 98.8902 64.0825C98.7795 64.0548 98.6965 63.9303 98.6135 63.8611H98.5996Z" fill="#1C489B" stroke="#1A469D" stroke-width="0.345946" stroke-miterlimit="10"/>
<path d="M104.868 43.4506C104.813 43.2292 104.799 43.0078 104.882 42.7864C105.353 42.4266 105.823 42.0668 106.294 41.707C106.363 41.9838 106.446 42.2744 106.197 42.5235C105.948 42.7034 105.712 42.8971 105.782 43.243C105.823 43.4921 106.031 43.4229 106.197 43.4091C106.197 43.589 106.197 43.755 106.183 43.9349C106.1 44.0318 106.003 44.1148 105.92 44.2117C105.712 44.2117 105.505 44.2117 105.297 44.2117C105.159 43.9626 105.007 43.7135 104.868 43.4783V43.4506Z" fill="#1C489B" stroke="#1A469D" stroke-width="0.345946" stroke-miterlimit="10"/>
<path d="M109.13 60.9688C109.532 61.0518 109.587 61.4808 109.532 61.6883C109.338 62.2833 109.615 62.8507 109.559 63.4042C109.421 64.8295 109.933 66.1718 109.961 67.5832C109.504 66.9882 109.545 66.2548 109.462 65.5767C109.269 64.0546 109.144 62.5186 109.144 60.9688H109.13Z" fill="#1C489B" stroke="#1A469D" stroke-width="0.345946" stroke-miterlimit="10"/>
<path d="M104.868 43.4513C105.006 43.7004 105.159 43.9495 105.297 44.1847C105.297 45.2503 105.297 46.3158 105.297 47.3813C105.214 47.3813 105.117 47.3813 105.034 47.3813C104.827 46.0805 104.799 44.7659 104.882 43.4375L104.868 43.4513Z" fill="#1C489B" stroke="#1A469D" stroke-width="0.345946" stroke-miterlimit="10"/>
<path d="M105.034 47.3945C105.117 47.3945 105.214 47.3945 105.297 47.3945C105.671 47.4499 105.602 47.7405 105.602 47.9757C105.602 48.4047 105.602 48.8337 105.602 49.2626C105.602 49.4979 105.533 49.7885 105.906 49.8438C105.879 50.1206 105.782 50.3697 105.533 50.5357C105.159 50.7986 104.938 50.7571 105.007 50.2313C105.131 50.3005 105.297 50.4389 105.394 50.3973C105.546 50.3282 105.45 50.1344 105.422 49.996C105.256 49.1381 105.062 48.2802 105.021 47.3945H105.034Z" fill="#1C489B" stroke="#1A469D" stroke-width="0.345946" stroke-miterlimit="10"/>
<path d="M105.145 40.6837C105.616 40.4484 106.183 40.6975 106.626 40.3516C106.543 40.6837 106.612 41.0711 106.28 41.3064C105.754 41.1818 105.602 42.0536 105.007 41.7769C104.993 41.4032 104.951 41.0296 105.131 40.6837H105.145Z" fill="#1C489B" stroke="#1A469D" stroke-width="0.345946" stroke-miterlimit="10"/>
<path d="M105.048 63.6123C105.048 63.0727 105.601 63.128 105.878 62.9066C106.39 62.4915 106.985 62.0902 107.705 62.0625C106.93 62.7682 106.058 63.2941 105.062 63.6123H105.048Z" fill="#1C489B" stroke="#1A469D" stroke-width="0.345946" stroke-miterlimit="10"/>
<path d="M105.02 41.7757C105.601 42.0525 105.767 41.1807 106.293 41.3052C106.293 41.4436 106.293 41.5681 106.293 41.7065C105.823 42.0663 105.352 42.4261 104.882 42.7859C104.882 42.7029 104.882 42.6198 104.896 42.5368C104.993 42.3846 104.993 42.2185 104.951 42.0525L105.006 41.7757H105.02Z" fill="#1C489B" stroke="#1A469D" stroke-width="0.345946" stroke-miterlimit="10"/>
<path d="M95.6936 44.9586C94.5589 44.9448 93.4243 44.9171 92.2896 44.9032C92.5386 44.5296 92.9123 44.6403 93.2582 44.6403C94.0885 44.6403 94.9187 44.6957 95.7075 44.9586H95.6936Z" fill="#1C489B" stroke="#1A469D" stroke-width="0.345946" stroke-miterlimit="10"/>
<path d="M92.2756 44.9043C92.2756 45.6515 92.8983 46.2327 92.7738 47.0076C92.5523 46.551 92.3309 46.1082 92.1234 45.6515C91.9988 45.3748 92.0127 45.1119 92.2756 44.9043Z" fill="#1C489B" stroke="#1A469D" stroke-width="0.345946" stroke-miterlimit="10"/>
<path d="M114.278 46.7861C114.07 45.6237 114.056 44.4475 114.278 43.2852C114.361 44.4475 114.374 45.6237 114.278 46.7861Z" fill="#1C489B" stroke="#1A469D" stroke-width="0.345946" stroke-miterlimit="10"/>
<path d="M110.5 60.97C110.542 60.8178 110.445 60.4165 110.763 60.6655C111.137 60.97 111.607 61.2329 111.69 61.8002C111.192 61.6619 111.026 61.0668 110.5 60.97Z" fill="#1C489B" stroke="#1A469D" stroke-width="0.345946" stroke-miterlimit="10"/>
<path d="M104.965 42.0527C105.007 42.2189 105.007 42.3851 104.91 42.5375C104.841 42.3713 104.841 42.2051 104.965 42.0527Z" fill="#1C489B" stroke="#1A469D" stroke-width="0.345946" stroke-miterlimit="10"/>
<path d="M106.293 41.7076C106.293 41.5692 106.293 41.4447 106.293 41.3063C106.625 41.0711 106.556 40.6836 106.639 40.3515C107.068 37.8884 108.023 35.6605 109.448 33.5156C110.943 35.5636 111.925 37.7638 112.451 40.1578C113.378 44.3645 113.088 48.5297 111.801 52.6257C111.759 52.7502 111.732 52.8748 111.69 52.9855C111.538 53.3729 111.607 53.7189 111.967 53.8988C112.327 54.0925 112.645 53.9541 112.922 53.6497C113.613 52.8748 114.278 52.0722 115.011 51.3388C117.599 48.7649 120.505 46.6754 124.13 45.8175C124.518 45.7206 124.919 45.6514 125.32 45.5684C125.389 46.1496 124.877 46.537 124.794 47.0629C124.476 47.6025 124.144 48.1561 123.826 48.6957H123.812C123.743 48.8064 123.66 48.931 123.577 49.0417C123.065 49.7059 122.553 50.3701 122.041 51.0205C119.854 53.3591 117.377 55.3102 114.388 56.5279C114.098 56.6525 113.849 56.8601 113.876 57.206C113.904 57.5658 114.139 57.7734 114.471 57.9256C116.34 58.7835 117.862 60.0289 119.066 61.7033C119.259 61.9662 119.481 62.2153 119.536 62.6028C116.672 63.0732 114.236 62.1876 112.077 60.361C111.828 60.1535 111.579 59.9321 111.33 59.7106C111.15 59.5031 110.957 59.3094 110.777 59.1018C109.974 57.8564 109.725 57.8425 108.839 59.0049C108.701 59.1848 108.576 59.3785 108.452 59.5584C107.165 60.8454 105.781 61.9801 104.01 62.5336C103.623 62.6581 103.235 62.7688 102.861 62.8795C102.128 62.8934 101.395 62.8934 100.661 62.921C100.08 62.9487 100.094 62.7411 100.357 62.3122C101.408 60.6101 102.806 59.2955 104.536 58.3269C104.785 58.1885 105.034 58.0778 105.269 57.9256C105.823 57.5519 105.823 56.9431 105.2 56.694C103.982 56.1958 102.834 55.5731 101.671 54.9643C101.561 54.8812 101.464 54.8121 101.353 54.729C98.9038 53.0408 96.8005 51.0205 95.2091 48.502C94.711 47.7271 94.2959 46.8968 93.77 45.9697C97.2433 46.3295 99.9832 47.8793 102.571 49.7889C102.682 49.9411 102.82 50.0657 103.014 50.121C103.623 50.8544 104.397 51.4356 105.131 52.0445L105.159 52.086C105.657 52.6534 106.155 53.2207 106.667 53.7742C106.916 54.051 107.22 54.134 107.539 53.9126C107.843 53.705 107.954 53.4144 107.815 53.0546C107.705 52.7779 107.58 52.5011 107.469 52.2244C107.469 52.0583 107.442 51.8923 107.317 51.7539C107.068 50.6884 106.805 49.6229 106.556 48.5574C106.376 47.1459 106.224 45.7206 106.224 44.2953C106.224 44.1569 106.224 44.0185 106.224 43.8802C106.224 43.7003 106.224 43.5342 106.238 43.3543C106.238 43.0637 106.238 42.7593 106.238 42.4687C106.487 42.2196 106.404 41.9429 106.335 41.6523L106.293 41.7076Z" fill="white" stroke="#1A469D" stroke-width="0.345946" stroke-miterlimit="10"/>
<path d="M108.452 59.5862C108.577 59.4063 108.701 59.2126 108.84 59.0327C109.739 57.8703 109.974 57.8842 110.777 59.1296C110.639 59.0742 110.459 59.0742 110.362 58.9773C109.822 58.4792 109.435 58.6037 109.103 59.1988C108.964 59.4617 108.771 59.6554 108.438 59.5862H108.452Z" fill="#1C489B" stroke="#1A469D" stroke-width="0.345946" stroke-miterlimit="10"/>
<path d="M123.84 48.709C124.158 48.1694 124.49 47.6158 124.809 47.0762C124.85 48.1417 124.615 48.5291 123.84 48.709Z" fill="#1C489B" stroke="#1A469D" stroke-width="0.345946" stroke-miterlimit="10"/>
<path d="M122.055 51.0472C122.567 50.383 123.079 49.7187 123.591 49.0684C123.757 49.5942 123.369 49.8018 123.037 50.0785C122.677 50.3691 122.65 51.0057 122.055 51.061V51.0472Z" fill="#1C489B" stroke="#1A469D" stroke-width="0.345946" stroke-miterlimit="10"/>
<path d="M124.794 47.0765C124.864 46.5368 125.389 46.1632 125.32 45.582C125.68 46.2739 125.265 46.6752 124.794 47.0765Z" fill="#1C489B" stroke="#1A469D" stroke-width="0.345946" stroke-miterlimit="10"/>
<path d="M110.791 59.1426C110.971 59.3503 111.165 59.5442 111.345 59.752C111.026 59.6689 110.736 59.5719 110.791 59.1426Z" fill="#1C489B" stroke="#1A469D" stroke-width="0.345946" stroke-miterlimit="10"/>
<path d="M123.591 49.0689C123.674 48.9581 123.743 48.8335 123.826 48.7227C123.937 48.972 123.826 49.0551 123.591 49.0689Z" fill="#1C489B" stroke="#1A469D" stroke-width="0.345946" stroke-miterlimit="10"/>
<path d="M105.906 49.8431C105.532 49.7878 105.615 49.4972 105.601 49.2619C105.601 48.8329 105.601 48.404 105.601 47.975C105.601 47.7398 105.67 47.4492 105.297 47.3938C105.297 46.3283 105.297 45.2628 105.297 44.1973C105.504 44.1973 105.712 44.1973 105.92 44.1973C105.92 44.2388 105.92 44.2941 105.92 44.3356C105.892 45.7194 105.878 47.0894 106.224 48.4455C106.238 48.7914 106.224 49.1374 106.293 49.4695C106.376 49.8569 106.127 49.8016 105.92 49.8293L105.906 49.8431Z" fill="#1C489B" stroke="#1A469D" stroke-width="0.345946" stroke-miterlimit="10"/>
<path d="M107.442 52.279C107.553 52.5558 107.678 52.8325 107.788 53.1093C107.927 53.4691 107.816 53.7597 107.511 53.9672C107.193 54.1886 106.875 54.0918 106.64 53.8288C106.128 53.2753 105.643 52.708 105.131 52.1406C105.505 52.1406 105.754 52.2237 105.948 52.6388C106.197 53.1785 106.695 53.8427 107.235 53.7181C107.733 53.5936 107.345 52.791 107.442 52.2928V52.279Z" fill="#1C489B" stroke="#1A469D" stroke-width="0.345946" stroke-miterlimit="10"/>
<path d="M106.224 48.4594C105.878 47.1033 105.892 45.7334 105.92 44.3496C106.017 44.3496 106.1 44.3496 106.197 44.3496C106.197 45.7749 106.363 47.2002 106.529 48.6117C106.432 48.5563 106.321 48.5148 106.224 48.4594Z" fill="#1C489B" stroke="#1A469D" stroke-width="0.345946" stroke-miterlimit="10"/>
<path d="M106.529 48.6113C106.778 49.6768 107.041 50.7424 107.29 51.8079C106.556 51.4342 106.722 50.6455 106.556 50.0505C106.432 49.6077 106.529 49.0957 106.543 48.6113H106.529Z" fill="#1C489B" stroke="#1A469D" stroke-width="0.345946" stroke-miterlimit="10"/>
<path d="M105.104 52.0845C104.37 51.4756 103.609 50.9083 102.986 50.161C103.083 50.161 103.208 50.1195 103.277 50.161C103.872 50.5485 104.232 51.2265 104.937 51.5171C105.048 51.5586 105.048 51.8769 105.09 52.0706L105.104 52.0845Z" fill="#1C489B" stroke="#1A469D" stroke-width="0.345946" stroke-miterlimit="10"/>
<path d="M102.987 50.1762C102.807 50.1208 102.654 49.9961 102.543 49.8438C102.779 49.8438 103.014 49.8437 102.987 50.1762Z" fill="#1C489B" stroke="#1A469D" stroke-width="0.345946" stroke-miterlimit="10"/>
<path d="M101.339 54.7695C101.45 54.8526 101.547 54.9219 101.658 55.005C101.492 55.005 101.367 54.9634 101.339 54.7695Z" fill="#1C489B" stroke="#1A469D" stroke-width="0.345946" stroke-miterlimit="10"/>
<path d="M106.197 42.5234C106.197 42.8143 106.197 43.119 106.197 43.4099C106.031 43.4099 105.823 43.4791 105.782 43.2437C105.726 42.8974 105.948 42.7035 106.197 42.5234Z" fill="#1C489B" stroke="#1A469D" stroke-width="0.345946" stroke-miterlimit="10"/>
<path d="M106.197 44.3511C106.1 44.3511 106.017 44.3511 105.92 44.3511C105.92 44.3095 105.92 44.2541 105.92 44.2126C106.003 44.1156 106.1 44.0325 106.183 43.9355C106.183 44.0741 106.183 44.2126 106.183 44.3511H106.197Z" fill="#1C489B" stroke="#1A469D" stroke-width="0.345946" stroke-miterlimit="10"/>
<path d="M115.108 168.641C115.136 158.525 115.108 148.396 115.233 138.28C115.302 133.202 117.654 129.258 122.207 126.989C126.69 124.747 131.243 124.982 135.464 127.819C138.688 129.992 140.487 133.077 140.86 136.966C140.957 138.045 140.902 139.111 141.483 140.135C142.41 141.809 143.337 142.57 145.454 141.698C150.353 139.65 155.39 137.893 160.593 135.928C158.531 133.88 160.04 132.745 161.797 131.68C163.153 130.863 164.509 130.047 165.865 129.244C169.795 128.898 172.632 130.476 174.97 133.672C179.537 139.927 184.38 145.974 189.085 152.146C192.406 156.491 191.95 160.725 187.646 164.088C186.068 165.32 185.556 166.662 185.556 168.613C185.556 173.954 182.374 177.096 177.005 177.137C168.854 177.206 160.704 177.206 152.539 177.137C146.478 177.082 142.673 172.211 143.808 166.288C144.071 164.891 144.901 164.863 145.939 164.863C148.817 164.863 151.709 164.877 154.587 164.821C155.57 164.794 156.912 165.306 157.175 163.631C157.438 161.929 155.943 162.386 155.169 161.846C152.526 159.978 150.284 161.473 147.918 162.303C147.17 162.566 146.478 162.981 145.717 163.202C144.223 163.645 142.036 163.548 141.345 164.531C140.251 166.081 141.026 168.364 140.943 170.343C140.874 172.128 140.916 173.927 140.888 175.712C140.888 176.265 141.026 176.999 140.113 176.999C139.49 176.999 139.2 176.528 139.255 176.016C139.504 173.871 138.148 173.954 136.654 173.954C130.883 173.996 125.113 173.996 119.356 173.954C117.931 173.954 116.713 173.954 116.962 175.919C117.018 176.39 116.935 176.957 116.243 176.985C115.454 177.013 115.246 176.418 115.233 175.809C115.163 173.429 115.136 171.035 115.094 168.655L115.108 168.641ZM138.522 144.701C138.743 144.632 138.964 144.563 139.172 144.494C139.172 142.335 139.255 140.162 139.158 138.018C138.881 131.887 134.218 127.376 128.185 127.349C122.124 127.321 117.115 132.012 117.032 138.17C116.907 148.797 117.032 159.439 116.949 170.066C116.949 171.796 117.488 172.239 119.149 172.211C124.407 172.114 129.679 172.169 134.951 172.169C139.2 172.169 139.283 172.169 139.144 167.935C139.089 166.261 139.975 164.379 138.217 162.953C133.111 158.816 128.918 153.737 124.186 149.212C123.674 148.728 122.29 148.119 123.383 147.164C124.324 146.334 124.947 147.496 125.542 148.091C129.403 151.952 133.332 155.758 137.083 159.729C139.449 162.234 142.009 162.787 145.136 161.473C147.779 160.352 150.491 159.397 153.176 158.345C157.134 156.795 158.194 154.092 156.359 150.236C156.276 150.056 156.206 149.863 156.137 149.683C155.708 148.534 155.127 148.285 153.882 148.811C150.879 150.098 147.779 151.163 144.707 152.298C143.586 152.713 142.493 153.142 141.538 151.828C138.577 147.732 135.519 143.677 132.544 139.581C132.198 139.097 131.451 138.433 132.322 137.81C133.153 137.201 133.54 137.99 133.941 138.53C135.464 140.578 136.986 142.626 138.508 144.687L138.522 144.701ZM167.457 131.071C165.741 130.808 164.371 132.012 162.89 133.022C161.797 133.769 161.921 134.378 162.696 135.375C169.74 144.48 176.756 153.627 183.73 162.801C184.505 163.825 185.031 163.88 186.11 163.133C189.805 160.601 190.497 156.865 187.674 153.156C182.747 146.68 177.738 140.245 172.77 133.797C171.497 132.15 169.92 131.043 167.47 131.057L167.457 131.071ZM164.592 166.565C164.592 166.565 164.592 166.523 164.592 166.51C159.14 166.51 153.674 166.648 148.236 166.454C145.759 166.357 145.413 167.395 145.662 169.416C146.091 172.903 148.111 175.255 151.598 175.311C160.427 175.449 169.256 175.435 178.07 175.255C181.599 175.186 183.619 172.529 183.799 168.917C183.882 167.188 183.536 166.482 181.571 166.537C175.925 166.69 170.266 166.593 164.606 166.593L164.592 166.565ZM140.902 142.847C140.902 144.604 140.833 145.767 140.916 146.929C141.137 149.821 143.005 151.053 145.621 150.084C148.776 148.908 151.889 147.663 155.044 146.528C156.497 146.016 157.825 145.49 156.58 143.719C155.625 142.349 156.082 139.097 152.622 140.73C150.132 141.906 147.419 142.626 144.873 143.691C143.489 144.272 142.272 144.577 140.888 142.847H140.902ZM154.601 160.186C161.313 160.186 167.18 160.213 173.061 160.172C174.555 160.172 174.334 158.94 174.362 157.986C174.389 157.086 174.486 156.159 173.144 156.076C166.889 155.647 160.856 156.214 154.615 160.2L154.601 160.186ZM168.273 164.904C170.847 164.904 173.421 164.877 175.981 164.904C177.143 164.918 177.876 164.669 177.793 163.272C177.724 162.068 177.06 161.777 176.05 161.791C171.013 161.846 165.976 161.915 160.939 161.957C159.901 161.957 158.863 161.929 158.849 163.368C158.836 164.738 159.749 164.918 160.856 164.904C163.333 164.877 165.796 164.904 168.273 164.904ZM166.945 143.788C166.419 145.144 164.495 145.974 165.533 147.566C166.654 149.282 166.82 151.08 166.128 152.949C165.768 153.903 166.059 154.222 166.972 154.235C169.394 154.235 171.815 154.235 174.887 154.235C171.94 150.361 169.435 147.067 166.945 143.788ZM160.925 146.625C157.77 146.611 157.106 147.579 158.185 150.084C158.614 151.08 159.029 152.077 159.486 153.059C160.621 155.509 162.254 155.688 163.886 153.502C164.924 152.118 165.063 150.555 164.357 149.032C163.651 147.483 162.309 146.694 160.911 146.625H160.925ZM164.744 142.626C164.703 139.83 162.835 137.962 160.33 138.239C159.043 138.377 156.967 138.018 156.995 140.176C157.023 142.916 160.206 145.559 162.945 145.282C164.703 145.116 164.537 143.58 164.744 142.612V142.626ZM176.686 156.463C176.424 157.889 175.427 159.701 176.686 160.006C179.094 160.601 179.634 161.957 179.62 164.074C179.62 164.821 180.257 164.987 180.921 164.918C181.405 164.863 182.083 164.987 182.346 164.725C182.886 164.171 182.277 163.645 181.931 163.189C180.201 160.947 178.444 158.705 176.7 156.463H176.686Z" fill="#1C489B" stroke="#1A469D" stroke-width="0.345946" stroke-miterlimit="10"/>
<path d="M117.419 103.134C116.423 101.127 117.018 100.145 119.287 100.145C126.538 100.158 133.789 100.158 141.04 100.145C142.853 100.145 143.863 100.657 142.728 102.58C141.206 105.14 139.919 107.548 142.908 110.094C143.863 110.91 143.406 112.1 141.953 111.948C139.975 111.741 140.016 113.055 139.753 114.328C138.563 120.251 133.678 124.098 128.102 123.572C121.93 122.991 117.751 118.48 117.945 112.17C118.028 109.471 117.571 106.842 117.543 104.171C117.945 104.268 118.498 104.697 118.637 103.95C118.706 103.549 118.567 102.954 118.291 102.677C118 102.4 117.64 102.788 117.433 103.106L117.419 103.134ZM119.342 106.51C120.643 107.396 118.332 110.135 121.1 110.163C127.41 110.246 133.72 110.191 140.805 110.191C138.093 107.866 138.701 105.887 140.044 103.853C140.404 103.3 141.22 102.552 140.196 101.805C139.809 101.252 139.227 101.196 138.619 101.196C132.848 101.196 127.078 101.141 121.307 101.21C120.685 101.21 119.439 100.117 119.329 101.874C118.734 103.037 119.495 104.227 119.259 105.389C118.235 106.704 118.83 108.129 118.747 109.983C119.591 108.586 119.121 107.492 119.342 106.496V106.51ZM128.891 111.99C126.414 111.99 123.937 112.031 121.46 111.976C119.993 111.934 119.633 112.474 119.785 113.927C120.242 118.175 124.296 121.842 128.794 121.842C133.526 121.842 137.761 117.982 138.106 113.512C138.203 112.197 137.691 111.976 136.64 111.99C134.066 112.004 131.478 111.99 128.904 111.99H128.891Z" fill="#1C489B" stroke="#1A469D" stroke-width="0.345946" stroke-miterlimit="10"/>
<path d="M138.522 144.702C136.999 142.654 135.477 140.593 133.955 138.545C133.554 138.005 133.166 137.216 132.336 137.825C131.464 138.461 132.211 139.112 132.557 139.596C135.533 143.692 138.577 147.733 141.552 151.843C142.507 153.171 143.6 152.728 144.721 152.313C147.793 151.178 150.893 150.113 153.895 148.826C155.141 148.3 155.722 148.549 156.151 149.698C156.22 149.878 156.289 150.071 156.372 150.251C158.199 154.107 157.138 156.81 153.19 158.36C150.519 159.412 147.807 160.367 145.15 161.488C142.022 162.802 139.463 162.249 137.096 159.744C133.346 155.773 129.43 151.967 125.555 148.106C124.96 147.511 124.338 146.349 123.397 147.179C122.304 148.134 123.687 148.743 124.199 149.227C128.932 153.752 133.125 158.831 138.231 162.968C139.988 164.407 139.103 166.289 139.158 167.95C139.296 172.184 139.213 172.184 134.965 172.184C129.693 172.184 124.435 172.129 119.162 172.226C117.502 172.253 116.948 171.811 116.962 170.081C117.031 159.453 116.907 148.812 117.045 138.185C117.114 132.027 122.124 127.322 128.199 127.364C134.232 127.391 138.895 131.902 139.172 138.033C139.269 140.191 139.186 142.35 139.186 144.509C138.964 144.578 138.743 144.647 138.535 144.716L138.522 144.702Z" fill="white" stroke="#1A469D" stroke-width="0.345946" stroke-miterlimit="10"/>
<path d="M167.456 131.085C169.906 131.071 171.483 132.178 172.756 133.825C177.738 140.274 182.733 146.694 187.66 153.184C190.483 156.893 189.777 160.615 186.096 163.161C185.003 163.909 184.491 163.853 183.716 162.829C176.742 153.669 169.74 144.522 162.682 135.403C161.921 134.406 161.797 133.798 162.876 133.05C164.357 132.04 165.727 130.836 167.443 131.099L167.456 131.085Z" fill="white" stroke="#1A469D" stroke-width="0.345946" stroke-miterlimit="10"/>
<path d="M164.592 166.58C170.252 166.58 175.898 166.677 181.558 166.525C183.523 166.469 183.869 167.175 183.786 168.905C183.606 172.517 181.585 175.173 178.057 175.243C169.228 175.436 160.4 175.45 151.585 175.298C148.112 175.243 146.077 172.89 145.648 169.403C145.399 167.383 145.759 166.345 148.222 166.442C153.674 166.635 159.126 166.497 164.579 166.497C164.579 166.511 164.579 166.539 164.579 166.552L164.592 166.58Z" fill="white" stroke="#1A469D" stroke-width="0.345946" stroke-miterlimit="10"/>
<path d="M140.902 142.847C142.286 144.577 143.504 144.273 144.887 143.691C147.434 142.626 150.146 141.906 152.637 140.73C156.096 139.097 155.626 142.363 156.594 143.719C157.84 145.49 156.511 146.016 155.058 146.528C151.889 147.649 148.776 148.908 145.635 150.085C143.019 151.053 141.151 149.822 140.93 146.93C140.833 145.767 140.916 144.605 140.916 142.847H140.902Z" fill="white" stroke="#1A469D" stroke-width="0.345946" stroke-miterlimit="10"/>
<path d="M154.601 160.187C160.842 156.215 166.875 155.634 173.13 156.063C174.472 156.16 174.376 157.087 174.348 157.973C174.32 158.927 174.542 160.159 173.047 160.159C167.166 160.201 161.299 160.173 154.587 160.173L154.601 160.187Z" fill="#DDF2F9" stroke="#1A469D" stroke-width="0.345946" stroke-miterlimit="10"/>
<path d="M168.273 164.905C165.796 164.905 163.333 164.891 160.856 164.905C159.749 164.905 158.836 164.738 158.85 163.369C158.864 161.929 159.901 161.971 160.939 161.957C165.976 161.916 171.013 161.86 176.05 161.791C177.074 161.791 177.725 162.068 177.794 163.272C177.877 164.669 177.143 164.918 175.981 164.905C173.407 164.877 170.833 164.905 168.273 164.905Z" fill="white" stroke="#1A469D" stroke-width="0.345946" stroke-miterlimit="10"/>
<path d="M166.945 143.789C169.436 147.069 171.94 150.348 174.888 154.237C171.816 154.237 169.394 154.237 166.973 154.237C166.059 154.237 165.769 153.918 166.128 152.95C166.82 151.082 166.64 149.283 165.533 147.567C164.496 145.975 166.419 145.145 166.945 143.789Z" fill="white" stroke="#1A469D" stroke-width="0.345946" stroke-miterlimit="10"/>
<path d="M160.925 146.625C162.323 146.694 163.651 147.483 164.371 149.033C165.076 150.555 164.938 152.119 163.9 153.503C162.267 155.675 160.634 155.509 159.5 153.06C159.043 152.077 158.628 151.081 158.199 150.085C157.106 147.58 157.784 146.611 160.939 146.625H160.925Z" fill="white" stroke="#1A469D" stroke-width="0.345946" stroke-miterlimit="10"/>
<path d="M164.745 142.626C164.537 143.581 164.703 145.117 162.946 145.297C160.206 145.56 157.023 142.931 156.995 140.191C156.968 138.032 159.043 138.392 160.33 138.254C162.835 137.977 164.689 139.845 164.745 142.64V142.626Z" fill="white" stroke="#1A469D" stroke-width="0.345946" stroke-miterlimit="10"/>
<path d="M176.687 156.465C178.43 158.707 180.174 160.934 181.917 163.19C182.263 163.647 182.872 164.159 182.332 164.726C182.07 165.003 181.405 164.878 180.907 164.92C180.243 164.989 179.606 164.823 179.606 164.076C179.62 161.972 179.081 160.602 176.673 160.007C175.427 159.703 176.41 157.89 176.673 156.465H176.687Z" fill="white" stroke="#1A469D" stroke-width="0.345946" stroke-miterlimit="10"/>
<path d="M119.259 105.389C119.508 104.226 118.747 103.036 119.328 101.874C126.275 101.846 133.235 101.832 140.182 101.805C141.192 102.552 140.389 103.299 140.03 103.853C138.701 105.901 138.079 107.866 140.791 110.19C133.72 110.19 127.41 110.246 121.086 110.163C118.318 110.121 120.629 107.395 119.328 106.51C119.301 106.136 119.273 105.762 119.245 105.403L119.259 105.389Z" fill="#A2AFDA"/>
<path d="M128.891 111.989C131.464 111.989 134.052 111.989 136.626 111.989C137.678 111.989 138.19 112.196 138.093 113.511C137.747 117.98 133.512 121.855 128.78 121.841C124.283 121.841 120.228 118.174 119.771 113.926C119.619 112.473 119.979 111.933 121.446 111.975C123.923 112.044 126.4 111.989 128.877 111.989H128.891Z" fill="white" stroke="#1A469D" stroke-width="0.345946" stroke-miterlimit="10"/>
</svg>
