<svg width="182" height="181" viewBox="0 0 182 181" fill="none" xmlns="http://www.w3.org/2000/svg">
<path d="M165.345 105.883C174.052 64.8475 147.845 24.5228 106.81 15.8154C65.7739 7.10798 25.4492 33.3152 16.7418 74.3508C8.03435 115.386 34.2415 155.711 75.2772 164.419C116.313 173.126 156.637 146.919 165.345 105.883Z" stroke="#F15C58" stroke-width="1.38378" stroke-miterlimit="10" stroke-dasharray="7.08 7.08"/>
<path d="M91.0471 151.354C124.872 151.354 152.293 123.933 152.293 90.1076C152.293 56.2822 124.872 28.8613 91.0471 28.8613C57.2217 28.8613 29.8008 56.2822 29.8008 90.1076C29.8008 123.933 57.2217 151.354 91.0471 151.354Z" fill="#DDF2F9"/>
<path d="M141.763 172.707C134.802 172.707 127.842 172.68 120.881 172.735C119.595 172.735 119.166 172.514 119.207 171.116C119.304 167.684 119.221 167.684 115.858 167.684C109.963 167.684 104.068 167.56 98.1874 167.726C94.6173 167.823 91.5591 164.889 91.656 161.485C91.7528 157.846 94.3266 155.258 98.2012 155.23C103.017 155.189 107.846 155.189 112.662 155.244C113.824 155.258 114.322 155.064 114.281 153.736C114.184 149.93 114.198 146.111 114.267 142.306C114.295 140.7 113.7 140.064 112.067 140.092C108.732 140.175 105.397 140.119 102.076 140.105C99.585 140.105 97.8 138.473 97.8415 136.286C97.8968 134.169 99.6404 132.619 102.034 132.605C104.65 132.591 107.265 132.564 109.894 132.605C111.956 132.647 111.721 131.222 111.748 129.907C111.776 128.606 111.665 127.527 109.908 127.568C106.808 127.638 103.723 127.61 100.623 127.582C96.1809 127.555 92.3202 124.372 91.7528 120.345C91.0886 115.557 93.4272 111.793 98.0352 110.382C99.0177 110.077 99.2253 109.621 99.2253 108.652C99.2529 102.646 102.782 97.7202 108.331 95.7552C113.921 93.7902 119.94 95.4923 123.677 100.183C124.244 100.889 124.604 101.124 125.503 100.751C128.603 99.4914 131.661 99.7128 134.498 101.526C135.397 102.107 135.882 102.01 136.491 101.249C136.975 100.654 137.57 100.142 138.11 99.5883C138.871 98.8272 139.507 97.7755 140.42 97.4157C141.431 97.0144 142.247 98.2183 143.174 98.6473C144.392 99.2008 145.098 98.5366 145.167 97.5264C145.333 95.2847 146.481 94.7865 148.502 94.9941C150.204 95.174 151.947 95.1048 153.677 94.9941C154.895 94.9249 155.448 95.2432 155.711 96.5301C156.279 99.3115 156.652 99.4637 159.032 97.9554C160.098 97.2773 160.79 97.2358 161.689 98.2598C163.142 99.9065 164.747 101.429 166.353 102.937C167.044 103.587 167.197 104.127 166.602 104.874C166.311 105.248 166.117 105.691 165.868 106.092C165.135 107.296 165.356 108.195 166.809 108.348C169.023 108.569 169.591 109.759 169.328 111.779C169.176 112.956 169.314 114.159 169.3 115.35C169.3 116.36 169.549 117.508 169.134 118.339C168.747 119.127 167.446 118.892 166.574 119.224C165.329 119.681 165.066 120.511 165.896 121.507C167.294 123.154 167.058 124.496 165.315 125.659C164.36 126.295 164.249 127.222 164.249 128.288C164.277 142.458 164.235 156.614 164.318 170.784C164.318 172.486 163.806 172.777 162.257 172.763C155.421 172.68 148.571 172.721 141.721 172.721L141.763 172.707ZM161.703 129.367C160.942 130.419 160.153 130.281 159.143 129.63C156.749 128.094 156.32 128.288 155.697 131.139C155.462 132.232 155.075 132.716 153.857 132.647C151.726 132.536 149.567 132.536 147.436 132.647C146.205 132.716 145.72 132.356 145.444 131.125C144.793 128.205 144.475 128.08 141.998 129.672C140.946 130.35 140.227 130.322 139.507 129.298C138.497 127.859 137.099 127.513 135.356 127.568C131.371 127.707 127.385 127.693 123.4 127.568C121.933 127.527 121.601 128.011 121.712 129.34C121.822 130.765 121.739 132.19 121.739 133.616C121.739 140.341 121.739 147.066 121.739 153.777C121.739 154.386 121.366 155.313 122.639 155.203C127.178 154.843 130.928 157.347 134.955 158.759C137.224 159.548 137.542 163.021 135.425 163.893C131.537 165.498 127.828 167.795 123.372 167.657C122.5 167.629 121.656 167.394 121.67 168.902C121.67 170.313 122.279 170.355 123.372 170.355C135.619 170.327 147.879 170.313 160.126 170.369C161.634 170.369 161.994 169.954 161.98 168.487C161.924 155.936 161.952 143.385 161.938 130.834C161.938 130.377 162.104 129.893 161.703 129.34V129.367ZM135.425 125.105C133.349 123.763 134.498 122.767 135.107 121.784C135.743 120.746 136.075 119.833 134.622 119.21C133.681 118.809 132.256 119.21 131.841 118.145C131.481 117.218 131.744 116.028 131.744 114.962C131.744 114.007 131.744 113.052 131.744 112.112C131.744 109.192 131.73 109.136 134.415 108.361C135.55 108.029 135.909 107.448 135.453 106.438C134.733 104.819 133.64 103.587 131.883 102.951C127.316 101.29 122.57 104.03 121.809 108.97C121.587 110.396 120.757 109.925 120.037 109.98C118.875 110.091 119.193 109.206 119.276 108.638C119.595 106.673 120.328 104.874 121.712 103.408C122.141 102.951 122.417 102.633 121.933 101.927C119.318 98.1906 113.783 96.4609 109.188 98.0246C104.664 99.5606 101.273 104.445 101.578 108.97C101.633 109.704 101.841 110.174 102.602 110.382C106.725 111.516 108.676 114.409 109.147 118.505C107.68 118.781 106.748 118.265 106.352 116.955C105.314 113.523 101.412 111.627 98.0767 112.942C95.24 114.063 93.704 116.747 94.1883 119.75C94.6864 122.822 97.0389 125.008 100.125 125.091C103.39 125.174 106.67 125.105 109.936 125.119C112.579 125.119 114.059 126.531 114.156 129.104C114.184 129.755 114.184 130.419 114.156 131.069C114.059 133.629 112.565 135.096 109.977 135.124C107.417 135.138 104.857 135.151 102.297 135.124C101.315 135.124 100.36 135.235 100.346 136.383C100.346 137.559 101.315 137.642 102.283 137.642C105.549 137.615 108.829 137.628 112.094 137.642C115.194 137.642 116.661 139.109 116.661 142.209C116.661 146.139 116.702 150.069 116.633 153.985C116.619 155.023 116.938 155.258 117.934 155.258C118.944 155.258 119.221 154.995 119.221 153.971C119.179 145.585 119.179 137.186 119.221 128.8C119.221 127.9 119.027 127.444 118.059 127.624C117.007 127.804 116.675 127.458 116.633 126.309C116.592 124.939 117.339 125.119 118.183 125.119C123.704 125.119 129.24 125.119 135.383 125.119L135.425 125.105ZM160.333 127.375C161.108 126.503 161.855 125.479 162.782 124.676C163.848 123.749 164.166 122.988 163.198 121.743C162.257 120.511 163.433 117.384 164.941 117.121C166.629 116.83 167.28 116.041 166.975 114.381C166.906 113.98 166.906 113.537 166.975 113.135C167.238 111.516 166.726 110.645 164.969 110.423C163.613 110.257 162.243 107.13 163.059 106.051C164.166 104.598 163.903 103.574 162.533 102.563C162.008 102.176 161.537 101.705 161.15 101.18C160.472 100.252 159.821 100.336 158.908 100.903C156.984 102.107 154.3 101.041 153.788 98.841C153.511 97.6648 152.985 97.1113 151.74 97.3327C151.283 97.4157 150.785 97.4019 150.315 97.3327C148.585 97.0975 147.409 97.4572 147.16 99.5191C147.007 100.723 143.825 102.051 142.911 101.304C141.348 100.017 140.324 100.557 139.3 101.927C139.051 102.259 138.746 102.577 138.414 102.812C137.196 103.67 137.016 104.542 137.971 105.829C138.912 107.102 137.625 110.16 136.062 110.437C134.609 110.7 133.931 111.35 134.207 112.873C134.304 113.454 134.29 114.063 134.207 114.658C134.041 116.041 134.346 116.83 135.965 117.024C137.515 117.218 138.94 120.414 138.013 121.577C136.878 123.016 137.293 123.943 138.539 124.884C138.967 125.202 139.369 125.59 139.659 126.019C140.517 127.264 141.389 127.236 142.565 126.392C143.783 125.52 146.924 126.6 147.132 128.025C147.422 130.018 148.529 130.322 150.19 130.101C150.66 130.031 151.159 130.004 151.615 130.101C153.068 130.433 153.649 129.699 153.816 128.426C153.899 127.817 153.954 127.167 154.618 126.959C156.196 126.461 157.773 125.022 159.42 126.863C159.572 127.029 159.821 127.098 160.319 127.361L160.333 127.375ZM101.688 161.623C101.688 161.388 101.688 161.153 101.688 160.918C101.688 158.685 100.572 157.592 98.3396 157.638C95.7796 157.693 93.8146 159.395 94.0499 161.582C94.299 163.823 95.406 165.484 99.9725 165.359C103.211 165.276 101.093 162.966 101.688 161.803C101.716 161.762 101.688 161.692 101.688 161.623ZM116.73 162.633C114.53 162.633 112.33 162.689 110.143 162.606C108.981 162.564 109.119 163.256 109.119 163.962C109.119 164.681 108.981 165.359 110.143 165.346C114.475 165.29 118.82 165.276 123.151 165.346C124.41 165.359 124.23 164.654 124.272 163.879C124.313 163.049 124.216 162.564 123.165 162.606C121.034 162.689 118.889 162.633 116.758 162.633H116.73ZM116.536 160.253C118.737 160.253 120.937 160.198 123.137 160.281C124.203 160.323 124.244 159.811 124.244 159.008C124.244 158.164 124.272 157.583 123.082 157.61C118.806 157.679 114.53 157.679 110.254 157.61C109.009 157.583 109.175 158.288 109.119 159.063C109.064 159.977 109.355 160.309 110.309 160.267C112.385 160.198 114.475 160.239 116.55 160.239L116.536 160.253ZM126.763 158.261V164.681C128.99 163.851 131.135 163.049 133.28 162.246C133.668 162.108 134.152 162.038 134.193 161.54C134.249 160.876 133.626 160.862 133.211 160.71C131.121 159.907 129.032 159.132 126.763 158.275V158.261ZM106.712 161.43C106.712 160.668 106.656 159.894 106.712 159.132C106.808 158.067 106.587 157.569 105.314 157.583C104.055 157.583 104.027 158.178 104.055 159.105C104.096 160.641 104.082 162.177 104.055 163.713C104.041 164.64 103.93 165.401 105.355 165.387C106.698 165.373 106.753 164.737 106.698 163.754C106.656 162.993 106.698 162.218 106.698 161.457L106.712 161.43Z" fill="#1C489B"/>
<path d="M161.717 129.38C162.118 129.934 161.952 130.418 161.952 130.875C161.952 143.426 161.938 155.977 161.994 168.528C161.994 169.994 161.648 170.423 160.139 170.409C147.893 170.34 135.633 170.368 123.386 170.396C122.293 170.396 121.698 170.354 121.684 168.943C121.684 167.434 122.514 167.67 123.386 167.697C127.828 167.836 131.55 165.525 135.439 163.933C137.57 163.062 137.238 159.588 134.968 158.8C130.942 157.388 127.192 154.883 122.653 155.243C121.38 155.34 121.753 154.427 121.753 153.818C121.739 147.093 121.753 140.368 121.753 133.656C121.753 132.231 121.836 130.792 121.726 129.38C121.629 128.052 121.947 127.568 123.414 127.609C127.399 127.734 131.384 127.747 135.37 127.609C137.113 127.554 138.511 127.9 139.521 129.339C140.241 130.363 140.96 130.39 142.012 129.712C144.489 128.121 144.807 128.246 145.457 131.165C145.734 132.397 146.219 132.757 147.45 132.688C149.581 132.577 151.74 132.577 153.871 132.688C155.089 132.757 155.476 132.259 155.711 131.179C156.334 128.342 156.777 128.135 159.157 129.671C160.167 130.321 160.956 130.46 161.717 129.408V129.38ZM148.059 135.137C144.669 135.137 141.292 135.192 137.902 135.109C136.712 135.081 136.781 135.649 136.726 136.493C136.67 137.462 137.03 137.655 137.93 137.655C144.641 137.614 151.352 137.614 158.05 137.655C159.074 137.655 159.309 137.351 159.323 136.368C159.323 135.331 158.991 135.095 158.022 135.109C154.701 135.164 151.38 135.137 148.045 135.137H148.059ZM148.184 145.169C144.793 145.169 141.403 145.211 138.013 145.142C136.975 145.128 136.753 145.46 136.726 146.442C136.698 147.536 137.141 147.674 138.068 147.66C144.738 147.632 151.394 147.619 158.064 147.66C159.088 147.66 159.337 147.369 159.337 146.373C159.337 145.308 158.949 145.114 158.008 145.142C154.729 145.197 151.463 145.155 148.184 145.155V145.169ZM150.508 142.637C153.068 142.637 155.628 142.582 158.188 142.665C159.198 142.692 159.392 142.305 159.323 141.433C159.268 140.713 159.434 140.105 158.271 140.118C153.151 140.188 148.045 140.188 142.925 140.118C141.694 140.105 141.86 140.755 141.777 141.544C141.666 142.637 142.233 142.651 143.022 142.651C145.527 142.623 148.017 142.651 150.522 142.651L150.508 142.637ZM145.651 150.192C143.091 150.192 140.545 150.248 137.985 150.165C136.92 150.137 136.726 150.538 136.726 151.493C136.726 152.42 136.975 152.683 137.916 152.683C142.967 152.642 148.017 152.628 153.068 152.683C154.106 152.683 154.314 152.351 154.341 151.382C154.369 150.275 153.885 150.151 152.971 150.179C150.536 150.234 148.101 150.192 145.665 150.192H145.651ZM156.791 161.429C156.763 159.367 155.116 157.734 153.068 157.762C151.048 157.789 149.346 159.505 149.332 161.498C149.332 163.574 151.076 165.234 153.22 165.193C155.352 165.151 156.818 163.601 156.791 161.429ZM146.772 161.456C146.744 159.381 145.098 157.734 143.05 157.762C141.029 157.776 139.3 159.478 139.272 161.47C139.244 163.532 141.002 165.22 143.147 165.193C145.264 165.165 146.8 163.587 146.772 161.456ZM124.881 137.974C124.479 138.472 124.023 138.956 123.663 139.496C123.248 140.105 123.926 140.298 124.203 140.617C124.715 141.198 125.351 141.668 125.808 142.277C126.527 143.232 127.025 142.983 127.731 142.222C129.447 140.409 131.218 138.638 133.031 136.922C133.723 136.258 133.875 135.856 133.086 135.164C132.422 134.583 132.021 134.196 131.274 135.068C130.347 136.147 129.267 137.088 128.271 138.112C127.413 138.998 126.61 140.174 125.489 138.403C125.406 138.278 125.24 138.223 124.881 137.974ZM126.68 153.195C127.039 152.863 127.302 152.642 127.537 152.406C129.419 150.524 131.274 148.587 133.211 146.761C134.041 145.986 133.502 145.654 133.003 145.142C132.464 144.588 132.09 144.159 131.343 145.003C130.222 146.29 128.894 147.411 127.731 148.684C127.053 149.431 126.513 149.763 125.808 148.767C125.393 148.186 124.908 148.006 124.452 148.698C124.161 149.141 123.165 149.404 123.663 150.04C124.521 151.147 125.6 152.088 126.666 153.181L126.68 153.195ZM137.985 142.582C139.023 142.844 139.3 142.416 139.286 141.392C139.286 140.437 139.092 140.063 138.04 140.077C137.072 140.105 136.684 140.298 136.726 141.336C136.767 142.263 136.864 142.872 137.985 142.568V142.582ZM159.295 151.59C159.364 150.774 159.434 150.068 158.202 150.137C157.275 150.179 156.818 150.303 156.832 151.382C156.832 152.351 157.054 152.752 158.091 152.683C158.894 152.642 159.517 152.628 159.281 151.59H159.295Z" fill="#F7F7F6"/>
<path d="M135.439 125.119C129.295 125.119 123.76 125.119 118.238 125.119C117.408 125.119 116.661 124.953 116.689 126.309C116.716 127.458 117.062 127.804 118.114 127.624C119.083 127.458 119.276 127.914 119.276 128.8C119.249 137.186 119.235 145.585 119.276 153.971C119.276 154.995 119 155.258 117.989 155.258C116.993 155.258 116.675 155.009 116.689 153.985C116.744 150.055 116.716 146.125 116.716 142.209C116.716 139.095 115.249 137.642 112.15 137.642C108.884 137.642 105.605 137.628 102.339 137.642C101.37 137.642 100.388 137.559 100.401 136.383C100.401 135.235 101.384 135.11 102.353 135.124C104.913 135.151 107.473 135.151 110.033 135.124C112.606 135.11 114.115 133.629 114.212 131.069C114.239 130.419 114.239 129.755 114.212 129.104C114.115 126.531 112.634 125.133 109.991 125.119C106.725 125.119 103.446 125.174 100.18 125.091C97.0804 125.008 94.7418 122.822 94.2436 119.75C93.7593 116.747 95.2953 114.063 98.1321 112.942C101.467 111.627 105.369 113.537 106.407 116.955C106.804 118.265 107.736 118.781 109.202 118.505C108.746 114.409 106.781 111.516 102.657 110.382C101.896 110.174 101.675 109.718 101.633 108.97C101.329 104.445 104.705 99.5606 109.244 98.0246C113.838 96.4609 119.373 98.2045 121.988 101.927C122.487 102.633 122.21 102.937 121.767 103.408C120.383 104.874 119.65 106.673 119.332 108.638C119.249 109.192 118.916 110.077 120.093 109.98C120.812 109.911 121.643 110.396 121.864 108.97C122.625 104.016 127.385 101.29 131.938 102.951C133.681 103.587 134.789 104.819 135.508 106.438C135.951 107.448 135.605 108.043 134.47 108.361C131.772 109.136 131.8 109.192 131.8 112.112C131.8 113.066 131.8 114.021 131.8 114.962C131.8 116.028 131.537 117.218 131.896 118.145C132.312 119.21 133.751 118.809 134.678 119.21C136.131 119.833 135.785 120.746 135.162 121.784C134.553 122.78 133.405 123.777 135.48 125.105L135.439 125.119Z" fill="white"/>
<path d="M160.347 127.388C159.849 127.125 159.6 127.056 159.448 126.89C157.801 125.049 156.223 126.488 154.646 126.987C153.982 127.194 153.926 127.845 153.843 128.453C153.677 129.74 153.082 130.46 151.643 130.128C151.186 130.017 150.688 130.059 150.218 130.128C148.557 130.349 147.45 130.045 147.16 128.052C146.952 126.627 143.811 125.547 142.593 126.419C141.417 127.263 140.545 127.291 139.687 126.046C139.383 125.617 138.981 125.229 138.566 124.911C137.321 123.956 136.906 123.043 138.04 121.604C138.968 120.441 137.542 117.245 135.992 117.051C134.373 116.843 134.069 116.055 134.235 114.685C134.304 114.104 134.332 113.481 134.235 112.9C133.958 111.378 134.636 110.727 136.089 110.464C137.653 110.174 138.94 107.115 137.999 105.856C137.044 104.569 137.238 103.698 138.442 102.84C138.774 102.604 139.078 102.286 139.327 101.954C140.338 100.584 141.375 100.058 142.939 101.331C143.852 102.079 147.035 100.75 147.187 99.5462C147.436 97.4844 148.613 97.1246 150.342 97.3598C150.813 97.429 151.311 97.4428 151.768 97.3598C153.013 97.1384 153.539 97.6919 153.816 98.8681C154.328 101.055 157.012 102.134 158.936 100.93C159.835 100.363 160.485 100.28 161.177 101.207C161.565 101.733 162.035 102.217 162.561 102.591C163.931 103.601 164.18 104.611 163.087 106.078C162.271 107.157 163.654 110.284 164.997 110.45C166.768 110.672 167.266 111.557 167.003 113.163C166.934 113.564 166.934 114.007 167.003 114.408C167.307 116.069 166.657 116.857 164.969 117.148C163.461 117.411 162.271 120.524 163.225 121.77C164.18 123.029 163.876 123.776 162.81 124.703C161.883 125.506 161.136 126.53 160.361 127.402L160.347 127.388ZM150.633 102.563C144.323 102.563 139.272 107.531 139.258 113.771C139.258 119.915 144.461 125.119 150.605 125.105C156.763 125.091 161.772 120.068 161.8 113.896C161.828 107.503 156.971 102.577 150.633 102.563Z" fill="#F5F4F4"/>
<path d="M101.716 161.637C101.716 161.637 101.744 161.762 101.716 161.817C101.121 162.979 103.238 165.29 100 165.373C95.4338 165.498 94.313 163.837 94.0777 161.596C93.8425 159.409 95.8074 157.707 98.3674 157.652C100.6 157.606 101.716 158.699 101.716 160.931C101.716 161.167 101.716 161.402 101.716 161.637Z" fill="white"/>
<path d="M116.744 162.66C118.875 162.66 121.02 162.715 123.151 162.632C124.203 162.591 124.3 163.089 124.258 163.905C124.23 164.694 124.397 165.4 123.137 165.372C118.806 165.303 114.461 165.317 110.13 165.372C108.967 165.386 109.106 164.708 109.106 163.988C109.106 163.269 108.981 162.577 110.13 162.632C112.33 162.715 114.53 162.66 116.717 162.66H116.744Z" fill="#E4E3E2"/>
<path d="M116.564 160.281C114.488 160.281 112.399 160.239 110.323 160.308C109.368 160.336 109.078 160.018 109.133 159.104C109.188 158.316 109.022 157.624 110.268 157.651C114.544 157.721 118.819 157.721 123.095 157.651C124.285 157.624 124.272 158.205 124.258 159.049C124.258 159.852 124.216 160.364 123.151 160.322C120.95 160.239 118.75 160.294 116.55 160.294L116.564 160.281Z" fill="#F5F4F4"/>
<path d="M126.79 158.287C129.073 159.145 131.163 159.92 133.238 160.723C133.654 160.875 134.262 160.903 134.221 161.553C134.179 162.051 133.695 162.12 133.308 162.259C131.163 163.061 129.018 163.864 126.79 164.694V158.273V158.287Z" fill="#F7F7F6"/>
<path d="M106.726 161.457C106.726 162.218 106.684 162.993 106.726 163.754C106.781 164.736 106.726 165.373 105.383 165.387C103.958 165.4 104.069 164.639 104.083 163.712C104.11 162.176 104.124 160.64 104.083 159.104C104.055 158.191 104.083 157.596 105.342 157.582C106.615 157.582 106.836 158.066 106.739 159.132C106.67 159.893 106.739 160.668 106.739 161.429L106.726 161.457Z" fill="#EFEEED"/>
<path d="M148.045 135.122C151.366 135.122 154.701 135.164 158.022 135.095C158.991 135.081 159.337 135.302 159.323 136.354C159.323 137.336 159.074 137.655 158.05 137.641C151.338 137.599 144.627 137.599 137.93 137.641C137.03 137.641 136.67 137.447 136.726 136.479C136.767 135.634 136.712 135.067 137.902 135.095C141.278 135.178 144.669 135.122 148.059 135.122H148.045Z" fill="#1C489B"/>
<path d="M148.17 145.156C151.449 145.156 154.715 145.184 157.995 145.142C158.95 145.128 159.337 145.308 159.323 146.374C159.323 147.37 159.074 147.674 158.05 147.661C151.38 147.619 144.724 147.619 138.054 147.661C137.127 147.661 136.684 147.536 136.712 146.443C136.74 145.46 136.961 145.114 137.999 145.142C141.389 145.211 144.78 145.17 148.17 145.17V145.156Z" fill="#1C489B"/>
<path d="M150.495 142.622C147.99 142.622 145.499 142.609 142.994 142.622C142.192 142.622 141.625 142.622 141.749 141.515C141.832 140.713 141.666 140.076 142.898 140.09C148.018 140.159 153.138 140.159 158.244 140.09C159.42 140.076 159.254 140.685 159.295 141.405C159.365 142.276 159.171 142.664 158.161 142.636C155.601 142.567 153.041 142.609 150.481 142.609L150.495 142.622Z" fill="#1C489B"/>
<path d="M145.637 150.179C148.073 150.179 150.508 150.207 152.944 150.166C153.857 150.152 154.341 150.262 154.314 151.37C154.286 152.338 154.092 152.684 153.041 152.67C147.99 152.615 142.939 152.615 137.888 152.67C136.947 152.67 136.698 152.421 136.698 151.48C136.698 150.512 136.892 150.124 137.957 150.152C140.504 150.235 143.064 150.179 145.624 150.179H145.637Z" fill="#1C489B"/>
<path d="M156.791 161.415C156.818 163.588 155.352 165.138 153.221 165.179C151.076 165.221 149.318 163.56 149.332 161.485C149.332 159.478 151.048 157.776 153.068 157.748C155.116 157.721 156.763 159.354 156.791 161.415ZM154.341 161.498C154.272 160.668 153.774 160.184 153.096 160.212C152.335 160.239 151.754 160.779 151.837 161.609C151.906 162.315 152.432 162.758 153.179 162.716C153.94 162.661 154.328 162.204 154.341 161.498Z" fill="#1C489B"/>
<path d="M146.758 161.443C146.786 163.574 145.25 165.138 143.133 165.179C140.988 165.207 139.23 163.519 139.258 161.457C139.286 159.464 141.016 157.762 143.036 157.748C145.084 157.734 146.744 159.381 146.758 161.443ZM144.281 161.374C144.254 160.682 143.742 160.197 143.064 160.211C142.302 160.211 141.721 160.737 141.777 161.595C141.832 162.356 142.372 162.771 143.091 162.73C143.825 162.702 144.281 162.273 144.281 161.374Z" fill="#1C489B"/>
<path d="M124.881 137.974C125.227 138.209 125.407 138.278 125.49 138.403C126.624 140.174 127.413 138.998 128.271 138.112C129.267 137.088 130.347 136.147 131.274 135.068C132.021 134.182 132.422 134.57 133.087 135.165C133.875 135.871 133.723 136.272 133.031 136.922C131.218 138.638 129.447 140.409 127.731 142.222C127.026 142.983 126.527 143.232 125.808 142.278C125.351 141.669 124.701 141.198 124.203 140.617C123.926 140.313 123.248 140.105 123.663 139.496C124.023 138.956 124.479 138.472 124.881 137.974Z" fill="#1C489B"/>
<path d="M126.68 153.195C125.614 152.102 124.535 151.174 123.677 150.054C123.179 149.403 124.175 149.154 124.466 148.711C124.922 148.006 125.42 148.185 125.822 148.781C126.527 149.791 127.067 149.445 127.745 148.697C128.908 147.424 130.236 146.317 131.357 145.017C132.09 144.173 132.464 144.588 133.017 145.155C133.516 145.667 134.055 145.999 133.225 146.774C131.274 148.601 129.433 150.524 127.551 152.42C127.316 152.655 127.053 152.877 126.693 153.209L126.68 153.195Z" fill="#1C489B"/>
<path d="M137.971 142.582C136.85 142.887 136.753 142.278 136.712 141.351C136.67 140.299 137.058 140.105 138.027 140.091C139.078 140.064 139.272 140.437 139.272 141.406C139.272 142.416 139.009 142.859 137.971 142.596V142.582Z" fill="#1C489B"/>
<path d="M159.295 151.59C159.531 152.628 158.908 152.642 158.105 152.684C157.068 152.739 156.846 152.352 156.846 151.383C156.846 150.304 157.289 150.179 158.216 150.138C159.448 150.068 159.365 150.774 159.309 151.59H159.295Z" fill="#1C489B"/>
<path d="M150.633 102.562C156.971 102.562 161.828 107.489 161.8 113.896C161.772 120.067 156.763 125.09 150.605 125.104C144.461 125.118 139.258 119.915 139.258 113.771C139.258 107.544 144.323 102.562 150.633 102.562ZM150.633 122.6C155.435 122.586 159.434 118.504 159.392 113.688C159.351 108.9 155.407 104.97 150.633 104.97C145.79 104.97 141.763 108.969 141.763 113.785C141.763 118.601 145.817 122.627 150.633 122.614V122.6Z" fill="#1C489B"/>
<path d="M154.327 161.497C154.327 162.203 153.926 162.659 153.165 162.715C152.418 162.77 151.892 162.327 151.823 161.608C151.74 160.777 152.321 160.238 153.082 160.21C153.774 160.182 154.258 160.667 154.327 161.497Z" fill="#F7F7F6"/>
<path d="M144.281 161.387C144.281 162.286 143.825 162.715 143.091 162.743C142.358 162.771 141.818 162.356 141.777 161.608C141.721 160.75 142.302 160.238 143.064 160.225C143.742 160.225 144.254 160.695 144.281 161.387Z" fill="#F7F7F6"/>
<path d="M150.633 122.614C145.817 122.628 141.763 118.601 141.763 113.785C141.763 108.97 145.79 104.971 150.633 104.971C155.407 104.971 159.351 108.901 159.392 113.689C159.434 118.518 155.434 122.586 150.633 122.6V122.614ZM150.674 107.586C147.159 107.558 144.295 110.34 144.295 113.785C144.295 117.12 147.146 120.012 150.494 120.082C153.843 120.151 156.735 117.328 156.777 113.965C156.818 110.326 154.231 107.614 150.66 107.586H150.674Z" fill="#F4F3F3"/>
<path d="M150.674 107.586C154.231 107.614 156.832 110.312 156.791 113.965C156.749 117.342 153.857 120.151 150.508 120.082C147.16 120.013 144.309 117.134 144.309 113.785C144.309 110.34 147.16 107.558 150.688 107.586H150.674ZM154.342 113.772C154.342 111.71 152.709 110.063 150.661 110.035C148.571 110.008 146.772 111.765 146.772 113.813C146.772 115.778 148.543 117.549 150.508 117.605C152.543 117.66 154.342 115.861 154.342 113.772Z" fill="#1C489B"/>
<path d="M154.341 113.772C154.341 115.861 152.542 117.66 150.508 117.605C148.529 117.549 146.786 115.778 146.772 113.813C146.772 111.765 148.557 110.008 150.66 110.035C152.722 110.063 154.341 111.71 154.341 113.772Z" fill="#F7F7F6"/>
<path d="M101.84 75.5238C113.9 75.5238 123.677 65.7474 123.677 53.6877C123.677 41.6279 113.9 31.8516 101.84 31.8516C89.7807 31.8516 80.0044 41.6279 80.0044 53.6877C80.0044 65.7474 89.7807 75.5238 101.84 75.5238Z" fill="white"/>
<path d="M126.153 51.6401V51.8615C125.808 53.0931 125.808 54.3108 126.153 55.5423V55.9713C125.904 56.0267 125.96 56.2204 125.932 56.3865C125.558 59.1679 124.908 61.8801 123.594 64.3709C119.373 72.4107 112.786 76.9772 103.695 77.8213C102.463 77.9181 101.218 77.5445 100 78.015H99.571C99.1144 77.6137 98.5055 77.7106 97.9797 77.6275C88.4731 76.1469 80.6409 68.9789 78.3438 59.666C78.0393 58.4345 78.0117 57.1614 77.5273 55.9713V55.5423C77.8595 54.3108 77.8595 53.0931 77.5273 51.8615V51.4325C77.9425 50.9343 77.818 50.2978 77.9287 49.7305C79.8798 39.9056 85.6086 33.4433 95.1568 30.4267C96.6651 29.9562 98.2426 29.7209 99.7786 29.375C99.8478 29.375 99.917 29.375 100 29.375C101.204 29.8455 102.463 29.4719 103.695 29.5687C104.442 29.6518 105.203 29.6518 105.936 29.804C115.678 31.7966 122.127 37.5116 125.102 47.0182C125.572 48.5127 125.808 50.0902 126.153 51.6401ZM124.036 53.6881C124.036 41.4969 114.253 31.6998 102.297 31.4368C90.0644 31.1739 79.5477 41.3032 79.603 53.6327C79.6584 65.8377 89.4279 75.6902 101.439 75.9255C113.879 76.1746 124.327 65.727 124.036 53.6742V53.6881Z" fill="#1C489B"/>
<path d="M77.6938 51.8613C78.026 53.0929 78.026 54.3106 77.6938 55.5422V51.8613Z" fill="#1C489B"/>
<path d="M126.154 55.5285C125.808 54.297 125.808 53.0792 126.154 51.8477V55.5285Z" fill="#1C489B"/>
<path d="M103.695 77.8214C103.695 77.8214 103.653 77.9459 103.681 78.0151H100C101.204 77.5446 102.463 77.9182 103.695 77.8214Z" fill="#1C489B"/>
<path d="M90.3275 48.844C87.6153 48.8579 85.4428 51.0581 85.4981 53.7288C85.5396 56.4548 87.6845 58.5443 90.4105 58.5305C93.1366 58.5305 95.2261 56.3995 95.2123 53.6458C95.2123 50.9059 93.0812 48.8163 90.3275 48.844ZM90.3137 56.607C88.6255 56.5932 87.4354 55.3478 87.4631 53.6319C87.4908 51.9299 88.7085 50.7675 90.4244 50.7813C92.0988 50.7952 93.3027 52.0406 93.275 53.7565C93.2473 55.4447 92.0296 56.6209 90.2998 56.607H90.3137Z" fill="#1C489B"/>
<path d="M103.833 48.844C101.121 48.8579 98.9486 51.0581 99.004 53.7288C99.0455 56.4548 101.19 58.5443 103.916 58.5305C106.642 58.5305 108.732 56.3995 108.718 53.6458C108.718 50.9059 106.587 48.8163 103.833 48.844ZM103.82 56.607C102.131 56.5932 100.941 55.3478 100.969 53.6319C100.997 51.9299 102.214 50.7675 103.93 50.7813C105.605 50.7952 106.808 52.0406 106.781 53.7565C106.753 55.4447 105.535 56.6209 103.806 56.607H103.82Z" fill="#1C489B"/>
<path d="M117.367 48.844C114.654 48.8579 112.482 51.0581 112.537 53.7288C112.579 56.4548 114.724 58.5443 117.45 58.5305C120.176 58.5305 122.265 56.3995 122.251 53.6458C122.251 50.9059 120.12 48.8163 117.367 48.844ZM117.353 56.607C115.665 56.5932 114.474 55.3478 114.502 53.6319C114.53 51.9299 115.748 50.7675 117.463 50.7813C119.138 50.7952 120.342 52.0406 120.314 53.7565C120.286 55.4447 119.069 56.6209 117.339 56.607H117.353Z" fill="#1C489B"/>
<path d="M43.7772 81.8614C57.9056 81.9168 69.1558 93.25 69.1143 107.378C69.0728 121.451 57.6842 132.688 43.5281 132.66C29.6211 132.632 18.108 121.133 18.3017 106.77C18.4816 93.0839 29.9117 81.8199 43.791 81.8614H43.7772ZM43.8187 82.8993C30.4375 82.8578 19.3949 93.7066 19.3396 106.949C19.2704 120.497 30.1331 131.608 43.4589 131.636C56.9923 131.664 68.0349 120.801 68.0764 107.434C68.1179 93.9142 57.2552 82.9408 43.8187 82.8993Z" fill="#1C489B" stroke="#1A469D" stroke-width="0.691892" stroke-miterlimit="10"/>
<path d="M43.8188 82.8986C57.2554 82.9401 68.118 93.9135 68.0765 107.433C68.0489 120.8 56.9924 131.663 43.459 131.635C30.1332 131.608 19.2705 120.496 19.3397 106.949C19.4089 93.7059 30.4376 82.857 43.8188 82.8986ZM29.3583 99.5316C29.3583 100.957 29.3444 102.396 29.3583 103.821C29.386 105.288 30.2577 106.146 31.7384 106.16C34.5613 106.174 37.3704 106.174 40.1933 106.16C41.6601 106.16 42.5872 105.261 42.6011 103.821C42.6288 100.957 42.6288 98.1063 42.6011 95.2419C42.6011 93.8443 41.7016 92.931 40.3178 92.9172C37.4119 92.8895 34.5198 92.8895 31.6139 92.9172C30.2024 92.9172 29.3721 93.8028 29.3583 95.2281C29.3444 96.6534 29.3583 98.0925 29.3583 99.5178V99.5316ZM58.058 99.4624C58.058 98.1202 58.058 96.7641 58.058 95.4218C58.0441 93.7751 57.2277 92.931 55.5948 92.9172C52.8134 92.9172 50.0459 92.9033 47.2644 92.9172C45.6454 92.9172 44.8151 93.7751 44.8151 95.4356C44.8151 98.1755 44.8151 100.915 44.8151 103.641C44.8151 105.274 45.6869 106.146 47.2783 106.16C50.0597 106.16 52.8273 106.174 55.6087 106.16C57.1585 106.16 58.0303 105.288 58.0441 103.752C58.0579 102.327 58.0441 100.888 58.0441 99.4624H58.058ZM36.042 121.617C37.4257 121.617 38.8095 121.631 40.2071 121.617C41.674 121.603 42.6011 120.731 42.6011 119.292C42.6288 116.441 42.6288 113.577 42.6011 110.726C42.6011 109.246 41.7016 108.374 40.2487 108.36C37.3981 108.346 34.5336 108.346 31.683 108.36C30.2577 108.36 29.386 109.218 29.3721 110.616C29.3444 113.508 29.3583 116.4 29.3721 119.306C29.3721 120.717 30.2439 121.589 31.6415 121.603C33.1083 121.631 34.5752 121.603 36.042 121.603V121.617ZM44.8151 114.864C44.8151 116.331 44.8013 117.798 44.8151 119.264C44.8428 120.717 45.7146 121.603 47.1814 121.603C50.032 121.617 52.8964 121.617 55.747 121.603C57.1585 121.603 58.0303 120.731 58.0441 119.32C58.0718 116.428 58.0718 113.536 58.0441 110.63C58.0441 109.232 57.1446 108.36 55.747 108.346C52.8964 108.319 50.032 108.332 47.1814 108.346C45.7008 108.346 44.829 109.218 44.8151 110.685C44.7875 112.069 44.8151 113.452 44.8151 114.85V114.864Z" fill="white" stroke="#1A469D" stroke-width="0.691892" stroke-miterlimit="10"/>
<path d="M29.358 99.5179C29.358 98.0926 29.3442 96.6535 29.358 95.2282C29.3718 93.8029 30.2021 92.9172 31.6136 92.9172C34.5195 92.8896 37.4116 92.8896 40.3176 92.9172C41.6875 92.9172 42.587 93.8444 42.6008 95.242C42.6285 98.1064 42.6285 100.957 42.6008 103.821C42.6008 105.247 41.6598 106.146 40.193 106.16C37.3701 106.174 34.561 106.174 31.7381 106.16C30.2575 106.16 29.3857 105.274 29.358 103.821C29.3303 102.396 29.358 100.957 29.358 99.5317V99.5179ZM40.4006 99.5179C40.4006 98.2863 40.3729 97.0686 40.4006 95.837C40.4283 95.242 40.2345 95.0759 39.6534 95.0898C37.2041 95.1175 34.7548 95.1175 32.3055 95.0898C31.7104 95.0898 31.5444 95.2558 31.5582 95.837C31.5859 98.2863 31.5859 100.736 31.5582 103.185C31.5582 103.78 31.7243 103.946 32.3055 103.932C34.7548 103.904 37.2041 103.904 39.6534 103.932C40.2484 103.932 40.4283 103.766 40.4006 103.185C40.3591 101.967 40.4006 100.736 40.4006 99.504V99.5179Z" fill="#1C489B"/>
<path d="M58.0576 99.4636C58.0576 100.889 58.0576 102.328 58.0576 103.753C58.0438 105.289 57.172 106.147 55.6221 106.161C52.8407 106.175 50.0732 106.161 47.2918 106.161C45.6866 106.161 44.8286 105.275 44.8286 103.643C44.8286 100.903 44.8286 98.1628 44.8286 95.4367C44.8286 93.7762 45.6589 92.9321 47.2779 92.9183C50.0593 92.9044 52.8269 92.9183 55.6083 92.9183C57.2273 92.9183 58.0576 93.7624 58.0714 95.4229C58.0714 96.7652 58.0714 98.1213 58.0714 99.4636H58.0576ZM55.8435 99.4636C55.8435 98.2735 55.802 97.0973 55.8574 95.9072C55.885 95.2292 55.636 95.1046 55.0271 95.1185C52.6193 95.1462 50.2115 95.16 47.8038 95.1185C47.1257 95.1185 47.0012 95.3399 47.015 95.9487C47.0427 98.3565 47.0565 100.764 47.015 103.172C47.015 103.85 47.2364 103.975 47.8453 103.961C50.2531 103.933 52.6608 103.919 55.0686 103.961C55.7467 103.961 55.885 103.739 55.8574 103.131C55.8159 101.913 55.8574 100.681 55.8574 99.4497L55.8435 99.4636Z" fill="#1C489B"/>
<path d="M36.0418 121.616C34.575 121.616 33.1082 121.63 31.6413 121.616C30.2437 121.589 29.3858 120.717 29.3719 119.319C29.3581 116.427 29.3443 113.535 29.3719 110.629C29.3719 109.232 30.2576 108.387 31.6829 108.374C34.5334 108.36 37.3979 108.36 40.2485 108.374C41.7153 108.374 42.6009 109.259 42.6009 110.74C42.6286 113.591 42.6286 116.455 42.6009 119.306C42.6009 120.745 41.6738 121.603 40.207 121.63C38.8232 121.644 37.4394 121.63 36.0418 121.63V121.616ZM31.5722 114.864C31.5722 116.123 31.5998 117.396 31.5722 118.655C31.5583 119.25 31.7382 119.416 32.3194 119.402C34.7687 119.375 37.218 119.375 39.6673 119.402C40.2623 119.402 40.4284 119.236 40.4145 118.655C40.3869 116.206 40.3869 113.757 40.4145 111.307C40.4145 110.712 40.2485 110.546 39.6673 110.56C37.218 110.588 34.7687 110.588 32.3194 110.56C31.7244 110.56 31.5445 110.726 31.5722 111.307C31.6137 112.483 31.5722 113.674 31.5722 114.864Z" fill="#1C489B"/>
<path d="M44.815 114.864C44.815 113.48 44.8012 112.096 44.815 110.699C44.8427 109.232 45.7145 108.374 47.1813 108.36C50.0319 108.346 52.8963 108.346 55.7469 108.36C57.1445 108.36 58.0302 109.246 58.044 110.643C58.0717 113.535 58.0717 116.427 58.044 119.333C58.044 120.745 57.1584 121.603 55.7469 121.617C52.8963 121.644 50.0319 121.63 47.1813 121.617C45.7145 121.617 44.8289 120.731 44.815 119.278C44.7874 117.811 44.815 116.344 44.815 114.878V114.864ZM55.8438 115.016C55.8438 113.826 55.8161 112.65 55.8438 111.46C55.8715 110.809 55.7331 110.533 54.9997 110.546C52.6334 110.602 50.2671 110.588 47.887 110.546C47.2367 110.546 46.9599 110.657 46.9737 111.39C47.0291 113.757 47.0152 116.123 46.9737 118.503C46.9737 119.154 47.0844 119.43 47.8178 119.416C50.1841 119.361 52.5504 119.361 54.9167 119.416C55.7331 119.444 55.8576 119.14 55.8161 118.434C55.7608 117.299 55.8023 116.151 55.8023 115.002L55.8438 115.016Z" fill="#1C489B"/>
<path d="M40.4008 99.5322C40.4008 100.764 40.3731 101.982 40.4008 103.213C40.4285 103.808 40.2347 103.974 39.6535 103.96C37.2042 103.933 34.755 103.933 32.3057 103.96C31.7106 103.96 31.5446 103.794 31.5584 103.213C31.5861 100.764 31.5861 98.3145 31.5584 95.8652C31.5584 95.2702 31.7245 95.1041 32.3057 95.118C34.755 95.1456 37.2042 95.1456 39.6535 95.118C40.2486 95.118 40.4285 95.284 40.4008 95.8652C40.3593 97.0829 40.4008 98.3145 40.4008 99.5461V99.5322Z" fill="#A2AFDA"/>
<path d="M55.8576 99.4627C55.8576 100.694 55.8299 101.912 55.8576 103.144C55.8714 103.752 55.7469 103.988 55.0689 103.974C52.6611 103.932 50.2533 103.932 47.8455 103.974C47.2366 103.974 47.0014 103.863 47.0152 103.185C47.0567 100.777 47.0567 98.3695 47.0152 95.9617C47.0152 95.3528 47.1259 95.1176 47.804 95.1314C50.2118 95.1729 52.6196 95.1729 55.0273 95.1314C55.6362 95.1314 55.8991 95.2421 55.8576 95.9202C55.8022 97.0964 55.8438 98.2865 55.8438 99.4765L55.8576 99.4627Z" fill="#A2AFDA"/>
<path d="M31.5719 114.865C31.5719 113.675 31.5996 112.499 31.5719 111.309C31.5442 110.714 31.7379 110.547 32.3191 110.561C34.7684 110.589 37.2177 110.589 39.667 110.561C40.2482 110.561 40.4281 110.727 40.4143 111.309C40.3866 113.758 40.3866 116.207 40.4143 118.656C40.4143 119.238 40.2482 119.418 39.667 119.404C37.2177 119.376 34.7684 119.376 32.3191 119.404C31.7379 119.404 31.5442 119.251 31.5719 118.656C31.6134 117.397 31.5719 116.124 31.5719 114.865Z" fill="#A2AFDA"/>
<path d="M55.8573 115.017C55.8573 116.166 55.8158 117.301 55.8712 118.449C55.8989 119.155 55.7882 119.445 54.9717 119.432C52.6055 119.362 50.2392 119.376 47.8729 119.432C47.1395 119.445 47.015 119.183 47.0288 118.518C47.0703 116.152 47.0703 113.786 47.0288 111.406C47.015 110.672 47.2917 110.548 47.9421 110.562C50.3084 110.603 52.6746 110.603 55.0547 110.562C55.7881 110.548 55.9265 110.811 55.8989 111.475C55.8573 112.651 55.8989 113.841 55.8989 115.031L55.8573 115.017Z" fill="#A2AFDA"/>
</svg>
